{
.appVersion = "1352";
copyright = "Copyright 2019 The Metal Project Authors (https://github.com/danhhong/Metal)";
customParameters = (
{
name = "Use Typo Metrics";
value = 1;
},
{
name = license;
value = "This Font Software is licensed under the SIL Open Font License, Version 1.1. This license is available with a FAQ at: https://scripts.sil.org/OFL";
},
{
name = licenseURL;
value = "https://scripts.sil.org/OFL";
},
{
name = fsType;
value = (
);
}
);
date = "2020-02-19 02:17:00 +0000";
designer = "Danh Hong";
designerURL = "http://www.nextspell.com";
disablesAutomaticAlignment = 1;
disablesNiceNames = 1;
familyName = Metal;
featurePrefixes = (
{
code = "lookup lookup_0 {\012sub uni17B7 by uni17B7.r;\012sub uni17B8 by uni17B8.r;\012sub uni17B9 by uni17B9.r;\012sub uni17BA by uni17BA.r;\012sub uni17BE by uni17B8.r;\012sub uni17C6 by uni17C6.r;\012sub uni17C9 by uni17C9.r;\012sub uni17CD by uni17CD.r;\012sub uni17B7_17CD by iMark_17CDkhmer.r;\012} lookup_0;\012";
name = lookup_0;
},
{
code = "lookup lookup_1 {\012sub uni17B7 by uni17B7.a;\012sub uni17B8 by uni17B8.a;\012sub uni17B9 by uni17B9.a;\012sub uni17BA by uni17BA.a;\012sub uni17BE by uni17B8.a;\012sub uni17C6 by uni17C6.a;\012sub uni17CE by uni17CE.a;\012sub uni17D0 by uni17D0.a;\012} lookup_1;\012";
name = lookup_1;
},
{
code = "lookup lookup_10 {\012sub uni17BB by uni17BB.n;\012sub uni17BC by uni17BC.n;\012sub uni17BD by uni17BD.n;\012} lookup_10;\012";
name = lookup_10;
},
{
code = "lookup lookup_11 {\012sub uni17BB.b by uni17BB.n2;\012sub uni17BC.b by uni17BC.n2;\012sub uni17BD.b by uni17BD.n2;\012} lookup_11;\012";
name = lookup_11;
},
{

glyphs = (
{
glyphname = A;
lastChange = "2021-05-07 10:00:42 +0000";
layers = (
{
layerId = "982A60EF-513A-498E-AE80-A9982858EA0F";
paths = (
{
closed = 1;
nodes = (
"896 303 OFFCURVE",
"908 205 OFFCURVE",
"908 182 CURVE SMOOTH",
"908 139 OFFCURVE",
"903 108 OFFCURVE",
"894 88 CURVE",
"881 67 OFFCURVE",
"819 48 OFFCURVE",
"792 48 CURVE SMOOTH",
"783 48 OFFCURVE",
"778 34 OFFCURVE",
"778 6 CURVE SMOOTH",
"778 -1 OFFCURVE",
"779 -5 OFFCURVE",
"780 -6 CURVE",
"819 -3 OFFCURVE",
"882 -1 OFFCURVE",
"923 2 CURVE SMOOTH",
"945 3 OFFCURVE",
"969 4 OFFCURVE",
"994 4 CURVE SMOOTH",
"1009 4 OFFCURVE",
"1078 1 OFFCURVE",
"1202 -6 CURVE",
"1209 7 OFFCURVE",
"1212 22 OFFCURVE",
"1212 38 CURVE SMOOTH",
"1212 45 OFFCURVE",
"1211 48 OFFCURVE",
"1208 48 CURVE SMOOTH",
"1181 48 OFFCURVE",
"1100 80 OFFCURVE",
"1092 120 CURVE SMOOTH",
"1089 132 OFFCURVE",
"1081 180 OFFCURVE",
"1068 264 CURVE SMOOTH",
"902 1320 LINE",
"897 1323 OFFCURVE",
"891 1324 OFFCURVE",
"886 1324 CURVE SMOOTH",
"854 1324 OFFCURVE",
"828 1306 OFFCURVE",
"808 1270 CURVE SMOOTH",
"256 278 LINE SMOOTH",
"204 185 OFFCURVE",
"163 122 OFFCURVE",
"134 90 CURVE SMOOTH",
"113 66 OFFCURVE",
"47 48 OFFCURVE",
"18 48 CURVE SMOOTH",
"9 48 OFFCURVE",
"4 35 OFFCURVE",
"4 10 CURVE SMOOTH",
"4 2 OFFCURVE",
"5 -3 OFFCURVE",
"8 -6 CURVE",
"40 -4 OFFCURVE",
"168 4 OFFCURVE",
"204 4 CURVE SMOOTH",
"207 4 OFFCURVE",
"270 1 OFFCURVE",
"394 -6 CURVE",
"401 7 OFFCURVE",
"404 21 OFFCURVE",
"404 36 CURVE SMOOTH",
"404 44 OFFCURVE",
"403 48 OFFCURVE",
"400 48 CURVE SMOOTH",
"372 48 OFFCURVE",
"290 69 OFFCURVE",
"290 110 CURVE SMOOTH",
"290 150 OFFCURVE",
"366 301 OFFCURVE",
"430 408 CURVE SMOOTH",
"462 461 OFFCURVE",
"480 488 OFFCURVE",
"484 488 CURVE SMOOTH",
"580 495 OFFCURVE",
"642 498 OFFCURVE",
"670 498 CURVE SMOOTH",
"740 498 OFFCURVE",
"813 497 OFFCURVE",
"847 493 CURVE SMOOTH",
"865 491 OFFCURVE",
"872 490 OFFCURVE",
"872 478 CURVE"
);
},
{
closed = 1;
nodes = (
"625 596 OFFCURVE",
"575 597 OFFCURVE",
"544 598 CURVE SMOOTH",
"543 598 OFFCURVE",
"542 599 OFFCURVE",
"542 602 CURVE SMOOTH",
"542 605 OFFCURVE",
"624 755 OFFCURVE",
"788 1052 CURVE",
"796 996 OFFCURVE",
"824 814 OFFCURVE",
"841 702 CURVE SMOOTH",
"850 646 OFFCURVE",
"854 615 OFFCURVE",
"854 608 CURVE SMOOTH",
"854 603 OFFCURVE",
"851 600 OFFCURVE",
"846 600 CURVE SMOOTH",
"807 597 OFFCURVE",
"757 596 OFFCURVE",
"696 596 CURVE SMOOTH"
);
}
);
width = 1212;
}
);
note = A;
unicode = 0041;
},
{
glyphname = B;
lastChange = "2021-05-07 10:00:42 +0000";
layers = (
{
layerId = "982A60EF-513A-498E-AE80-A9982858EA0F";
paths = (
{
closed = 1;
nodes = (
"1076 582 OFFCURVE",
"944 709 OFFCURVE",
"864 722 CURVE",
"876 728 LINE SMOOTH",
"911 743 OFFCURVE",
"970 780 OFFCURVE",
"1016 826 CURVE SMOOTH",
"1053 863 OFFCURVE",
"1083 903 OFFCURVE",
"1102 963 CURVE SMOOTH",
"1111 993 OFFCURVE",
"1116 1024 OFFCURVE",
"1116 1056 CURVE SMOOTH",
"1116 1149 OFFCURVE",
"1069 1223 OFFCURVE",
"1001 1260 CURVE SMOOTH",
"933 1297 OFFCURVE",
"859 1314 OFFCURVE",
"784 1314 CURVE SMOOTH",
"752 1314 OFFCURVE",
"716 1314 OFFCURVE",
"676 1313 CURVE SMOOTH",
"636 1312 OFFCURVE",
"585 1312 OFFCURVE",
"522 1312 CURVE SMOOTH",
"441 1312 OFFCURVE",
"369 1313 OFFCURVE",
"308 1316 CURVE",
"299 1307 OFFCURVE",
"294 1291 OFFCURVE",
"294 1270 CURVE SMOOTH",
"294 1265 OFFCURVE",
"295 1262 OFFCURVE",
"298 1262 CURVE SMOOTH",
"327 1262 OFFCURVE",
"410 1233 OFFCURVE",
"410 1214 CURVE SMOOTH",
"410 1166 OFFCURVE",
"403 1104 OFFCURVE",
"388 1028 CURVE SMOOTH",
"244 284 LINE SMOOTH",
"228 199 OFFCURVE",
"211 137 OFFCURVE",
"192 98 CURVE SMOOTH",
"181 74 OFFCURVE",
"94 52 OFFCURVE",
"62 52 CURVE SMOOTH",
"53 52 OFFCURVE",
"48 39 OFFCURVE",
"48 12 CURVE SMOOTH",
"48 1 OFFCURVE",
"49 -5 OFFCURVE",
"50 -6 CURVE",
"270 0 LINE",
"524 0 LINE SMOOTH",
"863 0 OFFCURVE",
"1076 211 OFFCURVE",
"1076 430 CURVE SMOOTH"
);
},
{
closed = 1;
nodes = (
"946 907 OFFCURVE",
"905 823 OFFCURVE",
"830 788 CURVE SMOOTH",
"755 753 OFFCURVE",
"703 746 OFFCURVE",
"618 746 CURVE SMOOTH",
"573 746 OFFCURVE",
"494 748 OFFCURVE",
"500 772 CURVE SMOOTH",
"590 1206 LINE SMOOTH",
"593 1223 OFFCURVE",
"643 1232 OFFCURVE",
"740 1232 CURVE SMOOTH",
"877 1232 OFFCURVE",
"946 1165 OFFCURVE",
"946 1032 CURVE SMOOTH"
);
},
{
closed = 1;
nodes = (
"896 278 OFFCURVE",
"807 159 OFFCURVE",
"698 108 CURVE SMOOTH",
"662 91 OFFCURVE",
"597 82 OFFCURVE",
"504 82 CURVE SMOOTH",
"426 82 OFFCURVE",
"384 86 OFFCURVE",
"384 136 CURVE SMOOTH",
"384 160 OFFCURVE",
"387 192 OFFCURVE",
"394 232 CURVE SMOOTH",
"470 632 LINE SMOOTH",
"474 652 OFFCURVE",
"523 662 OFFCURVE",
"618 662 CURVE SMOOTH",
"813 662 OFFCURVE",
"896 563 OFFCURVE",
"896 422 CURVE SMOOTH"
);
}
);
width = 1056;
}
);
note = B;
unicode = 0042;
},
{
glyphname = C;
lastChange = "2021-05-07 10:00:42 +0000";
layers = (
{
layerId = "982A60EF-513A-498E-AE80-A9982858EA0F";
paths = (
{
closed = 1;
nodes = (
"669 1334 OFFCURVE",
"467 1223 OFFCURVE",
"336 1067 CURVE SMOOTH",
"205 911 OFFCURVE",
"120 710 OFFCURVE",
"120 534 CURVE SMOOTH",
"120 241 OFFCURVE",
"325 -12 OFFCURVE",
"642 -12 CURVE SMOOTH",
"813 -12 OFFCURVE",
"1012 29 OFFCURVE",
"1052 74 CURVE SMOOTH",
"1059 81 OFFCURVE",
"1092 141 OFFCURVE",
"1152 256 CURVE",
"1155 267 OFFCURVE",
"1120 306 OFFCURVE",
"1112 306 CURVE SMOOTH",
"1111 306 OFFCURVE",
"1069 246 OFFCURVE",
"1039 212 CURVE SMOOTH",
"1014 184 OFFCURVE",
"985 160 OFFCURVE",
"952 140 CURVE SMOOTH",
"883 96 OFFCURVE",
"799 74 OFFCURVE",
"700 74 CURVE SMOOTH",
"447 74 OFFCURVE",
"302 262 OFFCURVE",
"302 518 CURVE SMOOTH",
"302 907 OFFCURVE",
"589 1250 OFFCURVE",
"864 1250 CURVE SMOOTH",
"987 1250 OFFCURVE",
"1078 1212 OFFCURVE",
"1119 1172 CURVE SMOOTH",
"1140 1152 OFFCURVE",
"1156 1127 OFFCURVE",
"1168 1096 CURVE SMOOTH",
"1192 1035 OFFCURVE",
"1190 1012 OFFCURVE",
"1190 972 CURVE",
"1194 968 OFFCURVE",
"1201 966 OFFCURVE",
"1212 966 CURVE SMOOTH",
"1240 966 OFFCURVE",
"1256 976 OFFCURVE",
"1260 996 CURVE SMOOTH",
"1263 1009 OFFCURVE",
"1276 1092 OFFCURVE",
"1300 1244 CURVE",
"1107 1304 OFFCURVE",
"965 1334 OFFCURVE",
"874 1334 CURVE SMOOTH"
);
}
);
width = 1160;
}
);
note = C;
unicode = 0043;
},
{
glyphname = D;
lastChange = "2021-05-07 10:00:42 +0000";
layers = (
{
layerId = "982A60EF-513A-498E-AE80-A9982858EA0F";
paths = (
{
closed = 1;
nodes = (
"824 1316 OFFCURVE",
"775 1315 OFFCURVE",
"702 1314 CURVE SMOOTH",
"629 1313 OFFCURVE",
"569 1312 OFFCURVE",
"522 1312 CURVE SMOOTH",
"441 1312 OFFCURVE",
"369 1313 OFFCURVE",
"308 1316 CURVE",
"299 1307 OFFCURVE",
"294 1291 OFFCURVE",
"294 1270 CURVE SMOOTH",
"294 1265 OFFCURVE",
"295 1262 OFFCURVE",
"298 1262 CURVE SMOOTH",
"327 1262 OFFCURVE",
"407 1235 OFFCURVE",
"410 1214 CURVE SMOOTH",
"413 1185 OFFCURVE",
"405 1123 OFFCURVE",
"388 1028 CURVE SMOOTH",
"244 284 LINE SMOOTH",
"228 199 OFFCURVE",
"211 137 OFFCURVE",
"192 98 CURVE SMOOTH",
"181 74 OFFCURVE",
"87 48 OFFCURVE",
"58 48 CURVE SMOOTH",
"51 48 OFFCURVE",
"48 35 OFFCURVE",
"48 10 CURVE SMOOTH",
"48 1 OFFCURVE",
"49 -5 OFFCURVE",
"50 -6 CURVE",
"272 4 LINE",
"317 4 OFFCURVE",
"375 2 OFFCURVE",
"446 -1 CURVE SMOOTH",
"517 -4 OFFCURVE",
"564 -6 OFFCURVE",
"588 -6 CURVE SMOOTH",
"793 -6 OFFCURVE",
"976 71 OFFCURVE",
"1096 186 CURVE SMOOTH",
"1156 243 OFFCURVE",
"1208 308 OFFCURVE",
"1251 380 CURVE SMOOTH",
"1338 524 OFFCURVE",
"1376 674 OFFCURVE",
"1376 810 CURVE SMOOTH",
"1376 1101 OFFCURVE",
"1195 1316 OFFCURVE",
"848 1316 CURVE SMOOTH"
);
},
{
closed = 1;
nodes = (
"1084 1228 OFFCURVE",
"1200 1063 OFFCURVE",
"1200 828 CURVE SMOOTH",
"1200 577 OFFCURVE",
"1110 340 OFFCURVE",
"934 195 CURVE SMOOTH",
"846 122 OFFCURVE",
"746 86 OFFCURVE",
"634 86 CURVE SMOOTH",
"491 86 OFFCURVE",
"414 99 OFFCURVE",
"402 126 CURVE SMOOTH",
"399 133 OFFCURVE",
"398 155 OFFCURVE",
"398 193 CURVE SMOOTH",
"398 231 OFFCURVE",
"400 259 OFFCURVE",
"404 278 CURVE SMOOTH",
"550 1038 LINE SMOOTH",
"565 1117 OFFCURVE",
"583 1169 OFFCURVE",
"604 1196 CURVE SMOOTH",
"621 1217 OFFCURVE",
"701 1228 OFFCURVE",
"844 1228 CURVE SMOOTH"
);
}
);
width = 1336;
}
);
note = D;
unicode = 0044;
},
{
glyphname = E;
lastChange = "2021-05-07 10:00:42 +0000";
layers = (
{
layerId = "982A60EF-513A-498E-AE80-A9982858EA0F";
paths = (
{
closed = 1;
nodes = (
"441 1312 OFFCURVE",
"369 1313 OFFCURVE",
"308 1316 CURVE",
"299 1307 OFFCURVE",
"294 1291 OFFCURVE",
"294 1270 CURVE SMOOTH",
"294 1265 OFFCURVE",
"295 1262 OFFCURVE",
"298 1262 CURVE SMOOTH",
"327 1262 OFFCURVE",
"407 1235 OFFCURVE",
"410 1214 CURVE SMOOTH",
"413 1185 OFFCURVE",
"405 1123 OFFCURVE",
"388 1028 CURVE SMOOTH",
"244 284 LINE SMOOTH",
"228 199 OFFCURVE",
"211 137 OFFCURVE",
"192 98 CURVE SMOOTH",
"181 74 OFFCURVE",
"87 48 OFFCURVE",
"58 48 CURVE SMOOTH",
"51 48 OFFCURVE",
"48 35 OFFCURVE",
"48 10 CURVE SMOOTH",
"48 1 OFFCURVE",
"49 -5 OFFCURVE",
"50 -6 CURVE",
"272 4 LINE",
"325 4 OFFCURVE",
"426 2 OFFCURVE",
"575 -2 CURVE SMOOTH",
"724 -6 OFFCURVE",
"833 -8 OFFCURVE",
"904 -8 CURVE",
"920 40 OFFCURVE",
"975 151 OFFCURVE",
"1068 324 CURVE",
"1063 332 OFFCURVE",
"1049 336 OFFCURVE",
"1026 336 CURVE SMOOTH",
"1010 336 OFFCURVE",
"1000 332 OFFCURVE",
"996 324 CURVE SMOOTH",
"945 223 OFFCURVE",
"883 143 OFFCURVE",
"840 122 CURVE SMOOTH",
"795 99 OFFCURVE",
"714 88 OFFCURVE",
"598 88 CURVE SMOOTH",
"508 88 LINE SMOOTH",
"448 88 OFFCURVE",
"413 90 OFFCURVE",
"402 94 CURVE SMOOTH",
"391 98 OFFCURVE",
"386 110 OFFCURVE",
"386 130 CURVE SMOOTH",
"386 175 OFFCURVE",
"393 233 OFFCURVE",
"408 304 CURVE SMOOTH",
"466 600 LINE SMOOTH",
"469 612 OFFCURVE",
"514 618 OFFCURVE",
"602 618 CURVE SMOOTH",
"718 618 OFFCURVE",
"783 613 OFFCURVE",
"796 602 CURVE SMOOTH",
"812 589 OFFCURVE",
"812 582 OFFCURVE",
"818 557 CURVE SMOOTH",
"822 539 OFFCURVE",
"825 512 OFFCURVE",
"826 476 CURVE SMOOTH",
"827 465 OFFCURVE",
"837 460 OFFCURVE",
"854 460 CURVE SMOOTH",
"865 460 OFFCURVE",
"874 463 OFFCURVE",
"882 468 CURVE",
"956 852 LINE",
"952 859 OFFCURVE",
"942 862 OFFCURVE",
"926 862 CURVE SMOOTH",
"911 862 OFFCURVE",
"902 857 OFFCURVE",
"898 848 CURVE SMOOTH",
"837 709 OFFCURVE",
"832 706 OFFCURVE",
"656 706 CURVE SMOOTH",
"566 706 LINE SMOOTH",
"531 706 OFFCURVE",
"492 706 OFFCURVE",
"492 722 CURVE",
"556 1072 LINE SMOOTH",
"565 1121 OFFCURVE",
"577 1166 OFFCURVE",
"592 1206 CURVE SMOOTH",
"599 1223 OFFCURVE",
"649 1232 OFFCURVE",
"744 1232 CURVE SMOOTH",
"852 1232 LINE SMOOTH",
"985 1232 OFFCURVE",
"1042 1209 OFFCURVE",
"1050 1060 CURVE SMOOTH",
"1050 1051 OFFCURVE",
"1058 1046 OFFCURVE",
"1074 1046 CURVE SMOOTH",
"1091 1046 OFFCURVE",
"1103 1049 OFFCURVE",
"1110 1056 CURVE",
"1110 1077 OFFCURVE",
"1109 1109 OFFCURVE",
"1108 1152 CURVE SMOOTH",
"1107 1195 OFFCURVE",
"1106 1227 OFFCURVE",
"1106 1250 CURVE SMOOTH",
"1106 1283 OFFCURVE",
"1107 1309 OFFCURVE",
"1108 1328 CURVE",
"1039 1328 OFFCURVE",
"937 1325 OFFCURVE",
"804 1320 CURVE SMOOTH",
"671 1315 OFFCURVE",
"577 1312 OFFCURVE",
"522 1312 CURVE SMOOTH"
);
}
);
width = 1038;
}
);
note = E;
unicode = 0045;
},
{
glyphname = F;
lastChange = "2021-05-07 10:00:42 +0000";
layers = (
{
layerId = "982A60EF-513A-498E-AE80-A9982858EA0F";
paths = (
{
closed = 1;
nodes = (
"304 4 OFFCURVE",
"382 1 OFFCURVE",
"506 -6 CURVE",
"514 2 OFFCURVE",
"518 15 OFFCURVE",
"518 32 CURVE SMOOTH",
"518 43 OFFCURVE",
"517 48 OFFCURVE",
"514 48 CURVE SMOOTH",
"480 52 LINE SMOOTH",
"435 57 OFFCURVE",
"378 77 OFFCURVE",
"378 98 CURVE SMOOTH",
"378 150 OFFCURVE",
"383 203 OFFCURVE",
"394 256 CURVE SMOOTH",
"462 600 LINE SMOOTH",
"465 612 OFFCURVE",
"510 618 OFFCURVE",
"598 618 CURVE SMOOTH",
"714 618 OFFCURVE",
"779 613 OFFCURVE",
"792 602 CURVE SMOOTH",
"808 589 OFFCURVE",
"808 582 OFFCURVE",
"814 557 CURVE SMOOTH",
"818 539 OFFCURVE",
"821 512 OFFCURVE",
"822 476 CURVE SMOOTH",
"823 465 OFFCURVE",
"833 460 OFFCURVE",
"850 460 CURVE SMOOTH",
"861 460 OFFCURVE",
"870 463 OFFCURVE",
"878 468 CURVE",
"952 852 LINE",
"948 859 OFFCURVE",
"938 862 OFFCURVE",
"922 862 CURVE SMOOTH",
"907 862 OFFCURVE",
"898 857 OFFCURVE",
"894 848 CURVE SMOOTH",
"833 709 OFFCURVE",
"828 706 OFFCURVE",
"652 706 CURVE SMOOTH",
"562 706 LINE SMOOTH",
"527 706 OFFCURVE",
"488 706 OFFCURVE",
"488 722 CURVE",
"552 1072 LINE SMOOTH",
"561 1121 OFFCURVE",
"573 1166 OFFCURVE",
"588 1206 CURVE SMOOTH",
"595 1223 OFFCURVE",
"645 1232 OFFCURVE",
"740 1232 CURVE SMOOTH",
"848 1232 LINE SMOOTH",
"981 1232 OFFCURVE",
"1038 1209 OFFCURVE",
"1046 1060 CURVE SMOOTH",
"1046 1051 OFFCURVE",
"1054 1046 OFFCURVE",
"1070 1046 CURVE SMOOTH",
"1087 1046 OFFCURVE",
"1099 1049 OFFCURVE",
"1106 1056 CURVE",
"1106 1077 OFFCURVE",
"1105 1109 OFFCURVE",
"1104 1152 CURVE SMOOTH",
"1103 1195 OFFCURVE",
"1102 1227 OFFCURVE",
"1102 1250 CURVE SMOOTH",
"1102 1283 OFFCURVE",
"1103 1309 OFFCURVE",
"1104 1328 CURVE",
"1033 1328 OFFCURVE",
"932 1325 OFFCURVE",
"800 1320 CURVE SMOOTH",
"668 1315 OFFCURVE",
"575 1312 OFFCURVE",
"522 1312 CURVE SMOOTH",
"441 1312 OFFCURVE",
"369 1313 OFFCURVE",
"308 1316 CURVE",
"299 1307 OFFCURVE",
"294 1291 OFFCURVE",
"294 1270 CURVE SMOOTH",
"294 1265 OFFCURVE",
"295 1262 OFFCURVE",
"298 1262 CURVE SMOOTH",
"327 1262 OFFCURVE",
"407 1235 OFFCURVE",
"410 1214 CURVE SMOOTH",
"413 1185 OFFCURVE",
"405 1123 OFFCURVE",
"388 1028 CURVE SMOOTH",
"244 284 LINE SMOOTH",
"228 199 OFFCURVE",
"211 137 OFFCURVE",
"192 98 CURVE SMOOTH",
"181 74 OFFCURVE",
"87 48 OFFCURVE",
"58 48 CURVE SMOOTH",
"51 48 OFFCURVE",
"48 35 OFFCURVE",
"48 10 CURVE SMOOTH",
"48 1 OFFCURVE",
"49 -5 OFFCURVE",
"50 -6 CURVE",
"198 1 OFFCURVE",
"272 4 OFFCURVE",
"272 4 CURVE"
);
}
);
width = 1006;
}
);
note = F;
unicode = 0046;
},
{
glyphname = G;
lastChange = "2021-05-07 10:00:42 +0000";
layers = (
{
layerId = "982A60EF-513A-498E-AE80-A9982858EA0F";
paths = (
{
closed = 1;
nodes = (
"614 1334 OFFCURVE",
"358 1148 OFFCURVE",
"222 893 CURVE SMOOTH",
"154 766 OFFCURVE",
"120 637 OFFCURVE",
"120 508 CURVE SMOOTH",
"120 212 OFFCURVE",
"315 -12 OFFCURVE",
"598 -12 CURVE SMOOTH",
"662 -12 OFFCURVE",
"725 -7 OFFCURVE",
"768 -3 CURVE SMOOTH",
"810 1 OFFCURVE",
"865 14 OFFCURVE",
"896 20 CURVE SMOOTH",
"931 27 OFFCURVE",
"1052 68 OFFCURVE",
"1080 82 CURVE",
"1113 95 OFFCURVE",
"1126 104 OFFCURVE",
"1126 126 CURVE SMOOTH",
"1126 130 OFFCURVE",
"1125 138 OFFCURVE",
"1124 149 CURVE SMOOTH",
"1123 160 OFFCURVE",
"1122 171 OFFCURVE",
"1122 180 CURVE SMOOTH",
"1122 181 OFFCURVE",
"1122 184 OFFCURVE",
"1123 187 CURVE SMOOTH",
"1124 190 OFFCURVE",
"1124 193 OFFCURVE",
"1124 194 CURVE SMOOTH",
"1172 472 LINE SMOOTH",
"1180 523 OFFCURVE",
"1275 548 OFFCURVE",
"1320 548 CURVE SMOOTH",
"1328 548 OFFCURVE",
"1332 566 OFFCURVE",
"1332 602 CURVE",
"1205 595 OFFCURVE",
"1133 592 OFFCURVE",
"1114 592 CURVE SMOOTH",
"1113 592 OFFCURVE",
"1040 595 OFFCURVE",
"896 602 CURVE",
"885 591 OFFCURVE",
"880 577 OFFCURVE",
"880 558 CURVE SMOOTH",
"880 551 OFFCURVE",
"881 548 OFFCURVE",
"884 548 CURVE SMOOTH",
"919 548 OFFCURVE",
"1022 520 OFFCURVE",
"1022 496 CURVE SMOOTH",
"1022 480 OFFCURVE",
"1019 457 OFFCURVE",
"1016 444 CURVE SMOOTH",
"1014 436 LINE",
"958 152 LINE SMOOTH",
"954 135 OFFCURVE",
"947 123 OFFCURVE",
"936 118 CURVE SMOOTH",
"879 89 OFFCURVE",
"795 74 OFFCURVE",
"686 74 CURVE SMOOTH",
"451 74 OFFCURVE",
"310 290 OFFCURVE",
"310 546 CURVE SMOOTH",
"310 759 OFFCURVE",
"416 996 OFFCURVE",
"591 1141 CURVE SMOOTH",
"678 1214 OFFCURVE",
"771 1250 OFFCURVE",
"868 1250 CURVE SMOOTH",
"991 1250 OFFCURVE",
"1082 1212 OFFCURVE",
"1123 1172 CURVE SMOOTH",
"1144 1152 OFFCURVE",
"1160 1127 OFFCURVE",
"1172 1097 CURVE SMOOTH",
"1196 1037 OFFCURVE",
"1194 1016 OFFCURVE",
"1194 976 CURVE",
"1197 969 OFFCURVE",
"1204 966 OFFCURVE",
"1216 966 CURVE SMOOTH",
"1245 966 OFFCURVE",
"1261 972 OFFCURVE",
"1262 984 CURVE",
"1270 1025 OFFCURVE",
"1284 1112 OFFCURVE",
"1304 1244 CURVE",
"1111 1304 OFFCURVE",
"969 1334 OFFCURVE",
"878 1334 CURVE SMOOTH"
);
}
);
width = 1232;
}
);
note = G;
unicode = 0047;
},
{
glyphname = H;
lastChange = "2021-05-07 10:00:42 +0000";
layers = (
{
layerId = "982A60EF-513A-498E-AE80-A9982858EA0F";
paths = (
{
closed = 1;
nodes = (
"665 730 OFFCURVE",
"582 731 OFFCURVE",
"547 733 CURVE SMOOTH",
"512 735 OFFCURVE",
"494 739 OFFCURVE",
"494 746 CURVE SMOOTH",
"494 748 LINE",
"544 1030 LINE SMOOTH",
"557 1105 OFFCURVE",
"575 1167 OFFCURVE",
"596 1216 CURVE SMOOTH",
"604 1235 OFFCURVE",
"699 1262 OFFCURVE",
"720 1262 CURVE SMOOTH",
"729 1262 OFFCURVE",
"734 1278 OFFCURVE",
"734 1310 CURVE SMOOTH",
"734 1316 LINE",
"725 1316 OFFCURVE",
"695 1314 OFFCURVE",
"645 1310 CURVE SMOOTH",
"595 1306 OFFCURVE",
"554 1304 OFFCURVE",
"522 1304 CURVE SMOOTH",
"455 1304 OFFCURVE",
"338 1313 OFFCURVE",
"306 1316 CURVE",
"295 1305 OFFCURVE",
"290 1291 OFFCURVE",
"290 1272 CURVE SMOOTH",
"290 1265 OFFCURVE",
"291 1262 OFFCURVE",
"294 1262 CURVE SMOOTH",
"329 1262 OFFCURVE",
"406 1237 OFFCURVE",
"406 1208 CURVE SMOOTH",
"406 1159 OFFCURVE",
"399 1097 OFFCURVE",
"384 1024 CURVE SMOOTH",
"242 284 LINE SMOOTH",
"227 201 OFFCURVE",
"210 137 OFFCURVE",
"190 92 CURVE SMOOTH",
"179 68 OFFCURVE",
"94 48 OFFCURVE",
"62 48 CURVE SMOOTH",
"53 48 OFFCURVE",
"48 35 OFFCURVE",
"48 10 CURVE SMOOTH",
"48 2 OFFCURVE",
"49 -3 OFFCURVE",
"52 -6 CURVE",
"196 1 OFFCURVE",
"269 4 OFFCURVE",
"272 4 CURVE SMOOTH",
"288 4 OFFCURVE",
"357 1 OFFCURVE",
"480 -6 CURVE",
"488 10 OFFCURVE",
"492 25 OFFCURVE",
"492 40 CURVE SMOOTH",
"492 45 OFFCURVE",
"491 48 OFFCURVE",
"488 48 CURVE SMOOTH",
"460 52 LINE SMOOTH",
"425 57 OFFCURVE",
"380 77 OFFCURVE",
"380 98 CURVE SMOOTH",
"380 145 OFFCURVE",
"387 205 OFFCURVE",
"402 278 CURVE SMOOTH",
"466 608 LINE SMOOTH",
"469 624 OFFCURVE",
"566 632 OFFCURVE",
"758 632 CURVE SMOOTH",
"878 632 OFFCURVE",
"954 631 OFFCURVE",
"985 629 CURVE SMOOTH",
"1016 627 OFFCURVE",
"1032 623 OFFCURVE",
"1032 616 CURVE SMOOTH",
"1032 614 LINE",
"968 284 LINE SMOOTH",
"953 201 OFFCURVE",
"936 137 OFFCURVE",
"916 92 CURVE SMOOTH",
"905 68 OFFCURVE",
"820 48 OFFCURVE",
"788 48 CURVE SMOOTH",
"779 48 OFFCURVE",
"774 35 OFFCURVE",
"774 10 CURVE SMOOTH",
"774 2 OFFCURVE",
"775 -3 OFFCURVE",
"778 -6 CURVE",
"921 1 OFFCURVE",
"994 4 OFFCURVE",
"998 4 CURVE SMOOTH",
"1013 4 OFFCURVE",
"1082 1 OFFCURVE",
"1206 -6 CURVE",
"1214 10 OFFCURVE",
"1218 25 OFFCURVE",
"1218 40 CURVE SMOOTH",
"1218 45 OFFCURVE",
"1217 48 OFFCURVE",
"1214 48 CURVE SMOOTH",
"1188 52 LINE SMOOTH",
"1151 57 OFFCURVE",
"1106 77 OFFCURVE",
"1106 98 CURVE SMOOTH",
"1106 145 OFFCURVE",
"1113 205 OFFCURVE",
"1128 278 CURVE SMOOTH",
"1274 1030 LINE SMOOTH",
"1289 1110 OFFCURVE",
"1306 1172 OFFCURVE",
"1326 1216 CURVE SMOOTH",
"1334 1235 OFFCURVE",
"1427 1262 OFFCURVE",
"1448 1262 CURVE SMOOTH",
"1457 1262 OFFCURVE",
"1462 1278 OFFCURVE",
"1462 1310 CURVE SMOOTH",
"1462 1316 LINE",
"1454 1316 OFFCURVE",
"1424 1314 OFFCURVE",
"1373 1310 CURVE SMOOTH",
"1322 1306 OFFCURVE",
"1280 1304 OFFCURVE",
"1248 1304 CURVE SMOOTH",
"1181 1304 OFFCURVE",
"1064 1313 OFFCURVE",
"1032 1316 CURVE",
"1021 1305 OFFCURVE",
"1016 1291 OFFCURVE",
"1016 1272 CURVE SMOOTH",
"1016 1265 OFFCURVE",
"1017 1262 OFFCURVE",
"1020 1262 CURVE SMOOTH",
"1055 1262 OFFCURVE",
"1132 1237 OFFCURVE",
"1132 1208 CURVE SMOOTH",
"1132 1159 OFFCURVE",
"1125 1097 OFFCURVE",
"1110 1024 CURVE SMOOTH",
"1056 746 LINE",
"1055 735 OFFCURVE",
"967 730 OFFCURVE",
"794 730 CURVE SMOOTH"
);
}
);
width = 1254;
}
);
note = H;
unicode = 0048;
},
{
glyphname = I;
lastChange = "2021-05-07 10:00:42 +0000";
layers = (
{
layerId = "982A60EF-513A-498E-AE80-A9982858EA0F";
paths = (
{
closed = 1;
nodes = (
"561 1117 OFFCURVE",
"579 1179 OFFCURVE",
"596 1216 CURVE SMOOTH",
"604 1235 OFFCURVE",
"699 1262 OFFCURVE",
"720 1262 CURVE SMOOTH",
"729 1262 OFFCURVE",
"734 1278 OFFCURVE",
"734 1310 CURVE SMOOTH",
"734 1316 LINE",
"725 1316 OFFCURVE",
"695 1314 OFFCURVE",
"645 1310 CURVE SMOOTH",
"595 1306 OFFCURVE",
"554 1304 OFFCURVE",
"522 1304 CURVE SMOOTH",
"455 1304 OFFCURVE",
"338 1313 OFFCURVE",
"306 1316 CURVE",
"295 1305 OFFCURVE",
"290 1291 OFFCURVE",
"290 1272 CURVE SMOOTH",
"290 1265 OFFCURVE",
"291 1262 OFFCURVE",
"294 1262 CURVE SMOOTH",
"329 1262 OFFCURVE",
"406 1237 OFFCURVE",
"406 1208 CURVE SMOOTH",
"406 1159 OFFCURVE",
"399 1097 OFFCURVE",
"384 1024 CURVE SMOOTH",
"242 284 LINE SMOOTH",
"227 201 OFFCURVE",
"210 137 OFFCURVE",
"190 92 CURVE SMOOTH",
"179 68 OFFCURVE",
"94 48 OFFCURVE",
"62 48 CURVE SMOOTH",
"53 48 OFFCURVE",
"48 35 OFFCURVE",
"48 10 CURVE SMOOTH",
"48 2 OFFCURVE",
"49 -3 OFFCURVE",
"52 -6 CURVE",
"196 1 OFFCURVE",
"269 4 OFFCURVE",
"272 4 CURVE SMOOTH",
"288 4 OFFCURVE",
"357 1 OFFCURVE",
"480 -6 CURVE",
"488 10 OFFCURVE",
"492 25 OFFCURVE",
"492 40 CURVE SMOOTH",
"492 45 OFFCURVE",
"491 48 OFFCURVE",
"488 48 CURVE SMOOTH",
"460 52 LINE SMOOTH",
"425 57 OFFCURVE",
"380 77 OFFCURVE",
"380 98 CURVE SMOOTH",
"380 145 OFFCURVE",
"387 205 OFFCURVE",
"402 278 CURVE SMOOTH",
"544 1030 LINE SMOOTH"
);
}
);
width = 526;
}
);
note = I;
unicode = 0049;
},
{
glyphname = J;
lastChange = "2021-05-07 10:00:42 +0000";
layers = (
{
layerId = "982A60EF-513A-498E-AE80-A9982858EA0F";
paths = (
{
closed = 1;
nodes = (
"155 -177 OFFCURVE",
"61 -349 OFFCURVE",
"-158 -418 CURVE",
"-160 -430 LINE",
"-160 -445 OFFCURVE",
"-156 -457 OFFCURVE",
"-148 -466 CURVE",
"-79 -466 OFFCURVE",
"-6 -441 OFFCURVE",
"81 -372 CURVE SMOOTH",
"124 -337 OFFCURVE",
"165 -294 OFFCURVE",
"203 -243 CURVE SMOOTH",
"279 -140 OFFCURVE",
"353 29 OFFCURVE",
"390 232 CURVE SMOOTH",
"540 1030 LINE SMOOTH",
"553 1105 OFFCURVE",
"571 1167 OFFCURVE",
"592 1216 CURVE SMOOTH",
"600 1235 OFFCURVE",
"681 1262 OFFCURVE",
"702 1262 CURVE SMOOTH",
"711 1262 OFFCURVE",
"716 1278 OFFCURVE",
"716 1310 CURVE SMOOTH",
"716 1316 LINE",
"707 1316 OFFCURVE",
"677 1314 OFFCURVE",
"627 1310 CURVE SMOOTH",
"577 1306 OFFCURVE",
"536 1304 OFFCURVE",
"504 1304 CURVE SMOOTH",
"437 1304 OFFCURVE",
"320 1313 OFFCURVE",
"288 1316 CURVE",
"277 1305 OFFCURVE",
"272 1291 OFFCURVE",
"272 1272 CURVE SMOOTH",
"272 1265 OFFCURVE",
"273 1262 OFFCURVE",
"276 1262 CURVE SMOOTH",
"311 1262 OFFCURVE",
"402 1237 OFFCURVE",
"402 1208 CURVE SMOOTH",
"402 1171 OFFCURVE",
"395 1109 OFFCURVE",
"380 1024 CURVE SMOOTH",
"230 218 LINE SMOOTH"
);
}
);
width = 508;
}
);
note = J;
unicode = 004A;
},
{
glyphname = K;
lastChange = "2021-05-07 10:00:42 +0000";
layers = (
{
layerId = "982A60EF-513A-498E-AE80-A9982858EA0F";
paths = (
{
closed = 1;
nodes = (
"561 1117 OFFCURVE",
"579 1179 OFFCURVE",
"596 1216 CURVE SMOOTH",
"604 1235 OFFCURVE",
"699 1262 OFFCURVE",
"720 1262 CURVE SMOOTH",
"729 1262 OFFCURVE",
"734 1278 OFFCURVE",
"734 1310 CURVE SMOOTH",
"734 1316 LINE",
"725 1316 OFFCURVE",
"695 1314 OFFCURVE",
"645 1310 CURVE SMOOTH",
"595 1306 OFFCURVE",
"554 1304 OFFCURVE",
"522 1304 CURVE SMOOTH",
"455 1304 OFFCURVE",
"338 1313 OFFCURVE",
"306 1316 CURVE",
"295 1305 OFFCURVE",
"290 1291 OFFCURVE",
"290 1272 CURVE SMOOTH",
"290 1265 OFFCURVE",
"291 1262 OFFCURVE",
"294 1262 CURVE SMOOTH",
"329 1262 OFFCURVE",
"406 1237 OFFCURVE",
"406 1208 CURVE SMOOTH",
"406 1159 OFFCURVE",
"399 1097 OFFCURVE",
"384 1024 CURVE SMOOTH",
"242 284 LINE SMOOTH",
"227 201 OFFCURVE",
"210 137 OFFCURVE",
"190 92 CURVE SMOOTH",
"179 68 OFFCURVE",
"94 48 OFFCURVE",
"62 48 CURVE SMOOTH",
"53 48 OFFCURVE",
"48 35 OFFCURVE",
"48 10 CURVE SMOOTH",
"48 2 OFFCURVE",
"49 -3 OFFCURVE",
"52 -6 CURVE",
"196 1 OFFCURVE",
"269 4 OFFCURVE",
"272 4 CURVE SMOOTH",
"288 4 OFFCURVE",
"357 1 OFFCURVE",
"480 -6 CURVE",
"488 10 OFFCURVE",
"492 25 OFFCURVE",
"492 40 CURVE SMOOTH",
"492 45 OFFCURVE",
"491 48 OFFCURVE",
"488 48 CURVE SMOOTH",
"460 52 LINE SMOOTH",
"425 57 OFFCURVE",
"380 77 OFFCURVE",
"380 98 CURVE SMOOTH",
"380 145 OFFCURVE",
"387 205 OFFCURVE",
"402 278 CURVE SMOOTH",
"544 1030 LINE SMOOTH"
);
},
{
closed = 1;
nodes = (
"502 613 OFFCURVE",
"649 425 OFFCURVE",
"914 88 CURVE SMOOTH",
"934 62 OFFCURVE",
"967 38 OFFCURVE",
"1027 16 CURVE SMOOTH",
"1064 3 OFFCURVE",
"1103 -4 OFFCURVE",
"1146 -4 CURVE SMOOTH",
"1178 -4 OFFCURVE",
"1228 -2 OFFCURVE",
"1296 2 CURVE",
"1303 15 OFFCURVE",
"1306 29 OFFCURVE",
"1306 44 CURVE SMOOTH",
"1306 52 OFFCURVE",
"1305 56 OFFCURVE",
"1302 56 CURVE SMOOTH",
"1265 56 OFFCURVE",
"1137 88 OFFCURVE",
"1092 144 CURVE SMOOTH",
"684 638 LINE SMOOTH",
"676 649 OFFCURVE",
"672 659 OFFCURVE",
"672 670 CURVE SMOOTH",
"672 679 OFFCURVE",
"675 687 OFFCURVE",
"682 694 CURVE SMOOTH",
"1170 1182 LINE SMOOTH",
"1218 1230 OFFCURVE",
"1289 1259 OFFCURVE",
"1382 1270 CURVE",
"1390 1270 OFFCURVE",
"1394 1285 OFFCURVE",
"1394 1316 CURVE",
"1386 1316 OFFCURVE",
"1356 1314 OFFCURVE",
"1305 1310 CURVE SMOOTH",
"1254 1306 OFFCURVE",
"1212 1304 OFFCURVE",
"1180 1304 CURVE SMOOTH",
"1141 1304 OFFCURVE",
"1032 1312 OFFCURVE",
"984 1316 CURVE",
"977 1305 OFFCURVE",
"974 1294 OFFCURVE",
"974 1282 CURVE SMOOTH",
"974 1274 OFFCURVE",
"976 1270 OFFCURVE",
"980 1270 CURVE SMOOTH",
"1015 1270 OFFCURVE",
"1076 1260 OFFCURVE",
"1076 1236 CURVE SMOOTH",
"1076 1218 OFFCURVE",
"1029 1169 OFFCURVE",
"1016 1156 CURVE SMOOTH",
"829 951 OFFCURVE",
"597 727 OFFCURVE",
"474 652 CURVE"
);
}
);
width = 1284;
}
);
note = K;
unicode = 004B;
},
{
glyphname = L;
lastChange = "2021-05-07 10:00:42 +0000";
layers = (
{
layerId = "982A60EF-513A-498E-AE80-A9982858EA0F";
paths = (
{
closed = 1;
nodes = (
"563 1117 OFFCURVE",
"581 1179 OFFCURVE",
"598 1216 CURVE SMOOTH",
"606 1235 OFFCURVE",
"701 1262 OFFCURVE",
"722 1262 CURVE SMOOTH",
"731 1262 OFFCURVE",
"736 1278 OFFCURVE",
"736 1310 CURVE SMOOTH",
"736 1316 LINE",
"727 1316 OFFCURVE",
"697 1314 OFFCURVE",
"647 1310 CURVE SMOOTH",
"597 1306 OFFCURVE",
"556 1304 OFFCURVE",
"524 1304 CURVE SMOOTH",
"457 1304 OFFCURVE",
"340 1313 OFFCURVE",
"308 1316 CURVE",
"297 1305 OFFCURVE",
"292 1291 OFFCURVE",
"292 1272 CURVE SMOOTH",
"292 1265 OFFCURVE",
"293 1262 OFFCURVE",
"296 1262 CURVE SMOOTH",
"331 1262 OFFCURVE",
"408 1237 OFFCURVE",
"408 1208 CURVE SMOOTH",
"408 1159 OFFCURVE",
"401 1097 OFFCURVE",
"386 1024 CURVE SMOOTH",
"244 284 LINE SMOOTH",
"228 199 OFFCURVE",
"211 137 OFFCURVE",
"192 98 CURVE SMOOTH",
"181 77 OFFCURVE",
"97 58 OFFCURVE",
"62 58 CURVE SMOOTH",
"53 58 OFFCURVE",
"48 42 OFFCURVE",
"48 10 CURVE SMOOTH",
"48 1 OFFCURVE",
"49 -5 OFFCURVE",
"50 -6 CURVE",
"272 4 LINE",
"325 4 OFFCURVE",
"427 2 OFFCURVE",
"576 -2 CURVE SMOOTH",
"725 -6 OFFCURVE",
"835 -8 OFFCURVE",
"904 -8 CURVE",
"920 40 OFFCURVE",
"975 151 OFFCURVE",
"1068 324 CURVE",
"1063 332 OFFCURVE",
"1049 336 OFFCURVE",
"1026 336 CURVE SMOOTH",
"1010 336 OFFCURVE",
"1000 332 OFFCURVE",
"996 324 CURVE SMOOTH",
"945 223 OFFCURVE",
"883 143 OFFCURVE",
"840 122 CURVE SMOOTH",
"795 99 OFFCURVE",
"714 88 OFFCURVE",
"598 88 CURVE SMOOTH",
"508 88 LINE SMOOTH",
"448 88 OFFCURVE",
"412 90 OFFCURVE",
"401 94 CURVE SMOOTH",
"390 98 OFFCURVE",
"384 110 OFFCURVE",
"384 130 CURVE SMOOTH",
"384 151 OFFCURVE",
"391 201 OFFCURVE",
"404 278 CURVE SMOOTH",
"546 1030 LINE SMOOTH"
);
}
);
width = 996;
}
);
note = L;
unicode = 004C;
},
{
glyphname = M;
lastChange = "2021-05-07 10:00:42 +0000";
layers = (
{
layerId = "982A60EF-513A-498E-AE80-A9982858EA0F";
paths = (
{
closed = 1;
nodes = (
"910 325 OFFCURVE",
"908 324 OFFCURVE",
"904 324 CURVE SMOOTH",
"903 324 OFFCURVE",
"902 325 OFFCURVE",
"902 326 CURVE SMOOTH",
"813 877 OFFCURVE",
"762 1207 OFFCURVE",
"750 1316 CURVE",
"699 1313 OFFCURVE",
"636 1312 OFFCURVE",
"560 1312 CURVE SMOOTH",
"533 1312 OFFCURVE",
"471 1313 OFFCURVE",
"372 1316 CURVE",
"364 1311 OFFCURVE",
"360 1297 OFFCURVE",
"360 1276 CURVE SMOOTH",
"360 1267 OFFCURVE",
"361 1262 OFFCURVE",
"364 1262 CURVE SMOOTH",
"393 1262 OFFCURVE",
"500 1237 OFFCURVE",
"500 1208 CURVE SMOOTH",
"500 1160 OFFCURVE",
"484 1108 OFFCURVE",
"474 1056 CURVE",
"256 274 LINE SMOOTH",
"236 201 OFFCURVE",
"214 141 OFFCURVE",
"190 96 CURVE SMOOTH",
"179 75 OFFCURVE",
"68 48 OFFCURVE",
"36 48 CURVE SMOOTH",
"27 48 OFFCURVE",
"22 37 OFFCURVE",
"22 14 CURVE SMOOTH",
"22 3 OFFCURVE",
"23 -3 OFFCURVE",
"26 -6 CURVE",
"169 1 OFFCURVE",
"242 4 OFFCURVE",
"246 4 CURVE SMOOTH",
"261 4 OFFCURVE",
"330 1 OFFCURVE",
"454 -6 CURVE",
"461 7 OFFCURVE",
"464 21 OFFCURVE",
"464 36 CURVE SMOOTH",
"464 44 OFFCURVE",
"463 48 OFFCURVE",
"460 48 CURVE SMOOTH",
"439 48 OFFCURVE",
"324 78 OFFCURVE",
"324 106 CURVE SMOOTH",
"324 126 OFFCURVE",
"337 181 OFFCURVE",
"362 272 CURVE SMOOTH",
"596 1134 LINE",
"596 1137 OFFCURVE",
"598 1138 OFFCURVE",
"602 1138 CURVE SMOOTH",
"603 1138 OFFCURVE",
"605 1137 OFFCURVE",
"606 1134 CURVE",
"776 0 LINE",
"781 -3 OFFCURVE",
"787 -4 OFFCURVE",
"792 -4 CURVE SMOOTH",
"824 -4 OFFCURVE",
"869 38 OFFCURVE",
"882 62 CURVE SMOOTH",
"1404 1126 LINE SMOOTH",
"1407 1131 OFFCURVE",
"1409 1134 OFFCURVE",
"1410 1134 CURVE SMOOTH",
"1418 1134 OFFCURVE",
"1422 1130 OFFCURVE",
"1422 1122 CURVE SMOOTH",
"1422 1110 OFFCURVE",
"1420 1084 OFFCURVE",
"1416 1044 CURVE SMOOTH",
"1336 264 LINE",
"1333 251 OFFCURVE",
"1327 184 OFFCURVE",
"1324 169 CURVE SMOOTH",
"1318 140 OFFCURVE",
"1309 114 OFFCURVE",
"1296 84 CURVE SMOOTH",
"1285 63 OFFCURVE",
"1205 48 OFFCURVE",
"1170 48 CURVE SMOOTH",
"1165 48 OFFCURVE",
"1156 20 OFFCURVE",
"1156 4 CURVE SMOOTH",
"1156 3 OFFCURVE",
"1157 -1 OFFCURVE",
"1160 -6 CURVE",
"1296 1 OFFCURVE",
"1366 4 OFFCURVE",
"1370 4 CURVE SMOOTH",
"1391 4 OFFCURVE",
"1464 1 OFFCURVE",
"1588 -6 CURVE",
"1596 2 OFFCURVE",
"1600 14 OFFCURVE",
"1600 30 CURVE SMOOTH",
"1600 42 OFFCURVE",
"1599 48 OFFCURVE",
"1596 48 CURVE SMOOTH",
"1575 48 OFFCURVE",
"1535 51 OFFCURVE",
"1511 59 CURVE SMOOTH",
"1491 66 OFFCURVE",
"1480 85 OFFCURVE",
"1480 112 CURVE SMOOTH",
"1480 148 OFFCURVE",
"1484 201 OFFCURVE",
"1492 270 CURVE SMOOTH",
"1570 1034 LINE SMOOTH",
"1577 1091 OFFCURVE",
"1583 1131 OFFCURVE",
"1589 1154 CURVE SMOOTH",
"1595 1177 OFFCURVE",
"1604 1196 OFFCURVE",
"1616 1212 CURVE SMOOTH",
"1635 1239 OFFCURVE",
"1679 1260 OFFCURVE",
"1714 1260 CURVE SMOOTH",
"1722 1260 OFFCURVE",
"1729 1305 OFFCURVE",
"1724 1318 CURVE",
"1655 1313 OFFCURVE",
"1597 1310 OFFCURVE",
"1550 1310 CURVE SMOOTH",
"1481 1310 OFFCURVE",
"1428 1312 OFFCURVE",
"1392 1316 CURVE",
"1266 1046 LINE",
"910 328 LINE"
);
}
);
width = 1628;
}
);
note = M;
unicode = 004D;
},
{
glyphname = N;
lastChange = "2021-05-07 10:00:42 +0000";
layers = (
{
layerId = "982A60EF-513A-498E-AE80-A9982858EA0F";
paths = (
{
closed = 1;
nodes = (
"486 1308 OFFCURVE",
"420 1311 OFFCURVE",
"316 1316 CURVE",
"307 1309 OFFCURVE",
"302 1296 OFFCURVE",
"302 1276 CURVE SMOOTH",
"302 1267 OFFCURVE",
"303 1262 OFFCURVE",
"306 1262 CURVE SMOOTH",
"349 1262 OFFCURVE",
"442 1244 OFFCURVE",
"442 1212 CURVE SMOOTH",
"442 1151 OFFCURVE",
"436 1091 OFFCURVE",
"424 1032 CURVE SMOOTH",
"270 288 LINE SMOOTH",
"249 189 OFFCURVE",
"231 125 OFFCURVE",
"216 96 CURVE SMOOTH",
"205 75 OFFCURVE",
"94 48 OFFCURVE",
"62 48 CURVE SMOOTH",
"53 48 OFFCURVE",
"48 35 OFFCURVE",
"48 10 CURVE SMOOTH",
"48 2 OFFCURVE",
"49 -3 OFFCURVE",
"52 -6 CURVE",
"196 1 OFFCURVE",
"269 4 OFFCURVE",
"272 4 CURVE SMOOTH",
"288 4 OFFCURVE",
"357 1 OFFCURVE",
"480 -6 CURVE",
"487 7 OFFCURVE",
"490 22 OFFCURVE",
"490 38 CURVE SMOOTH",
"490 45 OFFCURVE",
"489 48 OFFCURVE",
"486 48 CURVE",
"452 54 LINE SMOOTH",
"409 62 OFFCURVE",
"356 83 OFFCURVE",
"356 104 CURVE SMOOTH",
"356 157 OFFCURVE",
"363 217 OFFCURVE",
"376 282 CURVE SMOOTH",
"554 1162 LINE",
"1046 30 LINE",
"1062 -1 OFFCURVE",
"1079 -16 OFFCURVE",
"1098 -16 CURVE SMOOTH",
"1106 -16 OFFCURVE",
"1113 -13 OFFCURVE",
"1118 -8 CURVE",
"1121 7 OFFCURVE",
"1127 47 OFFCURVE",
"1138 112 CURVE SMOOTH",
"1149 177 OFFCURVE",
"1158 231 OFFCURVE",
"1166 272 CURVE SMOOTH",
"1316 1032 LINE SMOOTH",
"1332 1113 OFFCURVE",
"1349 1175 OFFCURVE",
"1366 1218 CURVE SMOOTH",
"1374 1237 OFFCURVE",
"1495 1262 OFFCURVE",
"1522 1262 CURVE SMOOTH",
"1530 1262 OFFCURVE",
"1534 1280 OFFCURVE",
"1534 1316 CURVE",
"1407 1309 OFFCURVE",
"1335 1306 OFFCURVE",
"1316 1306 CURVE SMOOTH",
"1313 1306 OFFCURVE",
"1243 1309 OFFCURVE",
"1106 1316 CURVE",
"1097 1309 OFFCURVE",
"1092 1296 OFFCURVE",
"1092 1276 CURVE SMOOTH",
"1092 1267 OFFCURVE",
"1093 1262 OFFCURVE",
"1096 1262 CURVE SMOOTH",
"1136 1262 OFFCURVE",
"1236 1242 OFFCURVE",
"1236 1210 CURVE SMOOTH",
"1236 1174 OFFCURVE",
"1227 1113 OFFCURVE",
"1210 1026 CURVE SMOOTH",
"1108 488 LINE SMOOTH",
"1103 460 OFFCURVE",
"1095 433 OFFCURVE",
"1086 406 CURVE",
"923 729 OFFCURVE",
"742 1159 OFFCURVE",
"702 1316 CURVE",
"601 1311 OFFCURVE",
"538 1308 OFFCURVE",
"514 1308 CURVE SMOOTH"
);
}
);
width = 1326;
}
);
note = N;
unicode = 004E;
},
{
glyphname = O;
lastChange = "2021-05-07 10:00:42 +0000";
layers = (
{
layerId = "982A60EF-513A-498E-AE80-A9982858EA0F";
paths = (
{
closed = 1;
nodes = (
"624 1334 OFFCURVE",
"377 1172 OFFCURVE",
"230 917 CURVE SMOOTH",
"157 790 OFFCURVE",
"120 657 OFFCURVE",
"120 518 CURVE SMOOTH",
"120 209 OFFCURVE",
"307 -20 OFFCURVE",
"592 -20 CURVE SMOOTH",
"851 -20 OFFCURVE",
"1100 149 OFFCURVE",
"1237 408 CURVE SMOOTH",
"1306 537 OFFCURVE",
"1340 674 OFFCURVE",
"1340 818 CURVE SMOOTH",
"1340 1103 OFFCURVE",
"1133 1334 OFFCURVE",
"864 1334 CURVE SMOOTH"
);
},
{
closed = 1;
nodes = (
"1034 1250 OFFCURVE",
"1156 1057 OFFCURVE",
"1156 790 CURVE SMOOTH",
"1156 430 OFFCURVE",
"921 66 OFFCURVE",
"644 66 CURVE SMOOTH",
"425 66 OFFCURVE",
"302 262 OFFCURVE",
"302 534 CURVE SMOOTH",
"302 894 OFFCURVE",
"530 1250 OFFCURVE",
"818 1250 CURVE SMOOTH"
);
}
);
width = 1248;
}
);
note = O;
unicode = 004F;
},
{
glyphname = P;
lastChange = "2021-05-07 10:00:42 +0000";
layers = (
{
layerId = "982A60EF-513A-498E-AE80-A9982858EA0F";
paths = (
{
closed = 1;
nodes = (
"754 1316 OFFCURVE",
"711 1315 OFFCURVE",
"660 1313 CURVE SMOOTH",
"609 1311 OFFCURVE",
"565 1310 OFFCURVE",
"528 1310 CURVE SMOOTH",
"447 1310 OFFCURVE",
"377 1312 OFFCURVE",
"320 1316 CURVE",
"311 1309 OFFCURVE",
"306 1296 OFFCURVE",
"306 1276 CURVE SMOOTH",
"306 1267 OFFCURVE",
"307 1262 OFFCURVE",
"310 1262 CURVE SMOOTH",
"347 1262 OFFCURVE",
"416 1244 OFFCURVE",
"416 1212 CURVE SMOOTH",
"416 1176 OFFCURVE",
"413 1141 OFFCURVE",
"406 1108 CURVE SMOOTH",
"242 284 LINE SMOOTH",
"221 183 OFFCURVE",
"203 119 OFFCURVE",
"190 92 CURVE SMOOTH",
"179 71 OFFCURVE",
"91 48 OFFCURVE",
"62 48 CURVE SMOOTH",
"53 48 OFFCURVE",
"48 35 OFFCURVE",
"48 10 CURVE SMOOTH",
"48 2 OFFCURVE",
"49 -3 OFFCURVE",
"52 -6 CURVE",
"212 1 OFFCURVE",
"294 4 OFFCURVE",
"298 4 CURVE SMOOTH",
"310 4 OFFCURVE",
"378 1 OFFCURVE",
"502 -6 CURVE",
"510 2 OFFCURVE",
"514 15 OFFCURVE",
"514 32 CURVE SMOOTH",
"514 43 OFFCURVE",
"513 48 OFFCURVE",
"510 48 CURVE SMOOTH",
"476 52 LINE SMOOTH",
"433 57 OFFCURVE",
"380 77 OFFCURVE",
"380 98 CURVE SMOOTH",
"380 143 OFFCURVE",
"386 196 OFFCURVE",
"398 256 CURVE SMOOTH",
"584 1202 LINE SMOOTH",
"587 1217 OFFCURVE",
"598 1227 OFFCURVE",
"619 1233 CURVE SMOOTH",
"640 1239 OFFCURVE",
"681 1242 OFFCURVE",
"744 1242 CURVE SMOOTH",
"888 1242 OFFCURVE",
"960 1172 OFFCURVE",
"960 1032 CURVE SMOOTH",
"960 797 OFFCURVE",
"775 656 OFFCURVE",
"594 656 CURVE SMOOTH",
"581 656 OFFCURVE",
"565 657 OFFCURVE",
"546 660 CURVE",
"538 652 OFFCURVE",
"534 641 OFFCURVE",
"534 628 CURVE SMOOTH",
"534 624 OFFCURVE",
"535 617 OFFCURVE",
"538 608 CURVE",
"570 596 OFFCURVE",
"617 590 OFFCURVE",
"678 590 CURVE SMOOTH",
"905 590 OFFCURVE",
"1130 779 OFFCURVE",
"1130 1008 CURVE SMOOTH",
"1130 1187 OFFCURVE",
"945 1316 OFFCURVE",
"790 1316 CURVE SMOOTH"
);
}
);
width = 1010;
}
);
note = P;
unicode = 0050;
},
{
glyphname = Q;
lastChange = "2021-05-07 10:00:42 +0000";
layers = (
{
layerId = "982A60EF-513A-498E-AE80-A9982858EA0F";
paths = (
{
closed = 1;
nodes = (
"624 1334 OFFCURVE",
"377 1172 OFFCURVE",
"230 917 CURVE SMOOTH",
"157 790 OFFCURVE",
"120 657 OFFCURVE",
"120 518 CURVE SMOOTH",
"120 249 OFFCURVE",
"265 35 OFFCURVE",
"494 -10 CURVE",
"373 -38 OFFCURVE",
"302 -53 OFFCURVE",
"282 -54 CURVE",
"269 -59 OFFCURVE",
"246 -93 OFFCURVE",
"246 -104 CURVE",
"354 -132 OFFCURVE",
"463 -170 OFFCURVE",
"574 -218 CURVE SMOOTH",
"795 -314 OFFCURVE",
"939 -372 OFFCURVE",
"1112 -372 CURVE SMOOTH",
"1285 -372 OFFCURVE",
"1476 -254 OFFCURVE",
"1524 -190 CURVE",
"1524 -173 OFFCURVE",
"1509 -157 OFFCURVE",
"1478 -142 CURVE",
"1419 -193 OFFCURVE",
"1285 -266 OFFCURVE",
"1186 -266 CURVE SMOOTH",
"1097 -266 OFFCURVE",
"979 -235 OFFCURVE",
"832 -172 CURVE SMOOTH",
"685 -109 OFFCURVE",
"592 -75 OFFCURVE",
"552 -70 CURVE",
"713 -39 OFFCURVE",
"856 21 OFFCURVE",
"980 112 CURVE SMOOTH",
"1196 269 OFFCURVE",
"1340 541 OFFCURVE",
"1340 818 CURVE SMOOTH",
"1340 1103 OFFCURVE",
"1133 1334 OFFCURVE",
"864 1334 CURVE SMOOTH"
);
},
{
closed = 1;
nodes = (
"1034 1250 OFFCURVE",
"1156 1057 OFFCURVE",
"1156 790 CURVE SMOOTH",
"1156 430 OFFCURVE",
"921 66 OFFCURVE",
"644 66 CURVE SMOOTH",
"425 66 OFFCURVE",
"302 262 OFFCURVE",
"302 534 CURVE SMOOTH",
"302 894 OFFCURVE",
"530 1250 OFFCURVE",
"818 1250 CURVE SMOOTH"
);
}
);
width = 1248;
}
);
note = Q;
unicode = 0051;
},
{
glyphname = R;
lastChange = "2021-05-07 10:00:42 +0000";
layers = (
{
layerId = "982A60EF-513A-498E-AE80-A9982858EA0F";
paths = (
{
closed = 1;
nodes = (
"739 1316 OFFCURVE",
"697 1315 OFFCURVE",
"651 1313 CURVE SMOOTH",
"605 1311 OFFCURVE",
"563 1310 OFFCURVE",
"526 1310 CURVE SMOOTH",
"445 1310 OFFCURVE",
"375 1312 OFFCURVE",
"318 1316 CURVE",
"309 1309 OFFCURVE",
"304 1296 OFFCURVE",
"304 1276 CURVE SMOOTH",
"304 1267 OFFCURVE",
"305 1262 OFFCURVE",
"308 1262 CURVE SMOOTH",
"343 1262 OFFCURVE",
"414 1244 OFFCURVE",
"414 1212 CURVE SMOOTH",
"414 1180 OFFCURVE",
"411 1147 OFFCURVE",
"404 1112 CURVE SMOOTH",
"240 284 LINE SMOOTH",
"220 192 OFFCURVE",
"203 128 OFFCURVE",
"188 92 CURVE SMOOTH",
"177 68 OFFCURVE",
"92 48 OFFCURVE",
"60 48 CURVE SMOOTH",
"51 48 OFFCURVE",
"46 35 OFFCURVE",
"46 10 CURVE SMOOTH",
"46 2 OFFCURVE",
"47 -3 OFFCURVE",
"50 -6 CURVE",
"193 1 OFFCURVE",
"266 4 OFFCURVE",
"270 4 CURVE SMOOTH",
"285 4 OFFCURVE",
"354 1 OFFCURVE",
"478 -6 CURVE",
"486 10 OFFCURVE",
"490 25 OFFCURVE",
"490 40 CURVE SMOOTH",
"490 45 OFFCURVE",
"489 48 OFFCURVE",
"486 48 CURVE SMOOTH",
"458 52 LINE SMOOTH",
"423 57 OFFCURVE",
"378 77 OFFCURVE",
"378 98 CURVE SMOOTH",
"378 145 OFFCURVE",
"385 205 OFFCURVE",
"400 278 CURVE SMOOTH",
"458 588 LINE SMOOTH",
"461 604 OFFCURVE",
"468 614 OFFCURVE",
"480 617 CURVE SMOOTH",
"492 620 OFFCURVE",
"519 622 OFFCURVE",
"562 622 CURVE SMOOTH",
"614 622 OFFCURVE",
"643 613 OFFCURVE",
"650 594 CURVE SMOOTH",
"723 366 OFFCURVE",
"789 209 OFFCURVE",
"846 122 CURVE SMOOTH",
"903 35 OFFCURVE",
"976 -8 OFFCURVE",
"1064 -8 CURVE SMOOTH",
"1108 -8 OFFCURVE",
"1147 -5 OFFCURVE",
"1180 2 CURVE",
"1188 14 OFFCURVE",
"1187 33 OFFCURVE",
"1178 58 CURVE",
"1171 58 OFFCURVE",
"1137 58 OFFCURVE",
"1125 59 CURVE SMOOTH",
"1116 60 OFFCURVE",
"1110 61 OFFCURVE",
"1106 63 CURVE SMOOTH",
"1102 65 OFFCURVE",
"1096 67 OFFCURVE",
"1088 70 CURVE SMOOTH",
"1060 79 OFFCURVE",
"1029 111 OFFCURVE",
"1006 148 CURVE SMOOTH",
"945 241 OFFCURVE",
"853 454 OFFCURVE",
"802 630 CURVE",
"797 642 OFFCURVE",
"800 650 OFFCURVE",
"812 654 CURVE",
"849 673 OFFCURVE",
"892 694 OFFCURVE",
"957 743 CURVE SMOOTH",
"990 768 OFFCURVE",
"1018 794 OFFCURVE",
"1043 821 CURVE SMOOTH",
"1092 876 OFFCURVE",
"1134 961 OFFCURVE",
"1134 1044 CURVE SMOOTH",
"1134 1145 OFFCURVE",
"1081 1222 OFFCURVE",
"1005 1261 CURVE SMOOTH",
"929 1300 OFFCURVE",
"851 1316 OFFCURVE",
"776 1316 CURVE SMOOTH"
);
},
{
closed = 1;
nodes = (
"891 1242 OFFCURVE",
"964 1179 OFFCURVE",
"964 1054 CURVE SMOOTH",
"964 902 OFFCURVE",
"870 786 OFFCURVE",
"758 739 CURVE SMOOTH",
"702 716 OFFCURVE",
"643 704 OFFCURVE",
"582 704 CURVE SMOOTH",
"519 704 OFFCURVE",
"488 714 OFFCURVE",
"488 734 CURVE SMOOTH",
"488 738 LINE",
"584 1204 LINE SMOOTH",
"587 1221 OFFCURVE",
"597 1232 OFFCURVE",
"615 1236 CURVE SMOOTH",
"633 1240 OFFCURVE",
"676 1242 OFFCURVE",
"744 1242 CURVE SMOOTH"
);
}
);
width = 1186;
}
);
note = R;
unicode = 0052;
},
{
glyphname = S;
lastChange = "2021-05-07 10:00:42 +0000";
layers = (
{
layerId = "982A60EF-513A-498E-AE80-A9982858EA0F";
paths = (
{
closed = 1;
nodes = (
"710 173 OFFCURVE",
"575 70 OFFCURVE",
"434 70 CURVE SMOOTH",
"330 70 OFFCURVE",
"254 112 OFFCURVE",
"221 176 CURVE SMOOTH",
"188 240 OFFCURVE",
"178 294 OFFCURVE",
"178 350 CURVE",
"165 361 OFFCURVE",
"152 366 OFFCURVE",
"140 366 CURVE SMOOTH",
"115 366 OFFCURVE",
"102 361 OFFCURVE",
"102 352 CURVE SMOOTH",
"102 322 OFFCURVE",
"106 257 OFFCURVE",
"106 198 CURVE SMOOTH",
"106 175 OFFCURVE",
"103 121 OFFCURVE",
"98 36 CURVE",
"238 4 OFFCURVE",
"344 -12 OFFCURVE",
"416 -12 CURVE SMOOTH",
"563 -12 OFFCURVE",
"691 49 OFFCURVE",
"766 133 CURVE SMOOTH",
"841 217 OFFCURVE",
"882 315 OFFCURVE",
"882 398 CURVE SMOOTH",
"882 491 OFFCURVE",
"816 583 OFFCURVE",
"761 628 CURVE SMOOTH",
"686 690 OFFCURVE",
"572 761 OFFCURVE",
"498 820 CURVE SMOOTH",
"433 872 OFFCURVE",
"400 933 OFFCURVE",
"400 1004 CURVE SMOOTH",
"400 1143 OFFCURVE",
"502 1246 OFFCURVE",
"654 1246 CURVE SMOOTH",
"761 1246 OFFCURVE",
"856 1145 OFFCURVE",
"856 1020 CURVE SMOOTH",
"856 1005 OFFCURVE",
"857 997 OFFCURVE",
"860 996 CURVE",
"871 988 OFFCURVE",
"886 984 OFFCURVE",
"906 984 CURVE SMOOTH",
"910 984 OFFCURVE",
"913 987 OFFCURVE",
"915 994 CURVE SMOOTH",
"917 1001 OFFCURVE",
"920 1023 OFFCURVE",
"924 1062 CURVE SMOOTH",
"932 1137 OFFCURVE",
"941 1211 OFFCURVE",
"950 1284 CURVE",
"922 1287 OFFCURVE",
"881 1295 OFFCURVE",
"826 1310 CURVE SMOOTH",
"771 1325 OFFCURVE",
"727 1332 OFFCURVE",
"692 1332 CURVE SMOOTH",
"444 1332 OFFCURVE",
"244 1156 OFFCURVE",
"244 916 CURVE SMOOTH",
"244 817 OFFCURVE",
"317 726 OFFCURVE",
"409 661 CURVE SMOOTH",
"455 628 OFFCURVE",
"501 596 OFFCURVE",
"546 565 CURVE SMOOTH",
"637 502 OFFCURVE",
"710 424 OFFCURVE",
"710 344 CURVE SMOOTH"
);
}
);
width = 870;
}
);
note = S;
unicode = 0053;
},
{
glyphname = T;
lastChange = "2021-05-07 10:00:42 +0000";
layers = (
{
layerId = "982A60EF-513A-498E-AE80-A9982858EA0F";
paths = (
{
closed = 1;
nodes = (
"555 201 OFFCURVE",
"538 137 OFFCURVE",
"518 92 CURVE SMOOTH",
"507 68 OFFCURVE",
"422 48 OFFCURVE",
"390 48 CURVE SMOOTH",
"381 48 OFFCURVE",
"376 35 OFFCURVE",
"376 10 CURVE SMOOTH",
"376 2 OFFCURVE",
"377 -3 OFFCURVE",
"380 -6 CURVE",
"524 1 OFFCURVE",
"597 4 OFFCURVE",
"600 4 CURVE SMOOTH",
"616 4 OFFCURVE",
"685 1 OFFCURVE",
"808 -6 CURVE",
"816 10 OFFCURVE",
"820 25 OFFCURVE",
"820 40 CURVE SMOOTH",
"820 45 OFFCURVE",
"819 48 OFFCURVE",
"816 48 CURVE SMOOTH",
"788 52 LINE SMOOTH",
"753 57 OFFCURVE",
"708 77 OFFCURVE",
"708 98 CURVE SMOOTH",
"708 145 OFFCURVE",
"715 205 OFFCURVE",
"730 278 CURVE SMOOTH",
"870 1000 LINE SMOOTH",
"889 1093 OFFCURVE",
"907 1160 OFFCURVE",
"926 1200 CURVE SMOOTH",
"935 1220 OFFCURVE",
"1006 1230 OFFCURVE",
"1138 1230 CURVE SMOOTH",
"1263 1230 OFFCURVE",
"1310 1196 OFFCURVE",
"1310 1052 CURVE SMOOTH",
"1310 1045 OFFCURVE",
"1316 1042 OFFCURVE",
"1328 1042 CURVE SMOOTH",
"1347 1042 OFFCURVE",
"1362 1047 OFFCURVE",
"1374 1056 CURVE",
"1394 1342 LINE",
"1335 1327 OFFCURVE",
"1291 1320 OFFCURVE",
"1262 1320 CURVE SMOOTH",
"1144 1320 OFFCURVE",
"968 1308 OFFCURVE",
"850 1308 CURVE SMOOTH",
"735 1308 OFFCURVE",
"561 1320 OFFCURVE",
"446 1320 CURVE SMOOTH",
"413 1320 OFFCURVE",
"371 1327 OFFCURVE",
"320 1342 CURVE",
"232 1056 LINE",
"241 1047 OFFCURVE",
"255 1042 OFFCURVE",
"272 1042 CURVE SMOOTH",
"283 1042 OFFCURVE",
"289 1045 OFFCURVE",
"292 1052 CURVE SMOOTH",
"359 1201 OFFCURVE",
"395 1230 OFFCURVE",
"536 1230 CURVE SMOOTH",
"629 1230 OFFCURVE",
"720 1221 OFFCURVE",
"729 1209 CURVE SMOOTH",
"732 1204 OFFCURVE",
"734 1197 OFFCURVE",
"734 1188 CURVE SMOOTH",
"734 1151 OFFCURVE",
"725 1086 OFFCURVE",
"708 994 CURVE SMOOTH",
"570 284 LINE SMOOTH"
);
}
);
width = 1202;
}
);
note = T;
unicode = 0054;
},
{
glyphname = U;
lastChange = "2021-05-07 10:00:42 +0000";
layers = (
{
layerId = "982A60EF-513A-498E-AE80-A9982858EA0F";
paths = (
{
closed = 1;
nodes = (
"249 532 OFFCURVE",
"240 461 OFFCURVE",
"240 412 CURVE SMOOTH",
"240 145 OFFCURVE",
"376 0 OFFCURVE",
"608 0 CURVE SMOOTH",
"933 0 OFFCURVE",
"1091 128 OFFCURVE",
"1174 552 CURVE SMOOTH",
"1264 1020 LINE SMOOTH",
"1289 1137 OFFCURVE",
"1307 1203 OFFCURVE",
"1318 1216 CURVE SMOOTH",
"1331 1235 OFFCURVE",
"1447 1262 OFFCURVE",
"1468 1262 CURVE SMOOTH",
"1477 1262 OFFCURVE",
"1482 1280 OFFCURVE",
"1482 1316 CURVE",
"1447 1313 OFFCURVE",
"1388 1309 OFFCURVE",
"1341 1306 CURVE SMOOTH",
"1318 1305 OFFCURVE",
"1293 1304 OFFCURVE",
"1268 1304 CURVE SMOOTH",
"1204 1304 OFFCURVE",
"1084 1313 OFFCURVE",
"1052 1316 CURVE",
"1043 1309 OFFCURVE",
"1038 1295 OFFCURVE",
"1038 1274 CURVE SMOOTH",
"1038 1266 OFFCURVE",
"1039 1262 OFFCURVE",
"1042 1262 CURVE SMOOTH",
"1087 1262 OFFCURVE",
"1192 1236 OFFCURVE",
"1192 1204 CURVE SMOOTH",
"1192 1177 OFFCURVE",
"1184 1117 OFFCURVE",
"1168 1024 CURVE SMOOTH",
"1080 548 LINE SMOOTH",
"1024 248 OFFCURVE",
"887 98 OFFCURVE",
"670 98 CURVE SMOOTH",
"497 98 OFFCURVE",
"408 221 OFFCURVE",
"408 426 CURVE SMOOTH",
"408 481 OFFCURVE",
"413 537 OFFCURVE",
"424 596 CURVE SMOOTH",
"506 1030 LINE SMOOTH",
"523 1117 OFFCURVE",
"541 1179 OFFCURVE",
"558 1216 CURVE SMOOTH",
"566 1235 OFFCURVE",
"661 1262 OFFCURVE",
"682 1262 CURVE SMOOTH",
"691 1262 OFFCURVE",
"696 1278 OFFCURVE",
"696 1310 CURVE SMOOTH",
"696 1316 LINE",
"687 1316 OFFCURVE",
"657 1314 OFFCURVE",
"607 1310 CURVE SMOOTH",
"557 1306 OFFCURVE",
"516 1304 OFFCURVE",
"484 1304 CURVE SMOOTH",
"417 1304 OFFCURVE",
"300 1313 OFFCURVE",
"268 1316 CURVE",
"257 1305 OFFCURVE",
"252 1291 OFFCURVE",
"252 1272 CURVE SMOOTH",
"252 1265 OFFCURVE",
"253 1262 OFFCURVE",
"256 1262 CURVE SMOOTH",
"291 1262 OFFCURVE",
"368 1237 OFFCURVE",
"368 1208 CURVE SMOOTH",
"368 1161 OFFCURVE",
"361 1100 OFFCURVE",
"346 1024 CURVE SMOOTH",
"268 624 LINE SMOOTH"
);
}
);
width = 1262;
}
);
note = U;
unicode = 0055;
},
{
glyphname = V;
lastChange = "2021-05-07 10:00:42 +0000";
layers = (
{
layerId = "982A60EF-513A-498E-AE80-A9982858EA0F";
paths = (
{
closed = 1;
nodes = (
"433 1308 OFFCURVE",
"363 1311 OFFCURVE",
"254 1316 CURVE",
"245 1309 OFFCURVE",
"240 1295 OFFCURVE",
"240 1272 CURVE SMOOTH",
"240 1265 OFFCURVE",
"241 1262 OFFCURVE",
"244 1262 CURVE SMOOTH",
"273 1262 OFFCURVE",
"333 1241 OFFCURVE",
"346 1212 CURVE SMOOTH",
"358 1184 OFFCURVE",
"368 1147 OFFCURVE",
"376 1102 CURVE SMOOTH",
"574 -16 LINE",
"579 -24 OFFCURVE",
"585 -28 OFFCURVE",
"592 -28 CURVE SMOOTH",
"617 -28 OFFCURVE",
"643 -6 OFFCURVE",
"668 38 CURVE SMOOTH",
"1320 1158 LINE SMOOTH",
"1360 1227 OFFCURVE",
"1433 1262 OFFCURVE",
"1484 1262 CURVE SMOOTH",
"1492 1262 OFFCURVE",
"1497 1276 OFFCURVE",
"1500 1304 CURVE",
"1500 1316 LINE",
"1399 1311 OFFCURVE",
"1333 1308 OFFCURVE",
"1302 1308 CURVE SMOOTH",
"1274 1308 OFFCURVE",
"1212 1311 OFFCURVE",
"1116 1316 CURVE",
"1107 1309 OFFCURVE",
"1102 1295 OFFCURVE",
"1102 1272 CURVE SMOOTH",
"1102 1265 OFFCURVE",
"1103 1262 OFFCURVE",
"1106 1262 CURVE SMOOTH",
"1159 1262 OFFCURVE",
"1214 1239 OFFCURVE",
"1214 1204 CURVE SMOOTH",
"1214 1168 OFFCURVE",
"1206 1136 OFFCURVE",
"1190 1108 CURVE SMOOTH",
"710 286 LINE",
"556 1124 LINE SMOOTH",
"551 1149 OFFCURVE",
"548 1171 OFFCURVE",
"548 1188 CURVE SMOOTH",
"548 1241 OFFCURVE",
"575 1262 OFFCURVE",
"668 1262 CURVE SMOOTH",
"677 1262 OFFCURVE",
"682 1278 OFFCURVE",
"682 1310 CURVE SMOOTH",
"682 1316 LINE",
"581 1311 OFFCURVE",
"508 1308 OFFCURVE",
"464 1308 CURVE SMOOTH"
);
}
);
width = 1280;
}
);
note = V;
unicode = 0056;
},
{
glyphname = W;
lastChange = "2021-05-07 10:00:42 +0000";
layers = (
{
layerId = "982A60EF-513A-498E-AE80-A9982858EA0F";
paths = (
{
closed = 1;
nodes = (
"404 1304 OFFCURVE",
"368 1306 OFFCURVE",
"329 1309 CURVE SMOOTH",
"290 1312 OFFCURVE",
"260 1315 OFFCURVE",
"240 1316 CURVE",
"231 1309 OFFCURVE",
"226 1295 OFFCURVE",
"226 1272 CURVE SMOOTH",
"226 1265 OFFCURVE",
"227 1262 OFFCURVE",
"230 1262 CURVE SMOOTH",
"257 1262 OFFCURVE",
"313 1239 OFFCURVE",
"326 1212 CURVE SMOOTH",
"350 1164 OFFCURVE",
"373 1100 OFFCURVE",
"396 1020 CURVE SMOOTH",
"680 -16 LINE",
"684 -23 OFFCURVE",
"689 -26 OFFCURVE",
"696 -26 CURVE SMOOTH",
"724 -26 OFFCURVE",
"752 -5 OFFCURVE",
"780 38 CURVE SMOOTH",
"1072 490 LINE",
"1212 -16 LINE",
"1215 -23 OFFCURVE",
"1220 -26 OFFCURVE",
"1228 -26 CURVE SMOOTH",
"1260 -26 OFFCURVE",
"1289 -5 OFFCURVE",
"1314 38 CURVE SMOOTH",
"1876 996 LINE SMOOTH",
"1925 1079 OFFCURVE",
"1972 1145 OFFCURVE",
"2016 1196 CURVE SMOOTH",
"2037 1220 OFFCURVE",
"2119 1262 OFFCURVE",
"2162 1262 CURVE SMOOTH",
"2171 1262 OFFCURVE",
"2176 1280 OFFCURVE",
"2176 1316 CURVE",
"2164 1316 OFFCURVE",
"2137 1314 OFFCURVE",
"2095 1310 CURVE SMOOTH",
"2053 1306 OFFCURVE",
"2013 1304 OFFCURVE",
"1976 1304 CURVE SMOOTH",
"1965 1304 OFFCURVE",
"1902 1308 OFFCURVE",
"1786 1316 CURVE",
"1777 1309 OFFCURVE",
"1772 1295 OFFCURVE",
"1772 1272 CURVE SMOOTH",
"1772 1265 OFFCURVE",
"1773 1262 OFFCURVE",
"1776 1262 CURVE SMOOTH",
"1805 1262 OFFCURVE",
"1868 1237 OFFCURVE",
"1868 1186 CURVE SMOOTH",
"1868 1166 OFFCURVE",
"1851 1127 OFFCURVE",
"1818 1068 CURVE SMOOTH",
"1332 212 LINE",
"1196 688 LINE",
"1396 996 LINE SMOOTH",
"1464 1101 OFFCURVE",
"1511 1168 OFFCURVE",
"1536 1196 CURVE SMOOTH",
"1557 1220 OFFCURVE",
"1639 1262 OFFCURVE",
"1682 1262 CURVE SMOOTH",
"1691 1262 OFFCURVE",
"1696 1280 OFFCURVE",
"1696 1316 CURVE",
"1684 1316 OFFCURVE",
"1657 1314 OFFCURVE",
"1615 1310 CURVE SMOOTH",
"1573 1306 OFFCURVE",
"1533 1304 OFFCURVE",
"1496 1304 CURVE SMOOTH",
"1485 1304 OFFCURVE",
"1422 1308 OFFCURVE",
"1306 1316 CURVE",
"1297 1309 OFFCURVE",
"1292 1295 OFFCURVE",
"1292 1272 CURVE SMOOTH",
"1292 1265 OFFCURVE",
"1293 1262 OFFCURVE",
"1296 1262 CURVE SMOOTH",
"1325 1262 OFFCURVE",
"1388 1237 OFFCURVE",
"1388 1186 CURVE SMOOTH",
"1388 1162 OFFCURVE",
"1371 1123 OFFCURVE",
"1338 1068 CURVE SMOOTH",
"1168 792 LINE",
"1078 1114 LINE SMOOTH",
"1070 1146 OFFCURVE",
"1066 1171 OFFCURVE",
"1066 1188 CURVE SMOOTH",
"1066 1228 OFFCURVE",
"1104 1262 OFFCURVE",
"1168 1262 CURVE SMOOTH",
"1176 1262 OFFCURVE",
"1184 1291 OFFCURVE",
"1184 1310 CURVE SMOOTH",
"1184 1316 LINE",
"1157 1313 OFFCURVE",
"1048 1304 OFFCURVE",
"984 1304 CURVE SMOOTH",
"917 1304 OFFCURVE",
"807 1313 OFFCURVE",
"772 1316 CURVE",
"761 1308 OFFCURVE",
"756 1293 OFFCURVE",
"756 1272 CURVE SMOOTH",
"756 1265 OFFCURVE",
"757 1262 OFFCURVE",
"760 1262 CURVE SMOOTH",
"787 1262 OFFCURVE",
"842 1239 OFFCURVE",
"858 1212 CURVE SMOOTH",
"873 1188 OFFCURVE",
"885 1157 OFFCURVE",
"896 1120 CURVE SMOOTH",
"1044 590 LINE",
"802 224 LINE",
"548 1114 LINE SMOOTH",
"539 1151 OFFCURVE",
"534 1176 OFFCURVE",
"534 1188 CURVE SMOOTH",
"534 1228 OFFCURVE",
"574 1262 OFFCURVE",
"638 1262 CURVE SMOOTH",
"647 1262 OFFCURVE",
"652 1278 OFFCURVE",
"652 1310 CURVE SMOOTH",
"652 1316 LINE",
"617 1313 OFFCURVE",
"556 1309 OFFCURVE",
"508 1306 CURVE SMOOTH",
"484 1305 OFFCURVE",
"460 1304 OFFCURVE",
"436 1304 CURVE SMOOTH"
);
}
);
width = 1946;
}
);
note = W;
unicode = 0057;
},
{
glyphname = X;
lastChange = "2021-05-07 10:00:42 +0000";
layers = (
{
layerId = "982A60EF-513A-498E-AE80-A9982858EA0F";
paths = (
{
closed = 1;
nodes = (
"506 1304 OFFCURVE",
"376 1313 OFFCURVE",
"344 1316 CURVE",
"335 1309 OFFCURVE",
"330 1295 OFFCURVE",
"330 1272 CURVE SMOOTH",
"330 1265 OFFCURVE",
"331 1262 OFFCURVE",
"334 1262 CURVE SMOOTH",
"358 1262 OFFCURVE",
"422 1239 OFFCURVE",
"446 1218 CURVE SMOOTH",
"497 1175 OFFCURVE",
"508 1155 OFFCURVE",
"556 1040 CURVE SMOOTH",
"712 672 LINE",
"712 668 OFFCURVE",
"545 480 OFFCURVE",
"210 108 CURVE SMOOTH",
"181 76 OFFCURVE",
"109 55 OFFCURVE",
"73 51 CURVE SMOOTH",
"55 49 OFFCURVE",
"41 48 OFFCURVE",
"30 48 CURVE SMOOTH",
"23 48 OFFCURVE",
"20 33 OFFCURVE",
"20 2 CURVE SMOOTH",
"20 -2 OFFCURVE",
"21 -5 OFFCURVE",
"22 -6 CURVE",
"47 -5 OFFCURVE",
"125 -4 OFFCURVE",
"254 -4 CURVE SMOOTH",
"369 -4 OFFCURVE",
"437 -5 OFFCURVE",
"460 -6 CURVE",
"467 1 OFFCURVE",
"470 13 OFFCURVE",
"470 30 CURVE SMOOTH",
"470 42 OFFCURVE",
"467 48 OFFCURVE",
"462 48 CURVE SMOOTH",
"389 48 OFFCURVE",
"352 68 OFFCURVE",
"352 108 CURVE SMOOTH",
"352 134 OFFCURVE",
"562 374 OFFCURVE",
"648 471 CURVE SMOOTH",
"713 545 OFFCURVE",
"747 582 OFFCURVE",
"748 582 CURVE SMOOTH",
"749 582 OFFCURVE",
"811 437 OFFCURVE",
"932 148 CURVE SMOOTH",
"935 141 OFFCURVE",
"936 129 OFFCURVE",
"936 112 CURVE SMOOTH",
"936 75 OFFCURVE",
"858 48 OFFCURVE",
"826 48 CURVE SMOOTH",
"817 48 OFFCURVE",
"812 35 OFFCURVE",
"812 10 CURVE SMOOTH",
"812 2 OFFCURVE",
"813 -3 OFFCURVE",
"816 -6 CURVE",
"992 1 OFFCURVE",
"1081 4 OFFCURVE",
"1084 4 CURVE SMOOTH",
"1108 4 OFFCURVE",
"1182 1 OFFCURVE",
"1306 -6 CURVE",
"1310 2 OFFCURVE",
"1312 17 OFFCURVE",
"1312 38 CURVE SMOOTH",
"1312 45 OFFCURVE",
"1311 48 OFFCURVE",
"1308 48 CURVE SMOOTH",
"1268 48 OFFCURVE",
"1165 74 OFFCURVE",
"1128 138 CURVE SMOOTH",
"1107 175 OFFCURVE",
"1006 409 OFFCURVE",
"934 580 CURVE SMOOTH",
"898 665 OFFCURVE",
"880 709 OFFCURVE",
"880 710 CURVE SMOOTH",
"880 713 OFFCURVE",
"1026 876 OFFCURVE",
"1318 1200 CURVE SMOOTH",
"1350 1235 OFFCURVE",
"1478 1262 OFFCURVE",
"1510 1262 CURVE SMOOTH",
"1519 1262 OFFCURVE",
"1524 1278 OFFCURVE",
"1524 1310 CURVE SMOOTH",
"1524 1316 LINE",
"1489 1313 OFFCURVE",
"1430 1309 OFFCURVE",
"1381 1306 CURVE SMOOTH",
"1356 1305 OFFCURVE",
"1330 1304 OFFCURVE",
"1302 1304 CURVE SMOOTH",
"1290 1304 OFFCURVE",
"1216 1308 OFFCURVE",
"1080 1316 CURVE",
"1071 1309 OFFCURVE",
"1066 1295 OFFCURVE",
"1066 1272 CURVE SMOOTH",
"1066 1265 OFFCURVE",
"1067 1262 OFFCURVE",
"1070 1262 CURVE SMOOTH",
"1123 1262 OFFCURVE",
"1186 1235 OFFCURVE",
"1186 1200 CURVE SMOOTH",
"1186 1171 OFFCURVE",
"1044 1008 OFFCURVE",
"932 888 CURVE SMOOTH",
"876 828 OFFCURVE",
"847 798 OFFCURVE",
"844 798 CURVE SMOOTH",
"843 798 OFFCURVE",
"793 910 OFFCURVE",
"694 1134 CURVE SMOOTH",
"687 1151 OFFCURVE",
"684 1167 OFFCURVE",
"684 1182 CURVE SMOOTH",
"684 1236 OFFCURVE",
"776 1262 OFFCURVE",
"812 1262 CURVE SMOOTH",
"820 1262 OFFCURVE",
"824 1277 OFFCURVE",
"824 1308 CURVE SMOOTH",
"824 1316 LINE",
"672 1308 OFFCURVE",
"590 1304 OFFCURVE",
"578 1304 CURVE SMOOTH"
);
}
);
width = 1312;
}
);
note = X;
unicode = 0058;
},
{
glyphname = Y;
lastChange = "2021-05-07 10:00:42 +0000";
layers = (
{
layerId = "982A60EF-513A-498E-AE80-A9982858EA0F";
paths = (
{
closed = 1;
nodes = (
"416 1304 OFFCURVE",
"286 1313 OFFCURVE",
"254 1316 CURVE",
"245 1309 OFFCURVE",
"240 1295 OFFCURVE",
"240 1272 CURVE SMOOTH",
"240 1265 OFFCURVE",
"241 1262 OFFCURVE",
"244 1262 CURVE SMOOTH",
"265 1262 OFFCURVE",
"329 1237 OFFCURVE",
"356 1218 CURVE SMOOTH",
"388 1194 OFFCURVE",
"414 1151 OFFCURVE",
"434 1090 CURVE SMOOTH",
"476 960 LINE SMOOTH",
"505 873 OFFCURVE",
"534 786 OFFCURVE",
"562 697 CURVE SMOOTH",
"590 608 OFFCURVE",
"603 561 OFFCURVE",
"602 556 CURVE SMOOTH",
"550 272 LINE SMOOTH",
"533 180 OFFCURVE",
"516 120 OFFCURVE",
"500 92 CURVE SMOOTH",
"487 71 OFFCURVE",
"401 48 OFFCURVE",
"372 48 CURVE SMOOTH",
"363 48 OFFCURVE",
"358 35 OFFCURVE",
"358 8 CURVE SMOOTH",
"358 0 OFFCURVE",
"359 -5 OFFCURVE",
"360 -6 CURVE",
"504 1 OFFCURVE",
"578 4 OFFCURVE",
"582 4 CURVE SMOOTH",
"597 4 OFFCURVE",
"666 1 OFFCURVE",
"790 -6 CURVE",
"798 10 OFFCURVE",
"802 25 OFFCURVE",
"802 40 CURVE SMOOTH",
"802 45 OFFCURVE",
"801 48 OFFCURVE",
"798 48 CURVE SMOOTH",
"772 52 LINE SMOOTH",
"735 57 OFFCURVE",
"690 77 OFFCURVE",
"690 98 CURVE SMOOTH",
"690 145 OFFCURVE",
"697 205 OFFCURVE",
"712 278 CURVE SMOOTH",
"768 570 LINE SMOOTH",
"773 597 OFFCURVE",
"1198 1168 OFFCURVE",
"1230 1200 CURVE SMOOTH",
"1262 1232 OFFCURVE",
"1365 1262 OFFCURVE",
"1392 1262 CURVE SMOOTH",
"1401 1262 OFFCURVE",
"1406 1277 OFFCURVE",
"1406 1306 CURVE SMOOTH",
"1406 1310 OFFCURVE",
"1405 1313 OFFCURVE",
"1404 1316 CURVE",
"1252 1308 OFFCURVE",
"1173 1304 OFFCURVE",
"1166 1304 CURVE SMOOTH",
"1139 1304 OFFCURVE",
"1105 1306 OFFCURVE",
"1062 1310 CURVE SMOOTH",
"1019 1314 OFFCURVE",
"993 1316 OFFCURVE",
"982 1316 CURVE",
"973 1309 OFFCURVE",
"968 1295 OFFCURVE",
"968 1274 CURVE SMOOTH",
"968 1266 OFFCURVE",
"969 1262 OFFCURVE",
"972 1262 CURVE SMOOTH",
"1025 1262 OFFCURVE",
"1093 1235 OFFCURVE",
"1096 1200 CURVE SMOOTH",
"1096 1186 OFFCURVE",
"1055 1124 OFFCURVE",
"1012 1066 CURVE SMOOTH",
"983 1026 OFFCURVE",
"956 990 OFFCURVE",
"933 959 CURVE SMOOTH",
"910 928 OFFCURVE",
"876 884 OFFCURVE",
"833 828 CURVE SMOOTH",
"790 772 OFFCURVE",
"759 733 OFFCURVE",
"742 710 CURVE",
"604 1134 LINE SMOOTH",
"599 1150 OFFCURVE",
"596 1165 OFFCURVE",
"596 1178 CURVE SMOOTH",
"596 1234 OFFCURVE",
"682 1262 OFFCURVE",
"722 1262 CURVE SMOOTH",
"731 1262 OFFCURVE",
"736 1277 OFFCURVE",
"736 1306 CURVE SMOOTH",
"736 1316 LINE",
"584 1308 OFFCURVE",
"501 1304 OFFCURVE",
"488 1304 CURVE SMOOTH"
);
}
);
width = 1186;
}
);
note = Y;
unicode = 0059;
},
{
glyphname = Z;
lastChange = "2021-05-07 10:00:42 +0000";
layers = (
{
layerId = "982A60EF-513A-498E-AE80-A9982858EA0F";
paths = (
{
closed = 1;
nodes = (
"603 1312 OFFCURVE",
"376 1322 OFFCURVE",
"352 1330 CURVE",
"295 1142 OFFCURVE",
"257 1025 OFFCURVE",
"240 978 CURVE",
"252 966 OFFCURVE",
"270 960 OFFCURVE",
"294 960 CURVE SMOOTH",
"303 960 OFFCURVE",
"310 963 OFFCURVE",
"314 968 CURVE",
"399 1155 OFFCURVE",
"447 1211 OFFCURVE",
"618 1214 CURVE SMOOTH",
"626 1214 OFFCURVE",
"662 1214 OFFCURVE",
"700 1215 CURVE SMOOTH",
"724 1216 OFFCURVE",
"749 1216 OFFCURVE",
"776 1216 CURVE SMOOTH",
"803 1216 OFFCURVE",
"830 1216 OFFCURVE",
"859 1216 CURVE SMOOTH",
"934 1216 LINE",
"1020 1216 LINE",
"88 86 LINE SMOOTH",
"77 73 OFFCURVE",
"72 55 OFFCURVE",
"72 34 CURVE SMOOTH",
"72 21 OFFCURVE",
"75 9 OFFCURVE",
"80 0 CURVE",
"1002 0 LINE",
"1031 91 OFFCURVE",
"1069 193 OFFCURVE",
"1116 308 CURVE",
"1111 316 OFFCURVE",
"1101 320 OFFCURVE",
"1088 320 CURVE SMOOTH",
"1056 320 OFFCURVE",
"1038 315 OFFCURVE",
"1034 304 CURVE",
"1034 300 OFFCURVE",
"1007 244 OFFCURVE",
"996 225 CURVE SMOOTH",
"988 211 OFFCURVE",
"981 201 OFFCURVE",
"974 194 CURVE SMOOTH",
"967 187 OFFCURVE",
"959 178 OFFCURVE",
"948 166 CURVE SMOOTH",
"911 124 OFFCURVE",
"830 102 OFFCURVE",
"762 102 CURVE SMOOTH",
"342 102 LINE SMOOTH",
"329 102 OFFCURVE",
"322 107 OFFCURVE",
"322 118 CURVE SMOOTH",
"322 129 OFFCURVE",
"327 140 OFFCURVE",
"338 152 CURVE SMOOTH",
"564 428 LINE SMOOTH",
"716 611 OFFCURVE",
"868 795 OFFCURVE",
"1020 980 CURVE SMOOTH",
"1172 1165 OFFCURVE",
"1249 1261 OFFCURVE",
"1250 1266 CURVE SMOOTH",
"1253 1274 OFFCURVE",
"1249 1329 OFFCURVE",
"1244 1332 CURVE",
"1178 1327 OFFCURVE",
"1094 1319 OFFCURVE",
"1052 1316 CURVE SMOOTH",
"1017 1313 OFFCURVE",
"953 1310 OFFCURVE",
"862 1310 CURVE SMOOTH",
"779 1310 OFFCURVE",
"707 1311 OFFCURVE",
"646 1312 CURVE SMOOTH"
);
}
);
width = 1092;
}
);
note = Z;
unicode = 005A;
},
{
glyphname = a;
lastChange = "2021-05-07 10:00:42 +0000";
layers = (
{
layerId = "982A60EF-513A-498E-AE80-A9982858EA0F";
paths = (
{
closed = 1;
nodes = (
"523 870 OFFCURVE",
"328 736 OFFCURVE",
"215 545 CURVE SMOOTH",
"158 450 OFFCURVE",
"130 355 OFFCURVE",
"130 260 CURVE SMOOTH",
"130 111 OFFCURVE",
"203 -10 OFFCURVE",
"320 -10 CURVE SMOOTH",
"433 -10 OFFCURVE",
"558 170 OFFCURVE",
"602 250 CURVE",
"602 247 OFFCURVE",
"601 242 OFFCURVE",
"599 233 CURVE SMOOTH",
"592 198 LINE SMOOTH",
"583 150 OFFCURVE",
"578 115 OFFCURVE",
"578 92 CURVE SMOOTH",
"578 31 OFFCURVE",
"603 -12 OFFCURVE",
"646 -12 CURVE SMOOTH",
"729 -12 OFFCURVE",
"863 117 OFFCURVE",
"898 176 CURVE",
"898 187 OFFCURVE",
"877 222 OFFCURVE",
"872 222 CURVE",
"860 208 LINE SMOOTH",
"826 174 OFFCURVE",
"773 112 OFFCURVE",
"740 112 CURVE SMOOTH",
"727 112 OFFCURVE",
"720 129 OFFCURVE",
"720 162 CURVE SMOOTH",
"720 179 OFFCURVE",
"722 196 OFFCURVE",
"726 212 CURVE SMOOTH",
"848 844 LINE",
"801 861 OFFCURVE",
"753 870 OFFCURVE",
"702 870 CURVE SMOOTH"
);
},
{
closed = 1;
nodes = (
"657 778 OFFCURVE",
"684 769 OFFCURVE",
"700 752 CURVE",
"660 548 LINE SMOOTH",
"620 348 OFFCURVE",
"476 106 OFFCURVE",
"380 106 CURVE SMOOTH",
"312 106 OFFCURVE",
"278 171 OFFCURVE",
"278 302 CURVE SMOOTH",
"278 529 OFFCURVE",
"461 778 OFFCURVE",
"618 778 CURVE SMOOTH"
);
}
);
width = 880;
}
);
note = a;
unicode = 0061;
},
{
glyphname = b;
lastChange = "2021-05-07 10:00:42 +0000";
layers = (
{
layerId = "982A60EF-513A-498E-AE80-A9982858EA0F";
paths = (
{
closed = 1;
nodes = (
"608 870 OFFCURVE",
"558 843 OFFCURVE",
"484 776 CURVE SMOOTH",
"437 733 OFFCURVE",
"393 677 OFFCURVE",
"350 606 CURVE",
"468 1182 LINE SMOOTH",
"485 1266 OFFCURVE",
"494 1316 OFFCURVE",
"494 1332 CURVE SMOOTH",
"494 1353 OFFCURVE",
"490 1366 OFFCURVE",
"482 1370 CURVE",
"401 1341 OFFCURVE",
"317 1322 OFFCURVE",
"230 1314 CURVE",
"219 1303 OFFCURVE",
"214 1290 OFFCURVE",
"214 1274 CURVE SMOOTH",
"214 1266 OFFCURVE",
"216 1262 OFFCURVE",
"220 1262 CURVE SMOOTH",
"301 1262 OFFCURVE",
"342 1249 OFFCURVE",
"342 1224 CURVE SMOOTH",
"342 1208 OFFCURVE",
"336 1173 OFFCURVE",
"324 1118 CURVE SMOOTH",
"158 274 LINE SMOOTH",
"154 250 OFFCURVE",
"152 228 OFFCURVE",
"152 208 CURVE SMOOTH",
"152 67 OFFCURVE",
"249 -12 OFFCURVE",
"350 -12 CURVE SMOOTH",
"579 -12 OFFCURVE",
"834 267 OFFCURVE",
"834 608 CURVE SMOOTH",
"834 749 OFFCURVE",
"773 870 OFFCURVE",
"656 870 CURVE SMOOTH"
);
},
{
closed = 1;
nodes = (
"681 760 OFFCURVE",
"686 651 OFFCURVE",
"686 560 CURVE SMOOTH",
"686 413 OFFCURVE",
"634 250 OFFCURVE",
"545 147 CURVE SMOOTH",
"500 96 OFFCURVE",
"453 70 OFFCURVE",
"402 70 CURVE SMOOTH",
"309 70 OFFCURVE",
"269 165 OFFCURVE",
"298 312 CURVE SMOOTH",
"319 427 OFFCURVE",
"404 585 OFFCURVE",
"491 685 CURVE SMOOTH",
"534 735 OFFCURVE",
"570 760 OFFCURVE",
"598 760 CURVE SMOOTH"
);
}
);
width = 788;
}
);
note = b;
unicode = 0062;
},
{
glyphname = c;
lastChange = "2021-05-07 10:00:42 +0000";
layers = (
{
layerId = "982A60EF-513A-498E-AE80-A9982858EA0F";
paths = (
{
closed = 1;
nodes = (
"377 870 OFFCURVE",
"136 548 OFFCURVE",
"136 292 CURVE SMOOTH",
"136 103 OFFCURVE",
"211 -12 OFFCURVE",
"350 -12 CURVE SMOOTH",
"459 -12 OFFCURVE",
"591 112 OFFCURVE",
"628 176 CURVE",
"628 187 OFFCURVE",
"607 222 OFFCURVE",
"602 222 CURVE",
"596 216 LINE SMOOTH",
"535 155 OFFCURVE",
"570 190 OFFCURVE",
"530 156 CURVE SMOOTH",
"504 135 OFFCURVE",
"449 112 OFFCURVE",
"416 112 CURVE SMOOTH",
"328 112 OFFCURVE",
"284 183 OFFCURVE",
"284 324 CURVE SMOOTH",
"284 572 OFFCURVE",
"441 788 OFFCURVE",
"556 788 CURVE SMOOTH",
"675 788 OFFCURVE",
"760 600 OFFCURVE",
"760 762 CURVE SMOOTH",
"760 773 OFFCURVE",
"758 786 OFFCURVE",
"754 802 CURVE",
"701 847 OFFCURVE",
"643 870 OFFCURVE",
"580 870 CURVE SMOOTH"
);
}
);
width = 652;
}
);
note = c;
unicode = 0063;
},
{
glyphname = d;
lastChange = "2021-05-07 10:00:42 +0000";
layers = (
{
layerId = "982A60EF-513A-498E-AE80-A9982858EA0F";
paths = (
{
closed = 1;
nodes = (
"960 1352 OFFCURVE",
"956 1365 OFFCURVE",
"948 1370 CURVE",
"868 1341 OFFCURVE",
"782 1322 OFFCURVE",
"690 1314 CURVE",
"679 1303 OFFCURVE",
"674 1290 OFFCURVE",
"674 1274 CURVE SMOOTH",
"674 1266 OFFCURVE",
"676 1262 OFFCURVE",
"680 1262 CURVE SMOOTH",
"761 1262 OFFCURVE",
"802 1249 OFFCURVE",
"802 1224 CURVE SMOOTH",
"802 1205 OFFCURVE",
"800 1187 OFFCURVE",
"796 1168 CURVE SMOOTH",
"740 870 LINE",
"724 870 LINE",
"714 870 LINE SMOOTH",
"447 870 OFFCURVE",
"146 548 OFFCURVE",
"146 260 CURVE SMOOTH",
"146 111 OFFCURVE",
"215 -10 OFFCURVE",
"338 -10 CURVE SMOOTH",
"410 -10 OFFCURVE",
"512 89 OFFCURVE",
"559 156 CURVE SMOOTH",
"582 189 OFFCURVE",
"603 221 OFFCURVE",
"620 252 CURVE",
"620 246 OFFCURVE",
"611 211 OFFCURVE",
"608 198 CURVE SMOOTH",
"599 149 OFFCURVE",
"594 113 OFFCURVE",
"594 92 CURVE SMOOTH",
"594 31 OFFCURVE",
"619 -12 OFFCURVE",
"662 -12 CURVE SMOOTH",
"745 -12 OFFCURVE",
"879 117 OFFCURVE",
"914 176 CURVE",
"914 187 OFFCURVE",
"893 222 OFFCURVE",
"888 222 CURVE",
"876 208 LINE SMOOTH",
"842 174 OFFCURVE",
"789 112 OFFCURVE",
"756 112 CURVE SMOOTH",
"743 112 OFFCURVE",
"736 129 OFFCURVE",
"736 162 CURVE SMOOTH",
"736 179 OFFCURVE",
"738 196 OFFCURVE",
"742 212 CURVE SMOOTH",
"930 1182 LINE",
"960 1332 LINE"
);
},
{
closed = 1;
nodes = (
"636 349 OFFCURVE",
"495 106 OFFCURVE",
"396 106 CURVE SMOOTH",
"328 106 OFFCURVE",
"294 171 OFFCURVE",
"294 300 CURVE SMOOTH",
"294 529 OFFCURVE",
"475 778 OFFCURVE",
"638 778 CURVE SMOOTH",
"689 778 OFFCURVE",
"711 733 OFFCURVE",
"700 682 CURVE SMOOTH",
"676 552 LINE SMOOTH"
);
}
);
width = 926;
}
);
note = d;
unicode = 0064;
},
{
glyphname = e;
lastChange = "2021-05-07 10:00:42 +0000";
layers = (
{
layerId = "982A60EF-513A-498E-AE80-A9982858EA0F";
paths = (
{
closed = 1;
nodes = (
"381 870 OFFCURVE",
"140 548 OFFCURVE",
"140 292 CURVE SMOOTH",
"140 103 OFFCURVE",
"215 -12 OFFCURVE",
"354 -12 CURVE SMOOTH",
"463 -12 OFFCURVE",
"595 112 OFFCURVE",
"632 176 CURVE",
"632 187 OFFCURVE",
"611 222 OFFCURVE",
"606 222 CURVE",
"600 216 LINE SMOOTH",
"539 155 OFFCURVE",
"574 190 OFFCURVE",
"534 156 CURVE SMOOTH",
"508 135 OFFCURVE",
"453 112 OFFCURVE",
"420 112 CURVE SMOOTH",
"340 112 OFFCURVE",
"290 176 OFFCURVE",
"290 296 CURVE SMOOTH",
"290 343 OFFCURVE",
"293 366 OFFCURVE",
"298 366 CURVE SMOOTH",
"386 366 OFFCURVE",
"548 431 OFFCURVE",
"668 546 CURVE SMOOTH",
"728 603 OFFCURVE",
"758 661 OFFCURVE",
"758 720 CURVE SMOOTH",
"758 795 OFFCURVE",
"707 870 OFFCURVE",
"584 870 CURVE SMOOTH"
);
},
{
closed = 1;
nodes = (
"597 788 OFFCURVE",
"614 768 OFFCURVE",
"614 728 CURVE SMOOTH",
"614 595 OFFCURVE",
"408 436 OFFCURVE",
"312 436 CURVE SMOOTH",
"307 436 OFFCURVE",
"304 439 OFFCURVE",
"304 444 CURVE SMOOTH",
"304 543 OFFCURVE",
"439 788 OFFCURVE",
"564 788 CURVE SMOOTH"
);
}
);
width = 718;
}
);
note = e;
unicode = 0065;
},
{
glyphname = f;
lastChange = "2021-05-07 10:00:42 +0000";
layers = (
{
layerId = "982A60EF-513A-498E-AE80-A9982858EA0F";
paths = (
{
closed = 1;
nodes = (
"607 1398 OFFCURVE",
"407 1160 OFFCURVE",
"354 832 CURVE",
"351 820 OFFCURVE",
"347 814 OFFCURVE",
"342 814 CURVE SMOOTH",
"284 814 LINE SMOOTH",
"241 814 OFFCURVE",
"188 752 OFFCURVE",
"188 728 CURVE SMOOTH",
"188 724 OFFCURVE",
"189 722 OFFCURVE",
"192 722 CURVE SMOOTH",
"322 722 LINE SMOOTH",
"326 722 OFFCURVE",
"328 719 OFFCURVE",
"328 712 CURVE SMOOTH",
"328 708 LINE",
"208 30 LINE SMOOTH",
"189 -90 OFFCURVE",
"101 -384 OFFCURVE",
"-6 -384 CURVE SMOOTH",
"-74 -384 OFFCURVE",
"-98 -262 OFFCURVE",
"-154 -262 CURVE SMOOTH",
"-202 -262 OFFCURVE",
"-239 -319 OFFCURVE",
"-236 -380 CURVE",
"-220 -423 OFFCURVE",
"-167 -462 OFFCURVE",
"-74 -462 CURVE SMOOTH",
"115 -462 OFFCURVE",
"294 -263 OFFCURVE",
"358 108 CURVE SMOOTH",
"468 706 LINE",
"469 717 OFFCURVE",
"473 722 OFFCURVE",
"480 722 CURVE SMOOTH",
"714 722 LINE",
"729 746 OFFCURVE",
"736 769 OFFCURVE",
"736 790 CURVE SMOOTH",
"736 806 OFFCURVE",
"733 814 OFFCURVE",
"726 814 CURVE SMOOTH",
"496 814 LINE SMOOTH",
"492 814 OFFCURVE",
"490 817 OFFCURVE",
"490 822 CURVE SMOOTH",
"490 826 LINE",
"517 982 OFFCURVE",
"554 1104 OFFCURVE",
"602 1191 CURVE SMOOTH",
"650 1278 OFFCURVE",
"695 1322 OFFCURVE",
"738 1322 CURVE SMOOTH",
"805 1322 OFFCURVE",
"838 1200 OFFCURVE",
"902 1200 CURVE SMOOTH",
"950 1200 OFFCURVE",
"974 1243 OFFCURVE",
"974 1330 CURVE",
"950 1375 OFFCURVE",
"895 1398 OFFCURVE",
"810 1398 CURVE SMOOTH"
);
}
);
width = 608;
}
);
note = f;
unicode = 0066;
},
{
glyphname = g;
lastChange = "2021-05-07 10:00:43 +0000";
layers = (
{
layerId = "982A60EF-513A-498E-AE80-A9982858EA0F";
paths = (
{
closed = 1;
nodes = (
"392 872 OFFCURVE",
"206 686 OFFCURVE",
"206 462 CURVE SMOOTH",
"206 366 OFFCURVE",
"280 291 OFFCURVE",
"345 264 CURVE SMOOTH",
"378 251 OFFCURVE",
"407 244 OFFCURVE",
"432 244 CURVE",
"355 225 OFFCURVE",
"232 153 OFFCURVE",
"232 108 CURVE SMOOTH",
"232 83 OFFCURVE",
"249 59 OFFCURVE",
"282 36 CURVE SMOOTH",
"318 12 LINE",
"193 -43 OFFCURVE",
"30 -134 OFFCURVE",
"30 -270 CURVE SMOOTH",
"30 -393 OFFCURVE",
"158 -466 OFFCURVE",
"342 -466 CURVE SMOOTH",
"627 -466 OFFCURVE",
"810 -345 OFFCURVE",
"810 -156 CURVE SMOOTH",
"810 -71 OFFCURVE",
"751 -1 OFFCURVE",
"676 36 CURVE SMOOTH",
"639 55 OFFCURVE",
"601 70 OFFCURVE",
"563 83 CURVE SMOOTH",
"525 96 OFFCURVE",
"493 108 OFFCURVE",
"467 119 CURVE SMOOTH",
"441 130 OFFCURVE",
"428 142 OFFCURVE",
"428 154 CURVE SMOOTH",
"428 183 OFFCURVE",
"491 218 OFFCURVE",
"557 249 CURVE SMOOTH",
"598 268 OFFCURVE",
"625 282 OFFCURVE",
"638 290 CURVE SMOOTH",
"670 309 OFFCURVE",
"696 331 OFFCURVE",
"743 384 CURVE SMOOTH",
"790 437 OFFCURVE",
"820 525 OFFCURVE",
"820 624 CURVE SMOOTH",
"820 645 OFFCURVE",
"816 680 OFFCURVE",
"808 728 CURVE",
"808 736 OFFCURVE",
"812 740 OFFCURVE",
"820 740 CURVE SMOOTH",
"932 740 LINE",
"943 751 OFFCURVE",
"954 783 OFFCURVE",
"954 802 CURVE SMOOTH",
"954 813 OFFCURVE",
"950 818 OFFCURVE",
"942 818 CURVE SMOOTH",
"856 818 LINE SMOOTH",
"811 818 OFFCURVE",
"764 827 OFFCURVE",
"716 845 CURVE SMOOTH",
"668 863 OFFCURVE",
"624 872 OFFCURVE",
"584 872 CURVE SMOOTH"
);
},
{
closed = 1;
nodes = (
"627 796 OFFCURVE",
"672 695 OFFCURVE",
"672 588 CURVE SMOOTH",
"672 455 OFFCURVE",
"590 312 OFFCURVE",
"478 312 CURVE SMOOTH",
"401 312 OFFCURVE",
"356 390 OFFCURVE",
"356 494 CURVE SMOOTH",
"356 643 OFFCURVE",
"437 796 OFFCURVE",
"552 796 CURVE SMOOTH"
);
},
{
closed = 1;
nodes = (
"682 -319 OFFCURVE",
"571 -380 OFFCURVE",
"440 -380 CURVE SMOOTH",
"265 -380 OFFCURVE",
"178 -327 OFFCURVE",
"178 -220 CURVE SMOOTH",
"178 -152 OFFCURVE",
"231 -103 OFFCURVE",
"290 -70 CURVE SMOOTH",
"343 -41 OFFCURVE",
"351 -37 OFFCURVE",
"402 -16 CURVE",
"526 -56 OFFCURVE",
"682 -109 OFFCURVE",
"682 -236 CURVE SMOOTH"
);
}
);
width = 876;
}
);
note = g;
unicode = 0067;
},
{
glyphname = h;
lastChange = "2021-05-07 10:00:43 +0000";
layers = (
{
layerId = "982A60EF-513A-498E-AE80-A9982858EA0F";
paths = (
{
closed = 1;
nodes = (
"682 870 OFFCURVE",
"530 717 OFFCURVE",
"441 600 CURVE SMOOTH",
"396 541 OFFCURVE",
"367 500 OFFCURVE",
"354 476 CURVE",
"492 1182 LINE SMOOTH",
"509 1271 OFFCURVE",
"518 1321 OFFCURVE",
"518 1332 CURVE SMOOTH",
"518 1353 OFFCURVE",
"514 1366 OFFCURVE",
"506 1370 CURVE",
"426 1341 OFFCURVE",
"342 1322 OFFCURVE",
"254 1314 CURVE",
"243 1303 OFFCURVE",
"238 1290 OFFCURVE",
"238 1274 CURVE SMOOTH",
"238 1266 OFFCURVE",
"240 1262 OFFCURVE",
"244 1262 CURVE SMOOTH",
"325 1262 OFFCURVE",
"366 1249 OFFCURVE",
"366 1224 CURVE SMOOTH",
"366 1212 OFFCURVE",
"360 1177 OFFCURVE",
"348 1118 CURVE SMOOTH",
"132 0 LINE",
"153 -5 OFFCURVE",
"176 -8 OFFCURVE",
"200 -8 CURVE SMOOTH",
"224 -8 OFFCURVE",
"245 -5 OFFCURVE",
"262 0 CURVE",
"296 156 LINE SMOOTH",
"349 428 OFFCURVE",
"592 722 OFFCURVE",
"680 722 CURVE SMOOTH",
"705 722 OFFCURVE",
"718 693 OFFCURVE",
"718 636 CURVE SMOOTH",
"718 608 OFFCURVE",
"713 572 OFFCURVE",
"704 528 CURVE SMOOTH",
"634 198 LINE SMOOTH",
"625 149 OFFCURVE",
"620 113 OFFCURVE",
"620 92 CURVE SMOOTH",
"620 31 OFFCURVE",
"645 -12 OFFCURVE",
"688 -12 CURVE SMOOTH",
"771 -12 OFFCURVE",
"905 117 OFFCURVE",
"940 176 CURVE",
"940 187 OFFCURVE",
"919 222 OFFCURVE",
"914 222 CURVE",
"902 208 LINE SMOOTH",
"868 174 OFFCURVE",
"815 112 OFFCURVE",
"782 112 CURVE SMOOTH",
"769 112 OFFCURVE",
"762 129 OFFCURVE",
"762 162 CURVE SMOOTH",
"762 179 OFFCURVE",
"764 196 OFFCURVE",
"768 212 CURVE SMOOTH",
"834 520 LINE SMOOTH",
"853 605 OFFCURVE",
"862 678 OFFCURVE",
"862 738 CURVE SMOOTH",
"862 826 OFFCURVE",
"829 870 OFFCURVE",
"762 870 CURVE SMOOTH"
);
}
);
width = 922;
}
);
note = h;
unicode = 0068;
},
{
glyphname = i;
lastChange = "2021-05-07 10:00:43 +0000";
layers = (
{
layerId = "982A60EF-513A-498E-AE80-A9982858EA0F";
paths = (
{
closed = 1;
nodes = (
"415 1292 OFFCURVE",
"370 1239 OFFCURVE",
"370 1178 CURVE SMOOTH",
"370 1130 OFFCURVE",
"395 1092 OFFCURVE",
"438 1092 CURVE SMOOTH",
"499 1092 OFFCURVE",
"546 1148 OFFCURVE",
"546 1212 CURVE SMOOTH",
"546 1255 OFFCURVE",
"514 1292 OFFCURVE",
"474 1292 CURVE SMOOTH"
);
},
{
closed = 1;
nodes = (
"347 870 OFFCURVE",
"218 751 OFFCURVE",
"186 698 CURVE",
"186 687 OFFCURVE",
"207 652 OFFCURVE",
"212 652 CURVE",
"222 664 LINE SMOOTH",
"240 686 OFFCURVE",
"298 746 OFFCURVE",
"322 746 CURVE SMOOTH",
"335 746 OFFCURVE",
"342 729 OFFCURVE",
"342 696 CURVE SMOOTH",
"342 684 OFFCURVE",
"339 657 OFFCURVE",
"332 616 CURVE SMOOTH",
"250 198 LINE SMOOTH",
"241 149 OFFCURVE",
"236 113 OFFCURVE",
"236 92 CURVE SMOOTH",
"236 31 OFFCURVE",
"261 -12 OFFCURVE",
"304 -12 CURVE SMOOTH",
"387 -12 OFFCURVE",
"521 117 OFFCURVE",
"556 176 CURVE",
"556 187 OFFCURVE",
"535 222 OFFCURVE",
"530 222 CURVE",
"518 208 LINE SMOOTH",
"484 174 OFFCURVE",
"431 112 OFFCURVE",
"398 112 CURVE SMOOTH",
"385 112 OFFCURVE",
"378 129 OFFCURVE",
"378 162 CURVE SMOOTH",
"378 179 OFFCURVE",
"380 196 OFFCURVE",
"384 212 CURVE SMOOTH",
"472 660 LINE SMOOTH",
"480 703 OFFCURVE",
"484 738 OFFCURVE",
"484 766 CURVE SMOOTH",
"484 827 OFFCURVE",
"459 870 OFFCURVE",
"416 870 CURVE SMOOTH"
);
}
);
width = 548;
}
);
note = i;
unicode = 0069;
},
{
glyphname = j;
lastChange = "2021-05-07 10:00:43 +0000";
layers = (
{
layerId = "982A60EF-513A-498E-AE80-A9982858EA0F";
paths = (
{
closed = 1;
nodes = (
"457 1292 OFFCURVE",
"412 1239 OFFCURVE",
"412 1178 CURVE SMOOTH",
"412 1130 OFFCURVE",
"437 1092 OFFCURVE",
"480 1092 CURVE SMOOTH",
"541 1092 OFFCURVE",
"588 1148 OFFCURVE",
"588 1212 CURVE SMOOTH",
"588 1255 OFFCURVE",
"556 1292 OFFCURVE",
"516 1292 CURVE SMOOTH"
);
},
{
closed = 1;
nodes = (
"389 870 OFFCURVE",
"260 751 OFFCURVE",
"228 698 CURVE",
"228 687 OFFCURVE",
"249 652 OFFCURVE",
"254 652 CURVE",
"262 662 OFFCURVE",
"291 693 OFFCURVE",
"313 714 CURVE SMOOTH",
"333 733 OFFCURVE",
"353 746 OFFCURVE",
"364 746 CURVE SMOOTH",
"377 746 OFFCURVE",
"384 729 OFFCURVE",
"384 696 CURVE SMOOTH",
"384 691 OFFCURVE",
"381 664 OFFCURVE",
"374 616 CURVE",
"260 44 LINE SMOOTH",
"217 -177 OFFCURVE",
"109 -353 OFFCURVE",
"-24 -430 CURVE",
"-24 -447 OFFCURVE",
"-18 -461 OFFCURVE",
"-6 -470 CURVE",
"77 -438 OFFCURVE",
"197 -349 OFFCURVE",
"272 -248 CURVE SMOOTH",
"332 -167 OFFCURVE",
"376 -54 OFFCURVE",
"404 90 CURVE SMOOTH",
"514 660 LINE SMOOTH",
"522 704 OFFCURVE",
"526 739 OFFCURVE",
"526 766 CURVE SMOOTH",
"526 827 OFFCURVE",
"501 870 OFFCURVE",
"458 870 CURVE SMOOTH"
);
}
);
width = 580;
}
);
note = j;
unicode = 006A;
},
{
glyphname = k;
lastChange = "2021-05-07 10:00:43 +0000";
layers = (
{
layerId = "982A60EF-513A-498E-AE80-A9982858EA0F";
paths = (
{
closed = 1;
nodes = (
"637 870 OFFCURVE",
"514 743 OFFCURVE",
"452 670 CURVE SMOOTH",
"430 644 LINE",
"534 1182 LINE SMOOTH",
"551 1266 OFFCURVE",
"560 1316 OFFCURVE",
"560 1332 CURVE SMOOTH",
"560 1353 OFFCURVE",
"556 1366 OFFCURVE",
"548 1370 CURVE",
"467 1341 OFFCURVE",
"383 1322 OFFCURVE",
"296 1314 CURVE",
"285 1303 OFFCURVE",
"280 1290 OFFCURVE",
"280 1274 CURVE SMOOTH",
"280 1266 OFFCURVE",
"282 1262 OFFCURVE",
"286 1262 CURVE SMOOTH",
"367 1262 OFFCURVE",
"408 1249 OFFCURVE",
"408 1224 CURVE SMOOTH",
"408 1208 OFFCURVE",
"402 1173 OFFCURVE",
"390 1118 CURVE SMOOTH",
"172 0 LINE",
"199 -7 OFFCURVE",
"221 -10 OFFCURVE",
"238 -10 CURVE SMOOTH",
"258 -10 OFFCURVE",
"280 -7 OFFCURVE",
"304 0 CURVE",
"378 382 LINE",
"397 357 OFFCURVE",
"420 309 OFFCURVE",
"442 274 CURVE SMOOTH",
"477 218 LINE SMOOTH",
"494 191 OFFCURVE",
"507 172 OFFCURVE",
"518 159 CURVE SMOOTH",
"529 146 OFFCURVE",
"542 129 OFFCURVE",
"559 108 CURVE SMOOTH",
"606 48 OFFCURVE",
"684 -8 OFFCURVE",
"752 -8 CURVE SMOOTH",
"829 -8 OFFCURVE",
"935 113 OFFCURVE",
"948 158 CURVE",
"948 169 OFFCURVE",
"924 198 OFFCURVE",
"916 198 CURVE",
"895 161 OFFCURVE",
"846 110 OFFCURVE",
"798 110 CURVE SMOOTH",
"769 110 OFFCURVE",
"733 129 OFFCURVE",
"691 168 CURVE SMOOTH",
"649 207 OFFCURVE",
"588 286 OFFCURVE",
"508 406 CURVE",
"748 446 OFFCURVE",
"918 561 OFFCURVE",
"918 734 CURVE SMOOTH",
"918 811 OFFCURVE",
"848 870 OFFCURVE",
"768 870 CURVE SMOOTH"
);
},
{
closed = 1;
nodes = (
"749 776 OFFCURVE",
"776 747 OFFCURVE",
"776 690 CURVE SMOOTH",
"776 584 OFFCURVE",
"659 517 OFFCURVE",
"557 488 CURVE SMOOTH",
"510 475 OFFCURVE",
"452 465 OFFCURVE",
"435 462 CURVE SMOOTH",
"426 461 OFFCURVE",
"419 460 OFFCURVE",
"414 460 CURVE SMOOTH",
"411 460 OFFCURVE",
"410 461 OFFCURVE",
"410 464 CURVE SMOOTH",
"410 523 OFFCURVE",
"611 776 OFFCURVE",
"696 776 CURVE SMOOTH"
);
}
);
width = 970;
}
);
note = k;
unicode = 006B;
},
{
glyphname = l;
lastChange = "2021-05-07 10:00:43 +0000";
layers = (
{
layerId = "982A60EF-513A-498E-AE80-A9982858EA0F";
paths = (
{
closed = 1;
nodes = (
"177 150 OFFCURVE",
"172 115 OFFCURVE",
"172 92 CURVE SMOOTH",
"172 31 OFFCURVE",
"200 -12 OFFCURVE",
"240 -12 CURVE SMOOTH",
"323 -12 OFFCURVE",
"457 117 OFFCURVE",
"492 176 CURVE",
"492 187 OFFCURVE",
"474 222 OFFCURVE",
"466 222 CURVE",
"461 215 OFFCURVE",
"422 171 OFFCURVE",
"398 150 CURVE SMOOTH",
"374 129 OFFCURVE",
"350 112 OFFCURVE",
"334 112 CURVE SMOOTH",
"321 112 OFFCURVE",
"314 129 OFFCURVE",
"314 162 CURVE SMOOTH",
"314 179 OFFCURVE",
"316 196 OFFCURVE",
"320 212 CURVE SMOOTH",
"510 1182 LINE SMOOTH",
"527 1266 OFFCURVE",
"536 1316 OFFCURVE",
"536 1332 CURVE SMOOTH",
"536 1353 OFFCURVE",
"532 1366 OFFCURVE",
"524 1370 CURVE",
"444 1341 OFFCURVE",
"359 1322 OFFCURVE",
"268 1314 CURVE",
"257 1303 OFFCURVE",
"252 1290 OFFCURVE",
"252 1274 CURVE SMOOTH",
"252 1266 OFFCURVE",
"254 1262 OFFCURVE",
"258 1262 CURVE SMOOTH",
"339 1262 OFFCURVE",
"380 1249 OFFCURVE",
"380 1224 CURVE SMOOTH",
"380 1207 OFFCURVE",
"378 1188 OFFCURVE",
"374 1168 CURVE SMOOTH",
"186 198 LINE SMOOTH"
);
}
);
width = 496;
}
);
note = l;
unicode = 006C;
},
{
glyphname = m;
lastChange = "2021-05-07 10:00:43 +0000";
layers = (
{
layerId = "982A60EF-513A-498E-AE80-A9982858EA0F";
paths = (
{
closed = 1;
nodes = (
"697 870 OFFCURVE",
"523 645 OFFCURVE",
"424 474 CURVE",
"460 660 LINE SMOOTH",
"468 701 OFFCURVE",
"472 737 OFFCURVE",
"472 766 CURVE SMOOTH",
"472 827 OFFCURVE",
"447 870 OFFCURVE",
"404 870 CURVE SMOOTH",
"335 870 OFFCURVE",
"206 751 OFFCURVE",
"174 698 CURVE",
"174 687 OFFCURVE",
"195 652 OFFCURVE",
"200 652 CURVE",
"208 662 OFFCURVE",
"237 693 OFFCURVE",
"259 714 CURVE SMOOTH",
"279 733 OFFCURVE",
"299 746 OFFCURVE",
"310 746 CURVE SMOOTH",
"323 746 OFFCURVE",
"330 729 OFFCURVE",
"330 696 CURVE SMOOTH",
"330 691 OFFCURVE",
"327 664 OFFCURVE",
"320 616 CURVE",
"200 0 LINE",
"235 -5 OFFCURVE",
"257 -8 OFFCURVE",
"266 -8 CURVE SMOOTH",
"277 -8 OFFCURVE",
"299 -5 OFFCURVE",
"334 0 CURVE",
"370 176 LINE SMOOTH",
"415 397 OFFCURVE",
"641 722 OFFCURVE",
"734 722 CURVE SMOOTH",
"761 722 OFFCURVE",
"774 696 OFFCURVE",
"774 644 CURVE SMOOTH",
"774 621 OFFCURVE",
"771 596 OFFCURVE",
"766 568 CURVE SMOOTH",
"654 0 LINE",
"788 0 LINE",
"824 190 LINE SMOOTH",
"869 435 OFFCURVE",
"1101 722 OFFCURVE",
"1192 722 CURVE SMOOTH",
"1228 722 OFFCURVE",
"1230 682 OFFCURVE",
"1230 636 CURVE SMOOTH",
"1230 608 OFFCURVE",
"1225 572 OFFCURVE",
"1216 528 CURVE SMOOTH",
"1146 198 LINE SMOOTH",
"1137 149 OFFCURVE",
"1132 113 OFFCURVE",
"1132 92 CURVE SMOOTH",
"1132 31 OFFCURVE",
"1157 -12 OFFCURVE",
"1200 -12 CURVE SMOOTH",
"1283 -12 OFFCURVE",
"1417 117 OFFCURVE",
"1452 176 CURVE",
"1452 187 OFFCURVE",
"1431 222 OFFCURVE",
"1426 222 CURVE",
"1414 208 LINE SMOOTH",
"1380 174 OFFCURVE",
"1327 112 OFFCURVE",
"1294 112 CURVE SMOOTH",
"1281 112 OFFCURVE",
"1274 129 OFFCURVE",
"1274 162 CURVE SMOOTH",
"1274 179 OFFCURVE",
"1276 196 OFFCURVE",
"1280 212 CURVE SMOOTH",
"1346 520 LINE SMOOTH",
"1365 605 OFFCURVE",
"1374 678 OFFCURVE",
"1374 738 CURVE SMOOTH",
"1374 826 OFFCURVE",
"1348 870 OFFCURVE",
"1260 870 CURVE SMOOTH",
"1167 870 OFFCURVE",
"974 654 OFFCURVE",
"886 502 CURVE",
"905 598 OFFCURVE",
"914 657 OFFCURVE",
"914 680 CURVE SMOOTH",
"914 755 OFFCURVE",
"912 795 OFFCURVE",
"873 838 CURVE SMOOTH",
"854 859 OFFCURVE",
"826 870 OFFCURVE",
"790 870 CURVE SMOOTH"
);
}
);
width = 1432;
}
);
note = m;
unicode = 006D;
},
{
glyphname = n;
lastChange = "2021-05-07 10:00:43 +0000";
layers = (
{
layerId = "982A60EF-513A-498E-AE80-A9982858EA0F";
paths = (
{
closed = 1;
nodes = (
"331 870 OFFCURVE",
"202 751 OFFCURVE",
"170 698 CURVE",
"170 687 OFFCURVE",
"191 652 OFFCURVE",
"196 652 CURVE",
"204 662 OFFCURVE",
"233 693 OFFCURVE",
"255 714 CURVE SMOOTH",
"275 733 OFFCURVE",
"295 746 OFFCURVE",
"306 746 CURVE SMOOTH",
"319 746 OFFCURVE",
"326 729 OFFCURVE",
"326 696 CURVE SMOOTH",
"326 691 OFFCURVE",
"323 664 OFFCURVE",
"316 616 CURVE",
"198 0 LINE",
"219 -5 OFFCURVE",
"242 -8 OFFCURVE",
"266 -8 CURVE SMOOTH",
"290 -8 OFFCURVE",
"311 -5 OFFCURVE",
"328 0 CURVE",
"362 156 LINE SMOOTH",
"415 428 OFFCURVE",
"658 722 OFFCURVE",
"746 722 CURVE SMOOTH",
"771 722 OFFCURVE",
"784 693 OFFCURVE",
"784 636 CURVE SMOOTH",
"784 608 OFFCURVE",
"779 572 OFFCURVE",
"770 528 CURVE SMOOTH",
"700 198 LINE SMOOTH",
"691 149 OFFCURVE",
"686 113 OFFCURVE",
"686 92 CURVE SMOOTH",
"686 31 OFFCURVE",
"711 -12 OFFCURVE",
"754 -12 CURVE SMOOTH",
"837 -12 OFFCURVE",
"971 117 OFFCURVE",
"1006 176 CURVE",
"1006 187 OFFCURVE",
"985 222 OFFCURVE",
"980 222 CURVE",
"968 208 LINE SMOOTH",
"934 174 OFFCURVE",
"881 112 OFFCURVE",
"848 112 CURVE SMOOTH",
"835 112 OFFCURVE",
"828 129 OFFCURVE",
"828 162 CURVE SMOOTH",
"828 179 OFFCURVE",
"830 196 OFFCURVE",
"834 212 CURVE SMOOTH",
"900 520 LINE SMOOTH",
"919 605 OFFCURVE",
"928 678 OFFCURVE",
"928 738 CURVE SMOOTH",
"928 826 OFFCURVE",
"895 870 OFFCURVE",
"828 870 CURVE SMOOTH",
"748 870 OFFCURVE",
"596 717 OFFCURVE",
"507 600 CURVE SMOOTH",
"462 541 OFFCURVE",
"433 500 OFFCURVE",
"420 476 CURVE",
"456 660 LINE SMOOTH",
"464 701 OFFCURVE",
"468 737 OFFCURVE",
"468 766 CURVE SMOOTH",
"468 827 OFFCURVE",
"443 870 OFFCURVE",
"400 870 CURVE SMOOTH"
);
}
);
width = 984;
}
);
note = n;
unicode = 006E;
},
{
glyphname = o;
lastChange = "2021-05-07 10:00:43 +0000";
layers = (
{
layerId = "982A60EF-513A-498E-AE80-A9982858EA0F";
paths = (
{
closed = 1;
nodes = (
"373 870 OFFCURVE",
"136 567 OFFCURVE",
"136 290 CURVE SMOOTH",
"136 98 OFFCURVE",
"222 -10 OFFCURVE",
"382 -10 CURVE SMOOTH",
"585 -10 OFFCURVE",
"824 287 OFFCURVE",
"824 562 CURVE SMOOTH",
"824 754 OFFCURVE",
"733 870 OFFCURVE",
"576 870 CURVE SMOOTH"
);
},
{
closed = 1;
nodes = (
"627 788 OFFCURVE",
"672 703 OFFCURVE",
"672 546 CURVE SMOOTH",
"672 333 OFFCURVE",
"551 72 OFFCURVE",
"418 72 CURVE SMOOTH",
"343 72 OFFCURVE",
"288 161 OFFCURVE",
"288 316 CURVE SMOOTH",
"288 527 OFFCURVE",
"419 788 OFFCURVE",
"552 788 CURVE SMOOTH"
);
}
);
width = 824;
}
);
note = o;
unicode = 006F;
},
{
glyphname = p;
lastChange = "2021-05-07 10:00:43 +0000";
layers = (
{
layerId = "982A60EF-513A-498E-AE80-A9982858EA0F";
paths = (
{
closed = 1;
nodes = (
"631 870 OFFCURVE",
"552 831 OFFCURVE",
"519 804 CURVE SMOOTH",
"502 791 OFFCURVE",
"481 772 OFFCURVE",
"454 748 CURVE",
"457 767 OFFCURVE",
"464 804 OFFCURVE",
"476 860 CURVE",
"457 869 OFFCURVE",
"436 874 OFFCURVE",
"412 874 CURVE SMOOTH",
"388 874 OFFCURVE",
"366 871 OFFCURVE",
"346 866 CURVE",
"294 606 LINE",
"176 480 LINE SMOOTH",
"172 476 OFFCURVE",
"170 471 OFFCURVE",
"170 466 CURVE SMOOTH",
"170 449 OFFCURVE",
"174 435 OFFCURVE",
"182 426 CURVE",
"278 522 LINE",
"120 -294 LINE SMOOTH",
"113 -333 OFFCURVE",
"103 -361 OFFCURVE",
"88 -380 CURVE SMOOTH",
"71 -401 OFFCURVE",
"44 -412 OFFCURVE",
"8 -412 CURVE",
"3 -420 OFFCURVE",
"0 -434 OFFCURVE",
"0 -454 CURVE SMOOTH",
"0 -463 OFFCURVE",
"2 -469 OFFCURVE",
"6 -470 CURVE",
"106 -458 OFFCURVE",
"201 -452 OFFCURVE",
"292 -452 CURVE SMOOTH",
"299 -452 OFFCURVE",
"310 -452 OFFCURVE",
"325 -453 CURVE SMOOTH",
"340 -454 OFFCURVE",
"353 -454 OFFCURVE",
"362 -454 CURVE",
"369 -445 OFFCURVE",
"372 -430 OFFCURVE",
"372 -410 CURVE SMOOTH",
"372 -402 OFFCURVE",
"371 -398 OFFCURVE",
"368 -398 CURVE SMOOTH",
"323 -398 OFFCURVE",
"291 -396 OFFCURVE",
"274 -392 CURVE SMOOTH",
"255 -387 OFFCURVE",
"246 -371 OFFCURVE",
"246 -346 CURVE SMOOTH",
"246 -326 OFFCURVE",
"248 -307 OFFCURVE",
"252 -290 CURVE SMOOTH",
"308 8 LINE",
"328 -3 OFFCURVE",
"355 -8 OFFCURVE",
"388 -8 CURVE SMOOTH",
"513 -8 OFFCURVE",
"693 124 OFFCURVE",
"810 317 CURVE SMOOTH",
"869 414 OFFCURVE",
"898 508 OFFCURVE",
"898 600 CURVE SMOOTH",
"898 749 OFFCURVE",
"829 870 OFFCURVE",
"706 870 CURVE SMOOTH"
);
},
{
closed = 1;
nodes = (
"709 754 OFFCURVE",
"750 689 OFFCURVE",
"750 560 CURVE SMOOTH",
"750 331 OFFCURVE",
"581 84 OFFCURVE",
"426 84 CURVE SMOOTH",
"354 84 OFFCURVE",
"337 145 OFFCURVE",
"348 206 CURVE SMOOTH",
"434 648 LINE",
"483 719 OFFCURVE",
"547 754 OFFCURVE",
"626 754 CURVE SMOOTH"
);
}
);
width = 880;
}
);
note = p;
unicode = 0070;
},
{
glyphname = q;
lastChange = "2021-05-07 10:00:43 +0000";
layers = (
{
layerId = "982A60EF-513A-498E-AE80-A9982858EA0F";
paths = (
{
closed = 1;
nodes = (
"551 870 OFFCURVE",
"357 736 OFFCURVE",
"242 545 CURVE SMOOTH",
"185 450 OFFCURVE",
"156 355 OFFCURVE",
"156 260 CURVE SMOOTH",
"156 111 OFFCURVE",
"231 -10 OFFCURVE",
"348 -10 CURVE SMOOTH",
"417 -10 OFFCURVE",
"518 78 OFFCURVE",
"574 149 CURVE SMOOTH",
"602 184 OFFCURVE",
"625 218 OFFCURVE",
"644 250 CURVE",
"542 -294 LINE SMOOTH",
"529 -363 OFFCURVE",
"465 -403 OFFCURVE",
"437 -407 CURVE SMOOTH",
"423 -409 OFFCURVE",
"410 -410 OFFCURVE",
"398 -410 CURVE SMOOTH",
"391 -410 OFFCURVE",
"388 -422 OFFCURVE",
"388 -446 CURVE SMOOTH",
"388 -449 OFFCURVE",
"388 -453 OFFCURVE",
"389 -459 CURVE SMOOTH",
"390 -465 OFFCURVE",
"390 -469 OFFCURVE",
"390 -470 CURVE",
"489 -459 OFFCURVE",
"585 -454 OFFCURVE",
"680 -454 CURVE SMOOTH",
"688 -454 OFFCURVE",
"701 -454 OFFCURVE",
"719 -455 CURVE SMOOTH",
"737 -456 OFFCURVE",
"751 -456 OFFCURVE",
"760 -456 CURVE",
"767 -445 OFFCURVE",
"770 -429 OFFCURVE",
"770 -408 CURVE SMOOTH",
"770 -400 OFFCURVE",
"769 -396 OFFCURVE",
"766 -396 CURVE SMOOTH",
"700 -396 OFFCURVE",
"674 -380 OFFCURVE",
"674 -336 CURVE SMOOTH",
"674 -329 OFFCURVE",
"675 -315 OFFCURVE",
"678 -294 CURVE SMOOTH",
"768 212 LINE",
"890 844 LINE",
"843 861 OFFCURVE",
"790 870 OFFCURVE",
"730 870 CURVE SMOOTH"
);
},
{
closed = 1;
nodes = (
"693 778 OFFCURVE",
"726 769 OFFCURVE",
"742 752 CURVE",
"702 548 LINE SMOOTH",
"662 351 OFFCURVE",
"507 106 OFFCURVE",
"408 106 CURVE SMOOTH",
"339 106 OFFCURVE",
"304 177 OFFCURVE",
"304 318 CURVE SMOOTH",
"304 534 OFFCURVE",
"471 778 OFFCURVE",
"644 778 CURVE SMOOTH"
);
}
);
width = 830;
}
);
note = q;
unicode = 0071;
},
{
glyphname = r;
lastChange = "2021-05-07 10:00:43 +0000";
layers = (
{
layerId = "982A60EF-513A-498E-AE80-A9982858EA0F";
paths = (
{
closed = 1;
nodes = (
"345 870 OFFCURVE",
"216 751 OFFCURVE",
"184 698 CURVE",
"184 687 OFFCURVE",
"205 652 OFFCURVE",
"210 652 CURVE",
"218 662 OFFCURVE",
"247 693 OFFCURVE",
"269 714 CURVE SMOOTH",
"289 733 OFFCURVE",
"309 746 OFFCURVE",
"320 746 CURVE SMOOTH",
"333 746 OFFCURVE",
"340 729 OFFCURVE",
"340 696 CURVE SMOOTH",
"340 691 OFFCURVE",
"337 664 OFFCURVE",
"330 616 CURVE",
"210 0 LINE",
"234 -4 OFFCURVE",
"259 -6 OFFCURVE",
"284 -6 CURVE SMOOTH",
"305 -6 OFFCURVE",
"327 -4 OFFCURVE",
"350 0 CURVE",
"388 210 LINE SMOOTH",
"428 429 OFFCURVE",
"629 722 OFFCURVE",
"706 722 CURVE SMOOTH",
"722 722 OFFCURVE",
"737 714 OFFCURVE",
"752 697 CURVE SMOOTH",
"767 680 OFFCURVE",
"779 672 OFFCURVE",
"790 672 CURVE SMOOTH",
"839 672 OFFCURVE",
"864 717 OFFCURVE",
"864 806 CURVE",
"836 849 OFFCURVE",
"799 870 OFFCURVE",
"754 870 CURVE SMOOTH",
"663 870 OFFCURVE",
"505 649 OFFCURVE",
"438 492 CURVE",
"470 660 LINE SMOOTH",
"478 701 OFFCURVE",
"482 737 OFFCURVE",
"482 766 CURVE SMOOTH",
"482 827 OFFCURVE",
"457 870 OFFCURVE",
"414 870 CURVE SMOOTH"
);
}
);
width = 744;
}
);
note = r;
unicode = 0072;
},
{
glyphname = s;
lastChange = "2021-05-07 10:00:43 +0000";
layers = (
{
layerId = "982A60EF-513A-498E-AE80-A9982858EA0F";
paths = (
{
closed = 1;
nodes = (
"365 876 OFFCURVE",
"244 742 OFFCURVE",
"244 630 CURVE SMOOTH",
"244 539 OFFCURVE",
"307 445 OFFCURVE",
"368 384 CURVE SMOOTH",
"429 323 OFFCURVE",
"492 237 OFFCURVE",
"492 168 CURVE SMOOTH",
"492 123 OFFCURVE",
"453 76 OFFCURVE",
"394 76 CURVE SMOOTH",
"322 76 OFFCURVE",
"281 126 OFFCURVE",
"252 165 CURVE SMOOTH",
"237 184 OFFCURVE",
"221 194 OFFCURVE",
"202 194 CURVE SMOOTH",
"162 194 OFFCURVE",
"134 150 OFFCURVE",
"134 102 CURVE SMOOTH",
"134 87 OFFCURVE",
"137 75 OFFCURVE",
"144 64 CURVE",
"188 13 OFFCURVE",
"248 -12 OFFCURVE",
"324 -12 CURVE SMOOTH",
"492 -12 OFFCURVE",
"610 87 OFFCURVE",
"610 234 CURVE SMOOTH",
"610 325 OFFCURVE",
"547 419 OFFCURVE",
"486 480 CURVE SMOOTH",
"425 541 OFFCURVE",
"362 627 OFFCURVE",
"362 696 CURVE SMOOTH",
"362 744 OFFCURVE",
"396 788 OFFCURVE",
"452 788 CURVE SMOOTH",
"524 788 OFFCURVE",
"565 738 OFFCURVE",
"594 699 CURVE SMOOTH",
"609 680 OFFCURVE",
"625 670 OFFCURVE",
"644 670 CURVE SMOOTH",
"684 670 OFFCURVE",
"712 710 OFFCURVE",
"712 758 CURVE SMOOTH",
"712 770 OFFCURVE",
"709 784 OFFCURVE",
"702 800 CURVE",
"658 851 OFFCURVE",
"598 876 OFFCURVE",
"522 876 CURVE SMOOTH"
);
}
);
width = 640;
}
);
note = s;
unicode = 0073;
},
{
glyphname = t;
lastChange = "2021-05-07 10:00:43 +0000";
layers = (
{
layerId = "982A60EF-513A-498E-AE80-A9982858EA0F";
paths = (
{
closed = 1;
nodes = (
"188 816 OFFCURVE",
"180 795 OFFCURVE",
"180 778 CURVE SMOOTH",
"180 763 OFFCURVE",
"182 756 OFFCURVE",
"186 756 CURVE SMOOTH",
"328 756 LINE",
"220 198 LINE SMOOTH",
"211 149 OFFCURVE",
"206 113 OFFCURVE",
"206 92 CURVE SMOOTH",
"206 31 OFFCURVE",
"231 -12 OFFCURVE",
"274 -12 CURVE SMOOTH",
"357 -12 OFFCURVE",
"491 117 OFFCURVE",
"526 176 CURVE",
"526 187 OFFCURVE",
"505 222 OFFCURVE",
"500 222 CURVE",
"488 208 LINE SMOOTH",
"454 174 OFFCURVE",
"401 112 OFFCURVE",
"368 112 CURVE SMOOTH",
"355 112 OFFCURVE",
"348 129 OFFCURVE",
"348 162 CURVE SMOOTH",
"348 179 OFFCURVE",
"350 196 OFFCURVE",
"354 212 CURVE SMOOTH",
"460 756 LINE",
"650 756 LINE",
"662 779 OFFCURVE",
"668 798 OFFCURVE",
"668 814 CURVE SMOOTH",
"668 831 OFFCURVE",
"665 840 OFFCURVE",
"658 840 CURVE SMOOTH",
"476 840 LINE",
"526 1102 LINE",
"518 1103 OFFCURVE",
"506 1104 OFFCURVE",
"490 1104 CURVE SMOOTH",
"429 1104 OFFCURVE",
"396 1097 OFFCURVE",
"392 1084 CURVE",
"344 840 LINE",
"204 840 LINE"
);
}
);
width = 524;
}
);
note = t;
unicode = 0074;
},
{
glyphname = u;
lastChange = "2021-05-07 10:00:43 +0000";
layers = (
{
layerId = "982A60EF-513A-498E-AE80-A9982858EA0F";
paths = (
{
closed = 1;
nodes = (
"311 870 OFFCURVE",
"182 751 OFFCURVE",
"150 698 CURVE",
"150 687 OFFCURVE",
"171 652 OFFCURVE",
"176 652 CURVE",
"184 662 OFFCURVE",
"213 693 OFFCURVE",
"235 714 CURVE SMOOTH",
"255 733 OFFCURVE",
"275 746 OFFCURVE",
"286 746 CURVE SMOOTH",
"299 746 OFFCURVE",
"306 729 OFFCURVE",
"306 696 CURVE SMOOTH",
"306 691 OFFCURVE",
"303 664 OFFCURVE",
"296 616 CURVE",
"236 338 LINE SMOOTH",
"217 254 OFFCURVE",
"208 181 OFFCURVE",
"208 120 CURVE SMOOTH",
"208 32 OFFCURVE",
"241 -12 OFFCURVE",
"308 -12 CURVE SMOOTH",
"388 -12 OFFCURVE",
"535 143 OFFCURVE",
"618 258 CURVE SMOOTH",
"659 315 OFFCURVE",
"687 357 OFFCURVE",
"700 382 CURVE",
"664 198 LINE SMOOTH",
"655 149 OFFCURVE",
"650 113 OFFCURVE",
"650 92 CURVE SMOOTH",
"650 31 OFFCURVE",
"675 -12 OFFCURVE",
"718 -12 CURVE SMOOTH",
"801 -12 OFFCURVE",
"935 117 OFFCURVE",
"970 176 CURVE",
"970 187 OFFCURVE",
"949 222 OFFCURVE",
"944 222 CURVE",
"932 208 LINE SMOOTH",
"898 174 OFFCURVE",
"845 112 OFFCURVE",
"812 112 CURVE SMOOTH",
"799 112 OFFCURVE",
"792 129 OFFCURVE",
"792 162 CURVE SMOOTH",
"792 179 OFFCURVE",
"794 196 OFFCURVE",
"798 212 CURVE SMOOTH",
"922 858 LINE",
"901 863 OFFCURVE",
"878 866 OFFCURVE",
"854 866 CURVE SMOOTH",
"830 866 OFFCURVE",
"809 863 OFFCURVE",
"792 858 CURVE",
"758 702 LINE SMOOTH",
"731 561 OFFCURVE",
"655 405 OFFCURVE",
"579 305 CURVE SMOOTH",
"517 223 OFFCURVE",
"433 136 OFFCURVE",
"390 136 CURVE SMOOTH",
"365 136 OFFCURVE",
"352 165 OFFCURVE",
"352 222 CURVE SMOOTH",
"352 255 OFFCURVE",
"357 291 OFFCURVE",
"366 330 CURVE SMOOTH",
"436 660 LINE SMOOTH",
"444 695 OFFCURVE",
"448 730 OFFCURVE",
"448 766 CURVE SMOOTH",
"448 827 OFFCURVE",
"423 870 OFFCURVE",
"380 870 CURVE SMOOTH"
);
}
);
width = 944;
}
);
note = u;
unicode = 0075;
},
{
glyphname = v;
lastChange = "2021-05-07 10:00:43 +0000";
layers = (
{
layerId = "982A60EF-513A-498E-AE80-A9982858EA0F";
paths = (
{
closed = 1;
nodes = (
"319 870 OFFCURVE",
"190 751 OFFCURVE",
"158 698 CURVE",
"158 687 OFFCURVE",
"179 652 OFFCURVE",
"184 652 CURVE",
"194 664 LINE SMOOTH",
"212 686 OFFCURVE",
"270 746 OFFCURVE",
"294 746 CURVE SMOOTH",
"307 746 OFFCURVE",
"314 729 OFFCURVE",
"314 696 CURVE SMOOTH",
"314 671 OFFCURVE",
"310 644 OFFCURVE",
"302 616 CURVE",
"234 264 LINE SMOOTH",
"229 243 OFFCURVE",
"226 213 OFFCURVE",
"226 176 CURVE SMOOTH",
"226 72 OFFCURVE",
"283 0 OFFCURVE",
"374 0 CURVE SMOOTH",
"491 0 OFFCURVE",
"678 157 OFFCURVE",
"807 394 CURVE SMOOTH",
"872 513 OFFCURVE",
"904 627 OFFCURVE",
"904 738 CURVE SMOOTH",
"904 781 OFFCURVE",
"895 819 OFFCURVE",
"876 854 CURVE",
"859 865 OFFCURVE",
"837 870 OFFCURVE",
"812 870 CURVE SMOOTH",
"767 870 OFFCURVE",
"730 828 OFFCURVE",
"730 780 CURVE SMOOTH",
"730 764 OFFCURVE",
"740 740 OFFCURVE",
"759 708 CURVE SMOOTH",
"778 676 OFFCURVE",
"788 646 OFFCURVE",
"788 618 CURVE SMOOTH",
"788 447 OFFCURVE",
"573 124 OFFCURVE",
"450 124 CURVE SMOOTH",
"389 124 OFFCURVE",
"368 153 OFFCURVE",
"368 228 CURVE SMOOTH",
"368 248 OFFCURVE",
"373 290 OFFCURVE",
"384 354 CURVE SMOOTH",
"444 660 LINE SMOOTH",
"452 703 OFFCURVE",
"456 738 OFFCURVE",
"456 766 CURVE SMOOTH",
"456 827 OFFCURVE",
"431 870 OFFCURVE",
"388 870 CURVE SMOOTH"
);
}
);
width = 832;
}
);
note = v;
unicode = 0076;
},
{
glyphname = w;
lastChange = "2021-05-07 10:00:43 +0000";
layers = (
{
layerId = "982A60EF-513A-498E-AE80-A9982858EA0F";
paths = (
{
closed = 1;
nodes = (
"319 870 OFFCURVE",
"190 751 OFFCURVE",
"158 698 CURVE",
"158 687 OFFCURVE",
"179 652 OFFCURVE",
"184 652 CURVE",
"194 664 LINE SMOOTH",
"212 686 OFFCURVE",
"270 746 OFFCURVE",
"294 746 CURVE SMOOTH",
"307 746 OFFCURVE",
"314 729 OFFCURVE",
"314 696 CURVE SMOOTH",
"314 671 OFFCURVE",
"310 644 OFFCURVE",
"302 616 CURVE",
"234 264 LINE SMOOTH",
"229 243 OFFCURVE",
"226 213 OFFCURVE",
"226 176 CURVE SMOOTH",
"226 72 OFFCURVE",
"283 0 OFFCURVE",
"374 0 CURVE SMOOTH",
"453 0 OFFCURVE",
"545 61 OFFCURVE",
"650 182 CURVE",
"650 70 OFFCURVE",
"705 0 OFFCURVE",
"798 0 CURVE SMOOTH",
"883 0 OFFCURVE",
"1012 100 OFFCURVE",
"1116 236 CURVE SMOOTH",
"1220 372 OFFCURVE",
"1302 570 OFFCURVE",
"1302 738 CURVE SMOOTH",
"1302 781 OFFCURVE",
"1293 819 OFFCURVE",
"1274 854 CURVE",
"1257 865 OFFCURVE",
"1235 870 OFFCURVE",
"1210 870 CURVE SMOOTH",
"1165 870 OFFCURVE",
"1128 828 OFFCURVE",
"1128 780 CURVE SMOOTH",
"1128 764 OFFCURVE",
"1138 740 OFFCURVE",
"1157 708 CURVE SMOOTH",
"1176 676 OFFCURVE",
"1186 646 OFFCURVE",
"1186 618 CURVE SMOOTH",
"1186 509 OFFCURVE",
"1109 332 OFFCURVE",
"1009 213 CURVE SMOOTH",
"959 154 OFFCURVE",
"914 124 OFFCURVE",
"874 124 CURVE SMOOTH",
"842 124 OFFCURVE",
"820 136 OFFCURVE",
"809 161 CURVE SMOOTH",
"798 186 OFFCURVE",
"792 230 OFFCURVE",
"792 294 CURVE SMOOTH",
"792 313 OFFCURVE",
"797 355 OFFCURVE",
"806 422 CURVE",
"861 571 OFFCURVE",
"888 689 OFFCURVE",
"888 776 CURVE SMOOTH",
"888 839 OFFCURVE",
"863 870 OFFCURVE",
"812 870 CURVE SMOOTH",
"776 870 OFFCURVE",
"749 837 OFFCURVE",
"732 770 CURVE SMOOTH",
"720 725 OFFCURVE",
"698 571 OFFCURVE",
"666 308 CURVE",
"594 201 OFFCURVE",
"509 124 OFFCURVE",
"450 124 CURVE SMOOTH",
"389 124 OFFCURVE",
"368 153 OFFCURVE",
"368 228 CURVE SMOOTH",
"368 248 OFFCURVE",
"373 290 OFFCURVE",
"384 354 CURVE SMOOTH",
"444 660 LINE SMOOTH",
"452 703 OFFCURVE",
"456 738 OFFCURVE",
"456 766 CURVE SMOOTH",
"456 827 OFFCURVE",
"431 870 OFFCURVE",
"388 870 CURVE SMOOTH"
);
}
);
width = 1264;
}
);
note = w;
unicode = 0077;
},
{
glyphname = x;
lastChange = "2021-05-07 10:00:43 +0000";
layers = (
{
layerId = "982A60EF-513A-498E-AE80-A9982858EA0F";
paths = (
{
closed = 1;
nodes = (
"333 870 OFFCURVE",
"220 747 OFFCURVE",
"212 702 CURVE",
"212 691 OFFCURVE",
"233 662 OFFCURVE",
"244 662 CURVE",
"263 697 OFFCURVE",
"316 750 OFFCURVE",
"356 750 CURVE SMOOTH",
"379 750 OFFCURVE",
"397 727 OFFCURVE",
"410 682 CURVE SMOOTH",
"492 414 LINE",
"334 142 LINE SMOOTH",
"314 107 OFFCURVE",
"296 90 OFFCURVE",
"280 90 CURVE SMOOTH",
"261 90 OFFCURVE",
"241 100 OFFCURVE",
"219 121 CURVE SMOOTH",
"197 142 OFFCURVE",
"177 152 OFFCURVE",
"160 152 CURVE SMOOTH",
"131 152 OFFCURVE",
"96 120 OFFCURVE",
"96 80 CURVE SMOOTH",
"96 64 OFFCURVE",
"101 47 OFFCURVE",
"112 28 CURVE",
"144 1 OFFCURVE",
"183 -12 OFFCURVE",
"228 -12 CURVE SMOOTH",
"296 -12 OFFCURVE",
"352 26 OFFCURVE",
"396 102 CURVE SMOOTH",
"522 320 LINE",
"568 164 LINE SMOOTH",
"603 48 OFFCURVE",
"648 -10 OFFCURVE",
"704 -10 CURVE SMOOTH",
"787 -10 OFFCURVE",
"900 113 OFFCURVE",
"908 158 CURVE",
"908 169 OFFCURVE",
"887 198 OFFCURVE",
"876 198 CURVE",
"857 163 OFFCURVE",
"804 110 OFFCURVE",
"764 110 CURVE SMOOTH",
"741 110 OFFCURVE",
"723 133 OFFCURVE",
"710 178 CURVE SMOOTH",
"624 460 LINE",
"774 716 LINE SMOOTH",
"794 751 OFFCURVE",
"812 768 OFFCURVE",
"828 768 CURVE SMOOTH",
"847 768 OFFCURVE",
"867 758 OFFCURVE",
"889 737 CURVE SMOOTH",
"911 716 OFFCURVE",
"931 706 OFFCURVE",
"948 706 CURVE SMOOTH",
"977 706 OFFCURVE",
"1012 738 OFFCURVE",
"1012 778 CURVE SMOOTH",
"1012 791 OFFCURVE",
"1007 809 OFFCURVE",
"996 830 CURVE",
"964 857 OFFCURVE",
"925 870 OFFCURVE",
"880 870 CURVE SMOOTH",
"812 870 OFFCURVE",
"756 832 OFFCURVE",
"712 756 CURVE SMOOTH",
"594 554 LINE",
"552 696 LINE SMOOTH",
"517 812 OFFCURVE",
"472 870 OFFCURVE",
"416 870 CURVE SMOOTH"
);
}
);
width = 952;
}
);
note = x;
unicode = 0078;
},
{
glyphname = y;
lastChange = "2021-05-07 10:00:43 +0000";
layers = (
{
layerId = "982A60EF-513A-498E-AE80-A9982858EA0F";
paths = (
{
closed = 1;
nodes = (
"365 870 OFFCURVE",
"220 738 OFFCURVE",
"204 698 CURVE",
"204 687 OFFCURVE",
"225 652 OFFCURVE",
"230 652 CURVE",
"257 687 OFFCURVE",
"316 746 OFFCURVE",
"340 746 CURVE SMOOTH",
"390 746 OFFCURVE",
"422 633 OFFCURVE",
"437 518 CURVE SMOOTH",
"454 382 OFFCURVE",
"460 255 OFFCURVE",
"460 124 CURVE SMOOTH",
"460 -9 OFFCURVE",
"445 -99 OFFCURVE",
"414 -144 CURVE SMOOTH",
"333 -263 OFFCURVE",
"237 -322 OFFCURVE",
"126 -322 CURVE SMOOTH",
"66 -322 OFFCURVE",
"21 -313 OFFCURVE",
"-8 -296 CURVE",
"-39 -312 OFFCURVE",
"-54 -341 OFFCURVE",
"-54 -384 CURVE SMOOTH",
"-54 -429 OFFCURVE",
"-3 -466 OFFCURVE",
"66 -466 CURVE SMOOTH",
"245 -466 OFFCURVE",
"577 -173 OFFCURVE",
"806 207 CURVE SMOOTH",
"921 397 OFFCURVE",
"978 565 OFFCURVE",
"978 712 CURVE SMOOTH",
"978 817 OFFCURVE",
"949 870 OFFCURVE",
"890 870 CURVE SMOOTH",
"841 870 OFFCURVE",
"807 841 OFFCURVE",
"790 784 CURVE",
"823 720 OFFCURVE",
"840 649 OFFCURVE",
"840 570 CURVE SMOOTH",
"840 410 OFFCURVE",
"710 184 OFFCURVE",
"606 56 CURVE",
"606 181 OFFCURVE",
"603 281 OFFCURVE",
"584 501 CURVE SMOOTH",
"575 611 OFFCURVE",
"557 700 OFFCURVE",
"531 768 CURVE SMOOTH",
"505 836 OFFCURVE",
"472 870 OFFCURVE",
"432 870 CURVE SMOOTH"
);
}
);
width = 958;
}
);
note = y;
unicode = 0079;
},
{
glyphname = z;
lastChange = "2021-05-07 10:00:43 +0000";
layers = (
{
layerId = "982A60EF-513A-498E-AE80-A9982858EA0F";
paths = (
{
closed = 1;
nodes = (
"330 870 OFFCURVE",
"233 721 OFFCURVE",
"212 652 CURVE",
"213 640 OFFCURVE",
"217 629 OFFCURVE",
"222 618 CURVE SMOOTH",
"227 607 OFFCURVE",
"233 605 OFFCURVE",
"240 612 CURVE SMOOTH",
"243 615 OFFCURVE",
"288 691 OFFCURVE",
"299 705 CURVE SMOOTH",
"319 730 OFFCURVE",
"343 748 OFFCURVE",
"364 748 CURVE SMOOTH",
"383 748 OFFCURVE",
"420 736 OFFCURVE",
"476 712 CURVE SMOOTH",
"532 688 OFFCURVE",
"579 676 OFFCURVE",
"616 676 CURVE SMOOTH",
"635 676 OFFCURVE",
"665 693 OFFCURVE",
"684 704 CURVE",
"696 714 LINE",
"548 554 LINE SMOOTH",
"448 447 OFFCURVE",
"348 339 OFFCURVE",
"249 230 CURVE SMOOTH",
"150 121 OFFCURVE",
"100 61 OFFCURVE",
"100 52 CURVE SMOOTH",
"100 17 OFFCURVE",
"108 0 OFFCURVE",
"124 0 CURVE SMOOTH",
"143 0 OFFCURVE",
"165 9 OFFCURVE",
"190 26 CURVE SMOOTH",
"215 43 OFFCURVE",
"237 52 OFFCURVE",
"256 52 CURVE SMOOTH",
"300 52 OFFCURVE",
"358 43 OFFCURVE",
"430 26 CURVE SMOOTH",
"502 9 OFFCURVE",
"545 0 OFFCURVE",
"558 0 CURVE SMOOTH",
"638 0 OFFCURVE",
"737 151 OFFCURVE",
"758 220 CURVE",
"757 231 OFFCURVE",
"753 241 OFFCURVE",
"747 252 CURVE SMOOTH",
"741 263 OFFCURVE",
"735 265 OFFCURVE",
"730 258 CURVE SMOOTH",
"728 256 OFFCURVE",
"677 175 OFFCURVE",
"669 165 CURVE SMOOTH",
"649 140 OFFCURVE",
"625 122 OFFCURVE",
"604 122 CURVE SMOOTH",
"585 122 OFFCURVE",
"548 134 OFFCURVE",
"492 158 CURVE SMOOTH",
"436 182 OFFCURVE",
"389 194 OFFCURVE",
"352 194 CURVE SMOOTH",
"343 194 OFFCURVE",
"270 156 OFFCURVE",
"270 158 CURVE",
"420 318 LINE SMOOTH",
"519 425 OFFCURVE",
"618 533 OFFCURVE",
"718 643 CURVE SMOOTH",
"818 753 OFFCURVE",
"868 812 OFFCURVE",
"868 820 CURVE SMOOTH",
"868 853 OFFCURVE",
"860 870 OFFCURVE",
"844 870 CURVE SMOOTH",
"825 870 OFFCURVE",
"803 862 OFFCURVE",
"778 845 CURVE SMOOTH",
"753 828 OFFCURVE",
"731 820 OFFCURVE",
"712 820 CURVE SMOOTH",
"668 820 OFFCURVE",
"610 828 OFFCURVE",
"538 845 CURVE SMOOTH",
"466 862 OFFCURVE",
"423 870 OFFCURVE",
"410 870 CURVE SMOOTH"
);
}
);
width = 808;
}
);
note = z;
unicode = 007A;
},
{
glyphname = uni1780;
lastChange = "2021-05-07 10:00:43 +0000";
layers = (
{
layerId = "982A60EF-513A-498E-AE80-A9982858EA0F";
paths = (
{
closed = 1;
nodes = (
"749 1043 OFFCURVE",
"750 1047 OFFCURVE",
"750 1052 CURVE SMOOTH",
"750 1069 OFFCURVE",
"735 1092 OFFCURVE",
"704 1122 CURVE SMOOTH",
"643 1180 LINE",
"825 1322 LINE",
"985 1139 LINE",
"1206 1334 LINE",
"1229 1299 OFFCURVE",
"1276 1257 OFFCURVE",
"1348 1208 CURVE SMOOTH",
"1421 1159 OFFCURVE",
"1481 1131 OFFCURVE",
"1528 1122 CURVE SMOOTH",
"1546 1119 OFFCURVE",
"1561 1117 OFFCURVE",
"1572 1117 CURVE SMOOTH",
"1591 1117 OFFCURVE",
"1600 1122 OFFCURVE",
"1600 1131 CURVE SMOOTH",
"1600 1146 OFFCURVE",
"1582 1169 OFFCURVE",
"1545 1200 CURVE SMOOTH",
"1508 1231 OFFCURVE",
"1466 1272 OFFCURVE",
"1418 1324 CURVE SMOOTH",
"1371 1376 OFFCURVE",
"1338 1418 OFFCURVE",
"1320 1451 CURVE SMOOTH",
"1302 1484 OFFCURVE",
"1283 1500 OFFCURVE",
"1262 1500 CURVE SMOOTH",
"1242 1500 OFFCURVE",
"1215 1485 OFFCURVE",
"1182 1455 CURVE SMOOTH",
"1131 1409 LINE",
"1028 1318 LINE",
"949 1409 LINE SMOOTH",
"895 1470 OFFCURVE",
"859 1500 OFFCURVE",
"841 1500 CURVE SMOOTH",
"823 1500 OFFCURVE",
"800 1483 OFFCURVE",
"771 1448 CURVE SMOOTH",
"743 1413 OFFCURVE",
"700 1372 OFFCURVE",
"642 1326 CURVE SMOOTH",
"583 1279 OFFCURVE",
"486 1218 OFFCURVE",
"350 1143 CURVE",
"418 1134 LINE SMOOTH",
"463 1129 OFFCURVE",
"508 1118 OFFCURVE",
"551 1103 CURVE SMOOTH",
"594 1088 OFFCURVE",
"634 1070 OFFCURVE",
"672 1048 CURVE SMOOTH",
"694 1035 OFFCURVE",
"712 1029 OFFCURVE",
"725 1029 CURVE SMOOTH",
"734 1029 OFFCURVE",
"741 1032 OFFCURVE",
"746 1039 CURVE SMOOTH"
);
},
{
closed = 1;
nodes = (
"676 834 OFFCURVE",
"781 850 OFFCURVE",
"900 850 CURVE SMOOTH",
"1061 850 OFFCURVE",
"1166 824 OFFCURVE",
"1217 772 CURVE SMOOTH",
"1243 747 OFFCURVE",
"1259 713 OFFCURVE",
"1265 670 CURVE SMOOTH",
"1267 655 OFFCURVE",
"1268 640 OFFCURVE",
"1268 624 CURVE SMOOTH",
"1268 593 OFFCURVE",
"1264 558 OFFCURVE",
"1256 519 CURVE SMOOTH",
"1163 75 LINE SMOOTH",
"1162 68 OFFCURVE",
"1161 62 OFFCURVE",
"1161 56 CURVE SMOOTH",
"1161 19 OFFCURVE",
"1191 0 OFFCURVE",
"1250 0 CURVE SMOOTH",
"1283 0 OFFCURVE",
"1304 17 OFFCURVE",
"1311 50 CURVE SMOOTH",
"1403 485 LINE SMOOTH",
"1414 538 OFFCURVE",
"1420 586 OFFCURVE",
"1420 630 CURVE SMOOTH",
"1420 658 OFFCURVE",
"1418 685 OFFCURVE",
"1413 710 CURVE SMOOTH",
"1401 775 OFFCURVE",
"1374 828 OFFCURVE",
"1331 871 CURVE SMOOTH",
"1289 914 OFFCURVE",
"1232 947 OFFCURVE",
"1160 968 CURVE SMOOTH",
"1088 989 OFFCURVE",
"1001 1000 OFFCURVE",
"900 1000 CURVE SMOOTH",
"794 1000 OFFCURVE",
"697 989 OFFCURVE",
"610 966 CURVE SMOOTH",
"523 944 OFFCURVE",
"445 910 OFFCURVE",
"376 865 CURVE SMOOTH",
"352 849 OFFCURVE",
"340 832 OFFCURVE",
"340 814 CURVE",
"386 814 OFFCURVE",
"417 802 OFFCURVE",
"434 779 CURVE SMOOTH",
"445 762 OFFCURVE",
"451 743 OFFCURVE",
"451 723 CURVE SMOOTH",
"451 716 OFFCURVE",
"450 708 OFFCURVE",
"449 700 CURVE SMOOTH",
"316 75 LINE SMOOTH",
"315 68 OFFCURVE",
"314 62 OFFCURVE",
"314 56 CURVE SMOOTH",
"314 19 OFFCURVE",
"343 0 OFFCURVE",
"400 0 CURVE SMOOTH",
"435 0 OFFCURVE",
"456 17 OFFCURVE",
"463 50 CURVE SMOOTH",
"598 679 LINE SMOOTH",
"601 694 OFFCURVE",
"603 709 OFFCURVE",
"603 724 CURVE SMOOTH",
"603 752 OFFCURVE",
"597 778 OFFCURVE",
"585 802 CURVE"
);
}
);
width = 1600;
}
);
note = uni1780;
unicode = 1780;
},
{
glyphname = uni1781;
lastChange = "2021-05-07 10:00:43 +0000";
layers = (
{
layerId = "982A60EF-513A-498E-AE80-A9982858EA0F";
paths = (
{
closed = 1;
nodes = (
"1243 693 OFFCURVE",
"1313 750 OFFCURVE",
"1364 812 CURVE SMOOTH",
"1416 874 OFFCURVE",
"1449 941 OFFCURVE",
"1464 1012 CURVE SMOOTH",
"1474 1059 OFFCURVE",
"1479 1102 OFFCURVE",
"1479 1143 CURVE SMOOTH",
"1479 1172 OFFCURVE",
"1476 1200 OFFCURVE",
"1471 1226 CURVE SMOOTH",
"1458 1287 OFFCURVE",
"1431 1337 OFFCURVE",
"1388 1378 CURVE SMOOTH",
"1345 1419 OFFCURVE",
"1287 1449 OFFCURVE",
"1214 1470 CURVE SMOOTH",
"1141 1490 OFFCURVE",
"1067 1500 OFFCURVE",
"990 1500 CURVE SMOOTH",
"863 1500 OFFCURVE",
"763 1473 OFFCURVE",
"688 1420 CURVE SMOOTH",
"613 1367 OFFCURVE",
"565 1287 OFFCURVE",
"542 1180 CURVE SMOOTH",
"534 1140 OFFCURVE",
"530 1104 OFFCURVE",
"530 1071 CURVE SMOOTH",
"530 1014 OFFCURVE",
"543 968 OFFCURVE",
"568 933 CURVE SMOOTH",
"608 878 OFFCURVE",
"679 850 OFFCURVE",
"782 850 CURVE SMOOTH",
"898 850 OFFCURVE",
"969 900 OFFCURVE",
"996 999 CURVE SMOOTH",
"1003 1026 OFFCURVE",
"1006 1050 OFFCURVE",
"1006 1071 CURVE SMOOTH",
"1006 1128 OFFCURVE",
"980 1166 OFFCURVE",
"929 1183 CURVE SMOOTH",
"907 1190 OFFCURVE",
"887 1193 OFFCURVE",
"870 1193 CURVE SMOOTH",
"831 1193 OFFCURVE",
"804 1175 OFFCURVE",
"789 1140 CURVE SMOOTH",
"780 1119 OFFCURVE",
"776 1101 OFFCURVE",
"776 1085 CURVE SMOOTH",
"776 1062 OFFCURVE",
"786 1044 OFFCURVE",
"805 1031 CURVE SMOOTH",
"818 1022 OFFCURVE",
"824 1016 OFFCURVE",
"824 1011 CURVE SMOOTH",
"824 1004 OFFCURVE",
"810 1000 OFFCURVE",
"782 1000 CURVE SMOOTH",
"741 1000 OFFCURVE",
"712 1013 OFFCURVE",
"697 1039 CURVE SMOOTH",
"688 1054 OFFCURVE",
"683 1074 OFFCURVE",
"683 1099 CURVE SMOOTH",
"683 1116 OFFCURVE",
"685 1134 OFFCURVE",
"689 1154 CURVE SMOOTH",
"703 1219 OFFCURVE",
"735 1268 OFFCURVE",
"785 1301 CURVE SMOOTH",
"835 1334 OFFCURVE",
"903 1350 OFFCURVE",
"990 1350 CURVE SMOOTH",
"1108 1350 OFFCURVE",
"1198 1324 OFFCURVE",
"1259 1273 CURVE SMOOTH",
"1290 1248 OFFCURVE",
"1310 1216 OFFCURVE",
"1320 1177 CURVE SMOOTH",
"1325 1159 OFFCURVE",
"1327 1139 OFFCURVE",
"1327 1118 CURVE SMOOTH",
"1327 1094 OFFCURVE",
"1324 1068 OFFCURVE",
"1318 1041 CURVE SMOOTH",
"1307 991 OFFCURVE",
"1283 944 OFFCURVE",
"1244 899 CURVE SMOOTH",
"1205 855 OFFCURVE",
"1152 813 OFFCURVE",
"1085 774 CURVE SMOOTH",
"440 390 LINE SMOOTH",
"395 361 OFFCURVE",
"370 330 OFFCURVE",
"363 297 CURVE SMOOTH",
"358 274 OFFCURVE",
"355 257 OFFCURVE",
"355 244 CURVE SMOOTH",
"355 239 OFFCURVE",
"356 234 OFFCURVE",
"357 231 CURVE SMOOTH",
"371 189 OFFCURVE",
"420 140 OFFCURVE",
"505 84 CURVE SMOOTH",
"590 28 OFFCURVE",
"675 0 OFFCURVE",
"760 0 CURVE SMOOTH",
"867 0 OFFCURVE",
"980 59 OFFCURVE",
"1099 176 CURVE SMOOTH",
"1216 298 OFFCURVE",
"1292 402 OFFCURVE",
"1328 487 CURVE SMOOTH",
"1363 572 OFFCURVE",
"1385 633 OFFCURVE",
"1393 670 CURVE SMOOTH",
"1397 689 OFFCURVE",
"1399 703 OFFCURVE",
"1399 714 CURVE SMOOTH",
"1399 725 OFFCURVE",
"1397 732 OFFCURVE",
"1393 735 CURVE",
"1391 735 LINE SMOOTH",
"1380 735 OFFCURVE",
"1347 697 OFFCURVE",
"1290 620 CURVE SMOOTH",
"1229 538 OFFCURVE",
"1133 429 OFFCURVE",
"1000 292 CURVE SMOOTH",
"907 197 OFFCURVE",
"827 150 OFFCURVE",
"760 150 CURVE SMOOTH",
"706 150 OFFCURVE",
"661 162 OFFCURVE",
"624 187 CURVE SMOOTH",
"587 211 OFFCURVE",
"553 236 OFFCURVE",
"524 262 CURVE",
"1155 640 LINE SMOOTH"
);
}
);
width = 1540;
}
);
note = uni1781;
unicode = 1781;
},
{
glyphname = uni1782;
lastChange = "2021-05-07 10:00:43 +0000";
layers = (
{
layerId = "982A60EF-513A-498E-AE80-A9982858EA0F";
paths = (
{
closed = 1;
nodes = (
"694 1035 OFFCURVE",
"712 1029 OFFCURVE",
"725 1029 CURVE SMOOTH",
"734 1029 OFFCURVE",
"741 1032 OFFCURVE",
"746 1039 CURVE SMOOTH",
"749 1043 OFFCURVE",
"750 1047 OFFCURVE",
"750 1052 CURVE SMOOTH",
"750 1069 OFFCURVE",
"735 1092 OFFCURVE",
"704 1122 CURVE SMOOTH",
"643 1180 LINE",
"825 1322 LINE",
"985 1139 LINE",
"1206 1334 LINE",
"1229 1299 OFFCURVE",
"1276 1257 OFFCURVE",
"1348 1208 CURVE SMOOTH",
"1421 1159 OFFCURVE",
"1481 1131 OFFCURVE",
"1528 1122 CURVE SMOOTH",
"1546 1119 OFFCURVE",
"1561 1117 OFFCURVE",
"1572 1117 CURVE SMOOTH",
"1591 1117 OFFCURVE",
"1600 1122 OFFCURVE",
"1600 1131 CURVE SMOOTH",
"1600 1146 OFFCURVE",
"1582 1169 OFFCURVE",
"1545 1200 CURVE SMOOTH",
"1508 1231 OFFCURVE",
"1466 1272 OFFCURVE",
"1418 1324 CURVE SMOOTH",
"1371 1376 OFFCURVE",
"1338 1418 OFFCURVE",
"1320 1451 CURVE SMOOTH",
"1302 1484 OFFCURVE",
"1283 1500 OFFCURVE",
"1262 1500 CURVE SMOOTH",
"1242 1500 OFFCURVE",
"1215 1485 OFFCURVE",
"1182 1455 CURVE SMOOTH",
"1131 1409 LINE",
"1028 1318 LINE",
"949 1409 LINE SMOOTH",
"895 1470 OFFCURVE",
"859 1500 OFFCURVE",
"841 1500 CURVE SMOOTH",
"823 1500 OFFCURVE",
"800 1483 OFFCURVE",
"771 1448 CURVE SMOOTH",
"743 1413 OFFCURVE",
"700 1372 OFFCURVE",
"642 1326 CURVE SMOOTH",
"583 1279 OFFCURVE",
"486 1218 OFFCURVE",
"350 1143 CURVE",
"418 1134 LINE SMOOTH",
"463 1129 OFFCURVE",
"508 1118 OFFCURVE",
"551 1103 CURVE SMOOTH",
"594 1088 OFFCURVE",
"634 1070 OFFCURVE",
"672 1048 CURVE SMOOTH"
);
},
{
closed = 1;
nodes = (
"614 204 LINE SMOOTH",
"702 301 OFFCURVE",
"755 350 OFFCURVE",
"773 350 CURVE SMOOTH",
"791 350 OFFCURVE",
"800 333 OFFCURVE",
"800 300 CURVE",
"900 300 OFFCURVE",
"950 333 OFFCURVE",
"950 400 CURVE SMOOTH",
"950 467 OFFCURVE",
"900 500 OFFCURVE",
"800 500 CURVE SMOOTH",
"720 500 OFFCURVE",
"627 442 OFFCURVE",
"522 326 CURVE",
"598 679 LINE SMOOTH",
"609 731 OFFCURVE",
"637 773 OFFCURVE",
"683 804 CURVE SMOOTH",
"730 835 OFFCURVE",
"802 850 OFFCURVE",
"900 850 CURVE SMOOTH",
"1061 850 OFFCURVE",
"1166 824 OFFCURVE",
"1217 772 CURVE SMOOTH",
"1243 747 OFFCURVE",
"1259 713 OFFCURVE",
"1265 670 CURVE SMOOTH",
"1267 655 OFFCURVE",
"1268 640 OFFCURVE",
"1268 624 CURVE SMOOTH",
"1268 593 OFFCURVE",
"1264 558 OFFCURVE",
"1256 519 CURVE SMOOTH",
"1210 297 LINE SMOOTH",
"1194 223 OFFCURVE",
"1170 182 OFFCURVE",
"1138 173 CURVE SMOOTH",
"1106 164 OFFCURVE",
"1085 145 OFFCURVE",
"1075 115 CURVE SMOOTH",
"1073 108 OFFCURVE",
"1072 102 OFFCURVE",
"1072 95 CURVE SMOOTH",
"1072 73 OFFCURVE",
"1085 53 OFFCURVE",
"1110 35 CURVE SMOOTH",
"1143 12 OFFCURVE",
"1183 0 OFFCURVE",
"1230 0 CURVE SMOOTH",
"1277 0 OFFCURVE",
"1307 33 OFFCURVE",
"1322 100 CURVE SMOOTH",
"1403 485 LINE SMOOTH",
"1414 538 OFFCURVE",
"1420 586 OFFCURVE",
"1420 630 CURVE SMOOTH",
"1420 658 OFFCURVE",
"1418 685 OFFCURVE",
"1413 710 CURVE SMOOTH",
"1401 775 OFFCURVE",
"1374 828 OFFCURVE",
"1331 871 CURVE SMOOTH",
"1289 914 OFFCURVE",
"1232 947 OFFCURVE",
"1160 968 CURVE SMOOTH",
"1088 989 OFFCURVE",
"1001 1000 OFFCURVE",
"900 1000 CURVE SMOOTH",
"771 1000 OFFCURVE",
"668 975 OFFCURVE",
"593 925 CURVE SMOOTH",
"518 875 OFFCURVE",
"470 800 OFFCURVE",
"449 700 CURVE SMOOTH",
"316 75 LINE SMOOTH",
"315 68 OFFCURVE",
"314 62 OFFCURVE",
"314 56 CURVE SMOOTH",
"314 19 OFFCURVE",
"343 0 OFFCURVE",
"400 0 CURVE SMOOTH",
"422 0 OFFCURVE",
"449 19 OFFCURVE",
"482 57 CURVE SMOOTH"
);
}
);
width = 1600;
}
);
note = uni1782;
unicode = 1782;
},
{
glyphname = uni1783;
lastChange = "2021-05-07 10:00:43 +0000";
layers = (
{
layerId = "982A60EF-513A-498E-AE80-A9982858EA0F";
paths = (
{
closed = 1;
nodes = (
"1370 10 OFFCURVE",
"1450 0 OFFCURVE",
"1547 0 CURVE SMOOTH",
"1680 0 OFFCURVE",
"1787 29 OFFCURVE",
"1866 88 CURVE SMOOTH",
"1945 146 OFFCURVE",
"1996 233 OFFCURVE",
"2021 350 CURVE SMOOTH",
"2138 900 LINE SMOOTH",
"2142 920 OFFCURVE",
"2144 940 OFFCURVE",
"2144 959 CURVE SMOOTH",
"2144 994 OFFCURVE",
"2137 1027 OFFCURVE",
"2123 1058 CURVE SMOOTH",
"2101 1106 OFFCURVE",
"2062 1149 OFFCURVE",
"2005 1188 CURVE",
"2096 1286 LINE",
"2129 1247 OFFCURVE",
"2169 1228 OFFCURVE",
"2215 1228 CURVE SMOOTH",
"2224 1228 LINE SMOOTH",
"2274 1230 OFFCURVE",
"2316 1243 OFFCURVE",
"2350 1266 CURVE SMOOTH",
"2400 1300 LINE",
"2393 1299 OFFCURVE",
"2387 1299 OFFCURVE",
"2380 1299 CURVE SMOOTH",
"2339 1299 OFFCURVE",
"2299 1313 OFFCURVE",
"2258 1342 CURVE SMOOTH",
"2210 1375 OFFCURVE",
"2162 1428 OFFCURVE",
"2114 1500 CURVE",
"2086 1451 OFFCURVE",
"2042 1394 OFFCURVE",
"1983 1327 CURVE SMOOTH",
"1924 1260 OFFCURVE",
"1845 1198 OFFCURVE",
"1747 1141 CURVE",
"1836 1136 OFFCURVE",
"1902 1111 OFFCURVE",
"1944 1066 CURVE SMOOTH",
"1978 1029 OFFCURVE",
"1995 993 OFFCURVE",
"1995 957 CURVE SMOOTH",
"1995 949 OFFCURVE",
"1994 941 OFFCURVE",
"1992 933 CURVE SMOOTH",
"1874 375 LINE SMOOTH",
"1858 300 OFFCURVE",
"1823 244 OFFCURVE",
"1768 206 CURVE SMOOTH",
"1713 169 OFFCURVE",
"1640 150 OFFCURVE",
"1547 150 CURVE SMOOTH",
"1442 150 OFFCURVE",
"1367 167 OFFCURVE",
"1322 200 CURVE SMOOTH",
"1287 226 OFFCURVE",
"1269 262 OFFCURVE",
"1269 307 CURVE SMOOTH",
"1269 320 OFFCURVE",
"1271 335 OFFCURVE",
"1274 350 CURVE SMOOTH",
"1391 900 LINE SMOOTH",
"1395 920 OFFCURVE",
"1397 940 OFFCURVE",
"1397 959 CURVE SMOOTH",
"1397 994 OFFCURVE",
"1390 1027 OFFCURVE",
"1376 1058 CURVE SMOOTH",
"1354 1106 OFFCURVE",
"1315 1149 OFFCURVE",
"1258 1188 CURVE",
"1349 1286 LINE",
"1382 1248 OFFCURVE",
"1430 1229 OFFCURVE",
"1493 1229 CURVE SMOOTH",
"1508 1229 LINE SMOOTH",
"1579 1232 OFFCURVE",
"1643 1269 OFFCURVE",
"1700 1340 CURVE",
"1669 1327 OFFCURVE",
"1639 1321 OFFCURVE",
"1611 1321 CURVE SMOOTH",
"1579 1321 OFFCURVE",
"1549 1329 OFFCURVE",
"1520 1346 CURVE SMOOTH",
"1466 1377 OFFCURVE",
"1415 1428 OFFCURVE",
"1367 1500 CURVE",
"1339 1451 OFFCURVE",
"1295 1394 OFFCURVE",
"1236 1327 CURVE SMOOTH",
"1177 1260 OFFCURVE",
"1098 1198 OFFCURVE",
"1000 1141 CURVE",
"1089 1136 OFFCURVE",
"1155 1111 OFFCURVE",
"1197 1066 CURVE SMOOTH",
"1231 1029 OFFCURVE",
"1248 993 OFFCURVE",
"1248 957 CURVE SMOOTH",
"1248 949 OFFCURVE",
"1247 941 OFFCURVE",
"1245 933 CURVE SMOOTH",
"1122 356 LINE",
"1103 287 OFFCURVE",
"1067 236 OFFCURVE",
"1014 201 CURVE SMOOTH",
"960 167 OFFCURVE",
"889 150 OFFCURVE",
"800 150 CURVE SMOOTH",
"695 150 OFFCURVE",
"620 167 OFFCURVE",
"575 200 CURVE SMOOTH",
"540 226 OFFCURVE",
"522 262 OFFCURVE",
"522 307 CURVE SMOOTH",
"522 320 OFFCURVE",
"524 335 OFFCURVE",
"527 350 CURVE SMOOTH",
"718 1247 LINE SMOOTH",
"725 1278 OFFCURVE",
"728 1306 OFFCURVE",
"728 1331 CURVE SMOOTH",
"728 1375 OFFCURVE",
"718 1410 OFFCURVE",
"698 1437 CURVE SMOOTH",
"667 1479 OFFCURVE",
"611 1500 OFFCURVE",
"530 1500 CURVE SMOOTH",
"460 1500 OFFCURVE",
"404 1483 OFFCURVE",
"362 1449 CURVE SMOOTH",
"320 1415 OFFCURVE",
"292 1364 OFFCURVE",
"277 1295 CURVE SMOOTH",
"270 1265 OFFCURVE",
"267 1237 OFFCURVE",
"267 1212 CURVE SMOOTH",
"267 1160 OFFCURVE",
"280 1118 OFFCURVE",
"307 1085 CURVE SMOOTH",
"346 1036 OFFCURVE",
"415 1008 OFFCURVE",
"513 1001 CURVE",
"379 375 LINE SMOOTH",
"372 341 OFFCURVE",
"368 309 OFFCURVE",
"368 280 CURVE SMOOTH",
"368 202 OFFCURVE",
"394 140 OFFCURVE",
"445 94 CURVE SMOOTH",
"515 31 OFFCURVE",
"633 0 OFFCURVE",
"800 0 CURVE SMOOTH",
"880 0 OFFCURVE",
"950 10 OFFCURVE",
"1010 31 CURVE SMOOTH",
"1071 52 OFFCURVE",
"1121 84 OFFCURVE",
"1162 126 CURVE",
"1194 84 OFFCURVE",
"1242 52 OFFCURVE",
"1306 31 CURVE SMOOTH"
);
},
{
closed = 1;
nodes = (
"497 1152 OFFCURVE",
"463 1161 OFFCURVE",
"442 1178 CURVE SMOOTH",
"427 1191 OFFCURVE",
"420 1207 OFFCURVE",
"420 1228 CURVE SMOOTH",
"420 1235 OFFCURVE",
"421 1242 OFFCURVE",
"422 1250 CURVE SMOOTH",
"436 1317 OFFCURVE",
"472 1350 OFFCURVE",
"530 1350 CURVE SMOOTH",
"559 1350 OFFCURVE",
"573 1334 OFFCURVE",
"573 1302 CURVE SMOOTH",
"573 1291 OFFCURVE",
"572 1279 OFFCURVE",
"569 1266 CURVE SMOOTH",
"545 1150 LINE"
);
}
);
width = 2250;
}
);
note = uni1783;
unicode = 1783;
},
{
glyphname = uni1784;
lastChange = "2021-05-07 10:00:43 +0000";
layers = (
{
layerId = "982A60EF-513A-498E-AE80-A9982858EA0F";
paths = (
{
closed = 1;
nodes = (
"1090 1090 OFFCURVE",
"1110 1079 OFFCURVE",
"1131 1068 CURVE SMOOTH",
"1214 1025 OFFCURVE",
"1266 972 OFFCURVE",
"1287 907 CURVE SMOOTH",
"1302 860 OFFCURVE",
"1309 820 OFFCURVE",
"1309 786 CURVE SMOOTH",
"1309 773 OFFCURVE",
"1308 761 OFFCURVE",
"1306 750 CURVE SMOOTH",
"1182 167 LINE",
"868 435 LINE",
"498 208 LINE",
"607 721 LINE SMOOTH",
"620 780 OFFCURVE",
"626 829 OFFCURVE",
"626 868 CURVE SMOOTH",
"626 903 OFFCURVE",
"621 929 OFFCURVE",
"610 946 CURVE SMOOTH",
"587 982 OFFCURVE",
"551 1000 OFFCURVE",
"500 1000 CURVE SMOOTH",
"433 1000 OFFCURVE",
"395 975 OFFCURVE",
"385 925 CURVE SMOOTH",
"383 914 OFFCURVE",
"382 903 OFFCURVE",
"382 893 CURVE SMOOTH",
"382 860 OFFCURVE",
"395 838 OFFCURVE",
"420 825 CURVE SMOOTH",
"447 812 OFFCURVE",
"461 792 OFFCURVE",
"461 765 CURVE SMOOTH",
"461 760 OFFCURVE",
"460 754 OFFCURVE",
"459 747 CURVE SMOOTH",
"321 100 LINE SMOOTH",
"318 86 OFFCURVE",
"317 73 OFFCURVE",
"317 62 CURVE SMOOTH",
"317 21 OFFCURVE",
"337 0 OFFCURVE",
"377 0 CURVE SMOOTH",
"428 0 OFFCURVE",
"486 21 OFFCURVE",
"553 63 CURVE SMOOTH",
"853 250 LINE",
"1074 63 LINE SMOOTH",
"1123 21 OFFCURVE",
"1173 0 OFFCURVE",
"1224 0 CURVE SMOOTH",
"1275 0 OFFCURVE",
"1307 33 OFFCURVE",
"1321 100 CURVE SMOOTH",
"1454 725 LINE SMOOTH",
"1459 752 OFFCURVE",
"1462 779 OFFCURVE",
"1462 806 CURVE SMOOTH",
"1462 861 OFFCURVE",
"1451 917 OFFCURVE",
"1429 975 CURVE SMOOTH",
"1398 1055 OFFCURVE",
"1346 1114 OFFCURVE",
"1273 1153 CURVE",
"1324 1182 OFFCURVE",
"1355 1223 OFFCURVE",
"1367 1275 CURVE SMOOTH",
"1373 1302 OFFCURVE",
"1376 1326 OFFCURVE",
"1376 1348 CURVE SMOOTH",
"1376 1388 OFFCURVE",
"1366 1420 OFFCURVE",
"1346 1444 CURVE SMOOTH",
"1315 1481 OFFCURVE",
"1259 1500 OFFCURVE",
"1180 1500 CURVE SMOOTH",
"1063 1500 OFFCURVE",
"994 1469 OFFCURVE",
"975 1407 CURVE SMOOTH",
"965 1375 OFFCURVE",
"960 1344 OFFCURVE",
"960 1313 CURVE SMOOTH",
"960 1292 OFFCURVE",
"962 1272 OFFCURVE",
"967 1251 CURVE",
"886 1254 OFFCURVE",
"827 1269 OFFCURVE",
"792 1298 CURVE SMOOTH",
"765 1319 OFFCURVE",
"752 1348 OFFCURVE",
"752 1383 CURVE SMOOTH",
"752 1395 OFFCURVE",
"753 1407 OFFCURVE",
"756 1420 CURVE SMOOTH",
"768 1475 OFFCURVE",
"800 1522 OFFCURVE",
"853 1563 CURVE SMOOTH",
"906 1604 OFFCURVE",
"994 1637 OFFCURVE",
"1117 1661 CURVE",
"1276 1700 OFFCURVE",
"1391 1750 OFFCURVE",
"1462 1811 CURVE SMOOTH",
"1533 1873 OFFCURVE",
"1578 1949 OFFCURVE",
"1597 2038 CURVE SMOOTH",
"1600 2051 OFFCURVE",
"1602 2062 OFFCURVE",
"1602 2072 CURVE SMOOTH",
"1602 2085 OFFCURVE",
"1599 2097 OFFCURVE",
"1594 2106 CURVE SMOOTH",
"1585 2123 OFFCURVE",
"1569 2134 OFFCURVE",
"1544 2139 CURVE SMOOTH",
"1537 2140 OFFCURVE",
"1529 2141 OFFCURVE",
"1522 2141 CURVE SMOOTH",
"1507 2141 OFFCURVE",
"1494 2137 OFFCURVE",
"1483 2129 CURVE SMOOTH",
"1468 2117 OFFCURVE",
"1456 2097 OFFCURVE",
"1449 2068 CURVE SMOOTH",
"1436 2009 OFFCURVE",
"1404 1957 OFFCURVE",
"1352 1914 CURVE SMOOTH",
"1300 1871 OFFCURVE",
"1210 1834 OFFCURVE",
"1082 1803 CURVE",
"927 1772 OFFCURVE",
"814 1726 OFFCURVE",
"743 1666 CURVE SMOOTH",
"672 1607 OFFCURVE",
"627 1535 OFFCURVE",
"609 1451 CURVE SMOOTH",
"602 1419 OFFCURVE",
"599 1389 OFFCURVE",
"599 1361 CURVE SMOOTH",
"599 1288 OFFCURVE",
"622 1231 OFFCURVE",
"669 1188 CURVE SMOOTH",
"734 1129 OFFCURVE",
"845 1100 OFFCURVE",
"1000 1100 CURVE SMOOTH",
"1026 1100 OFFCURVE",
"1050 1101 OFFCURVE",
"1073 1102 CURVE"
);
},
{
closed = 1;
nodes = (
"1106 1274 OFFCURVE",
"1102 1291 OFFCURVE",
"1102 1308 CURVE SMOOTH",
"1102 1319 OFFCURVE",
"1104 1329 OFFCURVE",
"1107 1340 CURVE SMOOTH",
"1116 1367 OFFCURVE",
"1140 1380 OFFCURVE",
"1180 1380 CURVE SMOOTH",
"1222 1380 OFFCURVE",
"1243 1365 OFFCURVE",
"1243 1334 CURVE SMOOTH",
"1243 1328 OFFCURVE",
"1242 1322 OFFCURVE",
"1241 1315 CURVE SMOOTH",
"1234 1284 OFFCURVE",
"1192 1265 OFFCURVE",
"1114 1256 CURVE"
);
}
);
width = 1600;
}
);
note = uni1784;
unicode = 1784;
},
{
glyphname = uni1785;
lastChange = "2021-05-07 10:00:43 +0000";
layers = (
{
layerId = "982A60EF-513A-498E-AE80-A9982858EA0F";
paths = (
{
closed = 1;
nodes = (
"694 1035 OFFCURVE",
"712 1029 OFFCURVE",
"725 1029 CURVE SMOOTH",
"734 1029 OFFCURVE",
"741 1032 OFFCURVE",
"746 1039 CURVE SMOOTH",
"749 1043 OFFCURVE",
"750 1047 OFFCURVE",
"750 1052 CURVE SMOOTH",
"750 1069 OFFCURVE",
"735 1092 OFFCURVE",
"704 1122 CURVE SMOOTH",
"643 1180 LINE",
"825 1322 LINE",
"985 1139 LINE",
"1206 1334 LINE",
"1229 1299 OFFCURVE",
"1276 1257 OFFCURVE",
"1348 1208 CURVE SMOOTH",
"1421 1159 OFFCURVE",
"1481 1131 OFFCURVE",
"1528 1122 CURVE SMOOTH",
"1546 1119 OFFCURVE",
"1561 1117 OFFCURVE",
"1572 1117 CURVE SMOOTH",
"1591 1117 OFFCURVE",
"1600 1122 OFFCURVE",
"1600 1131 CURVE SMOOTH",
"1600 1146 OFFCURVE",
"1582 1169 OFFCURVE",
"1545 1200 CURVE SMOOTH",
"1508 1231 OFFCURVE",
"1466 1272 OFFCURVE",
"1418 1324 CURVE SMOOTH",
"1371 1376 OFFCURVE",
"1338 1418 OFFCURVE",
"1320 1451 CURVE SMOOTH",
"1302 1484 OFFCURVE",
"1283 1500 OFFCURVE",
"1262 1500 CURVE SMOOTH",
"1242 1500 OFFCURVE",
"1215 1485 OFFCURVE",
"1182 1455 CURVE SMOOTH",
"1131 1409 LINE",
"1028 1318 LINE",
"949 1409 LINE SMOOTH",
"895 1470 OFFCURVE",
"859 1500 OFFCURVE",
"841 1500 CURVE SMOOTH",
"823 1500 OFFCURVE",
"800 1483 OFFCURVE",
"771 1448 CURVE SMOOTH",
"743 1413 OFFCURVE",
"700 1372 OFFCURVE",
"642 1326 CURVE SMOOTH",
"583 1279 OFFCURVE",
"486 1218 OFFCURVE",
"350 1143 CURVE",
"418 1134 LINE SMOOTH",
"463 1129 OFFCURVE",
"508 1118 OFFCURVE",
"551 1103 CURVE SMOOTH",
"594 1088 OFFCURVE",
"634 1070 OFFCURVE",
"672 1048 CURVE SMOOTH"
);
},
{
closed = 1;
nodes = (
"640 874 OFFCURVE",
"642 896 OFFCURVE",
"642 915 CURVE SMOOTH",
"642 950 OFFCURVE",
"634 979 OFFCURVE",
"617 1000 CURVE SMOOTH",
"598 1024 OFFCURVE",
"569 1036 OFFCURVE",
"530 1036 CURVE SMOOTH",
"517 1036 OFFCURVE",
"504 1035 OFFCURVE",
"489 1032 CURVE SMOOTH",
"430 1021 OFFCURVE",
"400 994 OFFCURVE",
"400 953 CURVE SMOOTH",
"400 912 OFFCURVE",
"413 881 OFFCURVE",
"438 860 CURVE SMOOTH",
"454 847 OFFCURVE",
"462 823 OFFCURVE",
"462 789 CURVE SMOOTH",
"462 769 OFFCURVE",
"459 745 OFFCURVE",
"453 717 CURVE SMOOTH",
"380 375 LINE SMOOTH",
"374 346 OFFCURVE",
"371 319 OFFCURVE",
"371 293 CURVE SMOOTH",
"371 267 OFFCURVE",
"374 242 OFFCURVE",
"380 219 CURVE SMOOTH",
"393 173 OFFCURVE",
"418 133 OFFCURVE",
"455 100 CURVE SMOOTH",
"529 33 OFFCURVE",
"655 0 OFFCURVE",
"832 0 CURVE SMOOTH",
"988 0 OFFCURVE",
"1111 29 OFFCURVE",
"1202 88 CURVE SMOOTH",
"1292 146 OFFCURVE",
"1349 233 OFFCURVE",
"1374 350 CURVE SMOOTH",
"1491 898 LINE SMOOTH",
"1493 906 OFFCURVE",
"1494 914 OFFCURVE",
"1494 921 CURVE SMOOTH",
"1494 944 OFFCURVE",
"1485 962 OFFCURVE",
"1467 975 CURVE SMOOTH",
"1444 992 OFFCURVE",
"1405 1000 OFFCURVE",
"1350 1000 CURVE SMOOTH",
"1303 1000 OFFCURVE",
"1267 983 OFFCURVE",
"1240 950 CURVE SMOOTH",
"1213 917 OFFCURVE",
"1200 875 OFFCURVE",
"1200 825 CURVE SMOOTH",
"1200 775 OFFCURVE",
"1232 733 OFFCURVE",
"1295 700 CURVE",
"1225 371 LINE SMOOTH",
"1210 302 OFFCURVE",
"1173 248 OFFCURVE",
"1112 209 CURVE SMOOTH",
"1051 170 OFFCURVE",
"958 150 OFFCURVE",
"832 150 CURVE SMOOTH",
"694 150 OFFCURVE",
"605 167 OFFCURVE",
"566 202 CURVE SMOOTH",
"537 228 OFFCURVE",
"523 262 OFFCURVE",
"523 304 CURVE SMOOTH",
"523 318 OFFCURVE",
"525 333 OFFCURVE",
"528 350 CURVE SMOOTH",
"635 851 LINE SMOOTH"
);
}
);
width = 1600;
}
);
note = uni1785;
unicode = 1785;
},
{
glyphname = uni1786;
lastChange = "2021-05-07 10:00:43 +0000";
layers = (
{
layerId = "982A60EF-513A-498E-AE80-A9982858EA0F";
paths = (
{
closed = 1;
nodes = (
"694 1035 OFFCURVE",
"712 1029 OFFCURVE",
"725 1029 CURVE SMOOTH",
"734 1029 OFFCURVE",
"741 1032 OFFCURVE",
"746 1039 CURVE SMOOTH",
"749 1043 OFFCURVE",
"750 1047 OFFCURVE",
"750 1052 CURVE SMOOTH",
"750 1069 OFFCURVE",
"735 1092 OFFCURVE",
"704 1122 CURVE SMOOTH",
"643 1180 LINE",
"825 1322 LINE",
"985 1139 LINE",
"1206 1334 LINE",
"1229 1299 OFFCURVE",
"1276 1257 OFFCURVE",
"1348 1208 CURVE SMOOTH",
"1421 1159 OFFCURVE",
"1481 1131 OFFCURVE",
"1528 1122 CURVE SMOOTH",
"1546 1119 OFFCURVE",
"1561 1117 OFFCURVE",
"1572 1117 CURVE SMOOTH",
"1591 1117 OFFCURVE",
"1600 1122 OFFCURVE",
"1600 1131 CURVE SMOOTH",
"1600 1146 OFFCURVE",
"1582 1169 OFFCURVE",
"1545 1200 CURVE SMOOTH",
"1508 1231 OFFCURVE",
"1466 1272 OFFCURVE",
"1418 1324 CURVE SMOOTH",
"1371 1376 OFFCURVE",
"1338 1418 OFFCURVE",
"1320 1451 CURVE SMOOTH",
"1302 1484 OFFCURVE",
"1283 1500 OFFCURVE",
"1262 1500 CURVE SMOOTH",
"1242 1500 OFFCURVE",
"1215 1485 OFFCURVE",
"1182 1455 CURVE SMOOTH",
"1131 1409 LINE",
"1028 1318 LINE",
"949 1409 LINE SMOOTH",
"895 1470 OFFCURVE",
"859 1500 OFFCURVE",
"841 1500 CURVE SMOOTH",
"823 1500 OFFCURVE",
"800 1483 OFFCURVE",
"771 1448 CURVE SMOOTH",
"743 1413 OFFCURVE",
"700 1372 OFFCURVE",
"642 1326 CURVE SMOOTH",
"583 1279 OFFCURVE",
"486 1218 OFFCURVE",
"350 1143 CURVE",
"418 1134 LINE SMOOTH",
"463 1129 OFFCURVE",
"508 1118 OFFCURVE",
"551 1103 CURVE SMOOTH",
"594 1088 OFFCURVE",
"634 1070 OFFCURVE",
"672 1048 CURVE SMOOTH"
);
},
{
closed = 1;
nodes = (
"942 491 OFFCURVE",
"938 502 OFFCURVE",
"938 516 CURVE SMOOTH",
"938 522 OFFCURVE",
"939 529 OFFCURVE",
"941 537 CURVE SMOOTH",
"950 577 OFFCURVE",
"966 606 OFFCURVE",
"989 625 CURVE SMOOTH",
"1010 642 OFFCURVE",
"1037 650 OFFCURVE",
"1070 650 CURVE SMOOTH",
"1135 650 OFFCURVE",
"1182 631 OFFCURVE",
"1209 592 CURVE SMOOTH",
"1228 565 OFFCURVE",
"1238 527 OFFCURVE",
"1238 480 CURVE SMOOTH",
"1238 448 OFFCURVE",
"1234 412 OFFCURVE",
"1225 371 CURVE SMOOTH",
"1210 302 OFFCURVE",
"1173 248 OFFCURVE",
"1112 209 CURVE SMOOTH",
"1051 170 OFFCURVE",
"991 150 OFFCURVE",
"930 150 CURVE SMOOTH",
"849 150 OFFCURVE",
"793 163 OFFCURVE",
"764 188 CURVE SMOOTH",
"677 263 OFFCURVE",
"605 300 OFFCURVE",
"550 300 CURVE SMOOTH",
"539 300 OFFCURVE",
"528 299 OFFCURVE",
"517 298 CURVE",
"635 851 LINE SMOOTH",
"640 874 OFFCURVE",
"642 896 OFFCURVE",
"642 915 CURVE SMOOTH",
"642 950 OFFCURVE",
"634 979 OFFCURVE",
"617 1000 CURVE SMOOTH",
"598 1024 OFFCURVE",
"569 1036 OFFCURVE",
"530 1036 CURVE SMOOTH",
"517 1036 OFFCURVE",
"504 1035 OFFCURVE",
"489 1032 CURVE SMOOTH",
"430 1021 OFFCURVE",
"400 994 OFFCURVE",
"400 953 CURVE SMOOTH",
"400 912 OFFCURVE",
"413 881 OFFCURVE",
"438 860 CURVE SMOOTH",
"454 847 OFFCURVE",
"462 823 OFFCURVE",
"462 789 CURVE SMOOTH",
"462 769 OFFCURVE",
"459 745 OFFCURVE",
"453 717 CURVE SMOOTH",
"321 99 LINE SMOOTH",
"318 88 OFFCURVE",
"317 77 OFFCURVE",
"317 68 CURVE SMOOTH",
"317 23 OFFCURVE",
"345 0 OFFCURVE",
"400 0 CURVE SMOOTH",
"435 0 OFFCURVE",
"460 33 OFFCURVE",
"475 98 CURVE SMOOTH",
"482 133 OFFCURVE",
"507 150 OFFCURVE",
"550 150 CURVE SMOOTH",
"575 150 OFFCURVE",
"621 125 OFFCURVE",
"687 75 CURVE SMOOTH",
"752 25 OFFCURVE",
"833 0 OFFCURVE",
"930 0 CURVE SMOOTH",
"1021 0 OFFCURVE",
"1111 29 OFFCURVE",
"1202 88 CURVE SMOOTH",
"1292 146 OFFCURVE",
"1349 233 OFFCURVE",
"1374 350 CURVE SMOOTH",
"1387 408 OFFCURVE",
"1393 460 OFFCURVE",
"1393 507 CURVE SMOOTH",
"1393 588 OFFCURVE",
"1374 652 OFFCURVE",
"1337 700 CURVE SMOOTH",
"1285 767 OFFCURVE",
"1196 800 OFFCURVE",
"1070 800 CURVE SMOOTH",
"997 800 OFFCURVE",
"937 782 OFFCURVE",
"892 747 CURVE SMOOTH",
"845 710 OFFCURVE",
"813 653 OFFCURVE",
"796 577 CURVE SMOOTH",
"790 548 OFFCURVE",
"787 521 OFFCURVE",
"787 496 CURVE SMOOTH",
"787 448 OFFCURVE",
"798 410 OFFCURVE",
"821 381 CURVE SMOOTH",
"857 335 OFFCURVE",
"922 312 OFFCURVE",
"1017 312 CURVE SMOOTH",
"1067 312 OFFCURVE",
"1092 337 OFFCURVE",
"1092 387 CURVE SMOOTH",
"1092 437 OFFCURVE",
"1067 462 OFFCURVE",
"1017 462 CURVE SMOOTH",
"985 462 OFFCURVE",
"963 469 OFFCURVE",
"950 483 CURVE SMOOTH"
);
}
);
width = 1600;
}
);
note = uni1786;
unicode = 1786;
},
{
glyphname = uni1787;
lastChange = "2021-05-07 10:00:43 +0000";
layers = (
{
layerId = "982A60EF-513A-498E-AE80-A9982858EA0F";
paths = (
{
closed = 1;
nodes = (
"694 1035 OFFCURVE",
"712 1029 OFFCURVE",
"725 1029 CURVE SMOOTH",
"734 1029 OFFCURVE",
"741 1032 OFFCURVE",
"746 1039 CURVE SMOOTH",
"749 1043 OFFCURVE",
"750 1047 OFFCURVE",
"750 1052 CURVE SMOOTH",
"750 1069 OFFCURVE",
"735 1092 OFFCURVE",
"704 1122 CURVE SMOOTH",
"660 1164 LINE",
"835 1310 LINE",
"878 1261 OFFCURVE",
"931 1222 OFFCURVE",
"994 1193 CURVE SMOOTH",
"1057 1164 OFFCURVE",
"1125 1150 OFFCURVE",
"1200 1150 CURVE SMOOTH",
"1314 1150 OFFCURVE",
"1408 1192 OFFCURVE",
"1483 1275 CURVE SMOOTH",
"1558 1358 OFFCURVE",
"1614 1482 OFFCURVE",
"1650 1649 CURVE SMOOTH",
"1656 1672 OFFCURVE",
"1659 1693 OFFCURVE",
"1659 1710 CURVE SMOOTH",
"1659 1721 OFFCURVE",
"1658 1731 OFFCURVE",
"1655 1740 CURVE SMOOTH",
"1650 1762 OFFCURVE",
"1637 1776 OFFCURVE",
"1616 1782 CURVE SMOOTH",
"1611 1783 OFFCURVE",
"1607 1784 OFFCURVE",
"1602 1784 CURVE SMOOTH",
"1588 1784 OFFCURVE",
"1575 1777 OFFCURVE",
"1562 1763 CURVE SMOOTH",
"1547 1746 OFFCURVE",
"1533 1716 OFFCURVE",
"1522 1674 CURVE SMOOTH",
"1488 1549 OFFCURVE",
"1444 1456 OFFCURVE",
"1391 1394 CURVE SMOOTH",
"1338 1331 OFFCURVE",
"1274 1300 OFFCURVE",
"1200 1300 CURVE SMOOTH",
"1148 1300 OFFCURVE",
"1101 1309 OFFCURVE",
"1059 1327 CURVE SMOOTH",
"1018 1346 OFFCURVE",
"981 1373 OFFCURVE",
"949 1409 CURVE SMOOTH",
"895 1470 OFFCURVE",
"859 1500 OFFCURVE",
"841 1500 CURVE SMOOTH",
"823 1500 OFFCURVE",
"800 1483 OFFCURVE",
"771 1448 CURVE SMOOTH",
"743 1413 OFFCURVE",
"700 1372 OFFCURVE",
"642 1326 CURVE SMOOTH",
"583 1279 OFFCURVE",
"486 1218 OFFCURVE",
"350 1143 CURVE",
"418 1134 LINE SMOOTH",
"463 1129 OFFCURVE",
"508 1118 OFFCURVE",
"551 1103 CURVE SMOOTH",
"594 1088 OFFCURVE",
"634 1070 OFFCURVE",
"672 1048 CURVE SMOOTH"
);
},
{
closed = 1;
nodes = (
"640 874 OFFCURVE",
"642 896 OFFCURVE",
"642 915 CURVE SMOOTH",
"642 950 OFFCURVE",
"634 979 OFFCURVE",
"617 1000 CURVE SMOOTH",
"598 1024 OFFCURVE",
"569 1036 OFFCURVE",
"530 1036 CURVE SMOOTH",
"517 1036 OFFCURVE",
"504 1035 OFFCURVE",
"489 1032 CURVE SMOOTH",
"430 1021 OFFCURVE",
"400 994 OFFCURVE",
"400 953 CURVE SMOOTH",
"400 912 OFFCURVE",
"413 881 OFFCURVE",
"438 860 CURVE SMOOTH",
"454 847 OFFCURVE",
"462 823 OFFCURVE",
"462 789 CURVE SMOOTH",
"462 769 OFFCURVE",
"459 745 OFFCURVE",
"453 717 CURVE SMOOTH",
"321 100 LINE SMOOTH",
"318 86 OFFCURVE",
"317 73 OFFCURVE",
"317 62 CURVE SMOOTH",
"317 21 OFFCURVE",
"337 0 OFFCURVE",
"377 0 CURVE SMOOTH",
"428 0 OFFCURVE",
"486 21 OFFCURVE",
"553 63 CURVE SMOOTH",
"853 250 LINE",
"1074 63 LINE SMOOTH",
"1123 21 OFFCURVE",
"1173 0 OFFCURVE",
"1224 0 CURVE SMOOTH",
"1275 0 OFFCURVE",
"1307 33 OFFCURVE",
"1321 100 CURVE SMOOTH",
"1470 799 LINE SMOOTH",
"1476 826 OFFCURVE",
"1479 851 OFFCURVE",
"1479 872 CURVE SMOOTH",
"1479 912 OFFCURVE",
"1469 941 OFFCURVE",
"1448 959 CURVE SMOOTH",
"1416 986 OFFCURVE",
"1383 1000 OFFCURVE",
"1350 1000 CURVE SMOOTH",
"1317 1000 OFFCURVE",
"1300 989 OFFCURVE",
"1300 967 CURVE SMOOTH",
"1300 945 OFFCURVE",
"1306 926 OFFCURVE",
"1317 909 CURVE SMOOTH",
"1324 899 OFFCURVE",
"1327 885 OFFCURVE",
"1327 868 CURVE SMOOTH",
"1327 855 OFFCURVE",
"1325 841 OFFCURVE",
"1322 824 CURVE SMOOTH",
"1182 167 LINE",
"868 435 LINE",
"498 208 LINE",
"635 851 LINE SMOOTH"
);
}
);
width = 1600;
}
);
note = uni1787;
unicode = 1787;
},
{
glyphname = uni1788;
lastChange = "2021-05-07 10:00:43 +0000";
layers = (
{
layerId = "982A60EF-513A-498E-AE80-A9982858EA0F";
paths = (
{
closed = 1;
nodes = (
"1120 341 OFFCURVE",
"1116 309 OFFCURVE",
"1116 280 CURVE SMOOTH",
"1116 202 OFFCURVE",
"1142 140 OFFCURVE",
"1193 94 CURVE SMOOTH",
"1263 31 OFFCURVE",
"1381 0 OFFCURVE",
"1548 0 CURVE SMOOTH",
"1628 0 OFFCURVE",
"1698 10 OFFCURVE",
"1758 31 CURVE SMOOTH",
"1819 52 OFFCURVE",
"1869 84 OFFCURVE",
"1910 126 CURVE",
"1942 84 OFFCURVE",
"1990 52 OFFCURVE",
"2054 31 CURVE SMOOTH",
"2118 10 OFFCURVE",
"2198 0 OFFCURVE",
"2295 0 CURVE SMOOTH",
"2428 0 OFFCURVE",
"2535 29 OFFCURVE",
"2614 88 CURVE SMOOTH",
"2693 146 OFFCURVE",
"2744 233 OFFCURVE",
"2769 350 CURVE SMOOTH",
"2886 900 LINE SMOOTH",
"2890 920 OFFCURVE",
"2892 940 OFFCURVE",
"2892 959 CURVE SMOOTH",
"2892 994 OFFCURVE",
"2885 1027 OFFCURVE",
"2871 1058 CURVE SMOOTH",
"2849 1106 OFFCURVE",
"2810 1149 OFFCURVE",
"2753 1188 CURVE",
"2844 1286 LINE",
"2877 1247 OFFCURVE",
"2917 1228 OFFCURVE",
"2963 1228 CURVE SMOOTH",
"2972 1228 LINE SMOOTH",
"3022 1230 OFFCURVE",
"3064 1243 OFFCURVE",
"3098 1266 CURVE SMOOTH",
"3148 1300 LINE",
"3141 1299 OFFCURVE",
"3135 1299 OFFCURVE",
"3128 1299 CURVE SMOOTH",
"3087 1299 OFFCURVE",
"3047 1313 OFFCURVE",
"3006 1342 CURVE SMOOTH",
"2958 1375 OFFCURVE",
"2910 1428 OFFCURVE",
"2862 1500 CURVE",
"2834 1451 OFFCURVE",
"2790 1394 OFFCURVE",
"2731 1327 CURVE SMOOTH",
"2672 1260 OFFCURVE",
"2593 1198 OFFCURVE",
"2495 1141 CURVE",
"2584 1136 OFFCURVE",
"2650 1111 OFFCURVE",
"2692 1066 CURVE SMOOTH",
"2726 1029 OFFCURVE",
"2743 993 OFFCURVE",
"2743 957 CURVE SMOOTH",
"2743 949 OFFCURVE",
"2742 941 OFFCURVE",
"2740 933 CURVE SMOOTH",
"2622 375 LINE SMOOTH",
"2606 300 OFFCURVE",
"2571 244 OFFCURVE",
"2516 206 CURVE SMOOTH",
"2461 169 OFFCURVE",
"2388 150 OFFCURVE",
"2295 150 CURVE SMOOTH",
"2190 150 OFFCURVE",
"2115 167 OFFCURVE",
"2070 200 CURVE SMOOTH",
"2035 226 OFFCURVE",
"2017 262 OFFCURVE",
"2017 307 CURVE SMOOTH",
"2017 320 OFFCURVE",
"2019 335 OFFCURVE",
"2022 350 CURVE SMOOTH",
"2139 900 LINE SMOOTH",
"2143 920 OFFCURVE",
"2145 940 OFFCURVE",
"2145 959 CURVE SMOOTH",
"2145 994 OFFCURVE",
"2138 1027 OFFCURVE",
"2124 1058 CURVE SMOOTH",
"2102 1106 OFFCURVE",
"2063 1149 OFFCURVE",
"2006 1188 CURVE",
"2097 1286 LINE",
"2130 1248 OFFCURVE",
"2178 1229 OFFCURVE",
"2241 1229 CURVE SMOOTH",
"2256 1229 LINE SMOOTH",
"2327 1232 OFFCURVE",
"2391 1269 OFFCURVE",
"2448 1340 CURVE",
"2417 1327 OFFCURVE",
"2387 1321 OFFCURVE",
"2359 1321 CURVE SMOOTH",
"2327 1321 OFFCURVE",
"2297 1329 OFFCURVE",
"2268 1346 CURVE SMOOTH",
"2214 1377 OFFCURVE",
"2163 1428 OFFCURVE",
"2115 1500 CURVE",
"2087 1451 OFFCURVE",
"2043 1394 OFFCURVE",
"1984 1327 CURVE SMOOTH",
"1925 1260 OFFCURVE",
"1846 1198 OFFCURVE",
"1748 1141 CURVE",
"1837 1136 OFFCURVE",
"1903 1111 OFFCURVE",
"1945 1066 CURVE SMOOTH",
"1979 1029 OFFCURVE",
"1996 993 OFFCURVE",
"1996 957 CURVE SMOOTH",
"1996 949 OFFCURVE",
"1995 941 OFFCURVE",
"1993 933 CURVE SMOOTH",
"1870 356 LINE",
"1851 287 OFFCURVE",
"1815 236 OFFCURVE",
"1762 201 CURVE SMOOTH",
"1708 167 OFFCURVE",
"1637 150 OFFCURVE",
"1548 150 CURVE SMOOTH",
"1443 150 OFFCURVE",
"1368 167 OFFCURVE",
"1323 200 CURVE SMOOTH",
"1288 226 OFFCURVE",
"1270 262 OFFCURVE",
"1270 307 CURVE SMOOTH",
"1270 320 OFFCURVE",
"1272 335 OFFCURVE",
"1275 350 CURVE SMOOTH",
"1411 985 LINE SMOOTH",
"1422 1038 OFFCURVE",
"1428 1086 OFFCURVE",
"1428 1130 CURVE SMOOTH",
"1428 1158 OFFCURVE",
"1426 1185 OFFCURVE",
"1421 1210 CURVE SMOOTH",
"1409 1275 OFFCURVE",
"1382 1328 OFFCURVE",
"1339 1371 CURVE SMOOTH",
"1297 1414 OFFCURVE",
"1240 1447 OFFCURVE",
"1168 1468 CURVE SMOOTH",
"1096 1489 OFFCURVE",
"1033 1500 OFFCURVE",
"978 1500 CURVE SMOOTH",
"869 1500 OFFCURVE",
"776 1475 OFFCURVE",
"701 1425 CURVE SMOOTH",
"626 1375 OFFCURVE",
"578 1300 OFFCURVE",
"557 1200 CURVE SMOOTH",
"344 200 LINE SMOOTH",
"339 175 OFFCURVE",
"336 152 OFFCURVE",
"336 131 CURVE SMOOTH",
"336 98 OFFCURVE",
"343 71 OFFCURVE",
"358 50 CURVE SMOOTH",
"382 17 OFFCURVE",
"412 0 OFFCURVE",
"447 0 CURVE SMOOTH",
"482 0 OFFCURVE",
"532 34 OFFCURVE",
"597 101 CURVE SMOOTH",
"662 168 OFFCURVE",
"703 232 OFFCURVE",
"721 294 CURVE SMOOTH",
"727 317 OFFCURVE",
"730 338 OFFCURVE",
"730 357 CURVE SMOOTH",
"730 391 OFFCURVE",
"720 420 OFFCURVE",
"701 444 CURVE SMOOTH",
"670 481 OFFCURVE",
"636 500 OFFCURVE",
"600 500 CURVE SMOOTH",
"586 500 OFFCURVE",
"573 499 OFFCURVE",
"560 498 CURVE",
"706 1179 LINE SMOOTH",
"717 1231 OFFCURVE",
"745 1273 OFFCURVE",
"791 1304 CURVE SMOOTH",
"838 1335 OFFCURVE",
"900 1350 OFFCURVE",
"978 1350 CURVE SMOOTH",
"1092 1350 OFFCURVE",
"1174 1324 OFFCURVE",
"1225 1272 CURVE SMOOTH",
"1251 1247 OFFCURVE",
"1267 1213 OFFCURVE",
"1273 1170 CURVE SMOOTH",
"1275 1155 OFFCURVE",
"1276 1140 OFFCURVE",
"1276 1124 CURVE SMOOTH",
"1276 1093 OFFCURVE",
"1272 1058 OFFCURVE",
"1264 1019 CURVE SMOOTH",
"1127 375 LINE SMOOTH"
);
}
);
width = 2998;
}
);
note = uni1788;
unicode = 1788;
},
{
glyphname = uni1789;
lastChange = "2021-05-07 10:00:43 +0000";
layers = (
{
layerId = "982A60EF-513A-498E-AE80-A9982858EA0F";
paths = (
{
closed = 1;
nodes = (
"1658 1150 OFFCURVE",
"1709 1225 OFFCURVE",
"1765 1275 CURVE SMOOTH",
"1822 1325 OFFCURVE",
"1900 1350 OFFCURVE",
"2000 1350 CURVE SMOOTH",
"2145 1350 OFFCURVE",
"2238 1318 OFFCURVE",
"2281 1255 CURVE SMOOTH",
"2307 1217 OFFCURVE",
"2320 1167 OFFCURVE",
"2320 1104 CURVE SMOOTH",
"2320 1065 OFFCURVE",
"2315 1020 OFFCURVE",
"2304 971 CURVE SMOOTH",
"2160 297 LINE SMOOTH",
"2144 223 OFFCURVE",
"2120 182 OFFCURVE",
"2088 173 CURVE SMOOTH",
"2056 164 OFFCURVE",
"2035 145 OFFCURVE",
"2025 115 CURVE SMOOTH",
"2023 108 OFFCURVE",
"2022 102 OFFCURVE",
"2022 95 CURVE SMOOTH",
"2022 73 OFFCURVE",
"2035 53 OFFCURVE",
"2060 35 CURVE SMOOTH",
"2093 12 OFFCURVE",
"2133 0 OFFCURVE",
"2180 0 CURVE SMOOTH",
"2227 0 OFFCURVE",
"2257 33 OFFCURVE",
"2272 100 CURVE SMOOTH",
"2451 941 LINE SMOOTH",
"2466 1011 OFFCURVE",
"2474 1074 OFFCURVE",
"2474 1131 CURVE SMOOTH",
"2474 1150 OFFCURVE",
"2473 1169 OFFCURVE",
"2471 1186 CURVE SMOOTH",
"2464 1256 OFFCURVE",
"2444 1314 OFFCURVE",
"2410 1360 CURVE SMOOTH",
"2343 1453 OFFCURVE",
"2207 1500 OFFCURVE",
"2000 1500 CURVE SMOOTH",
"1893 1500 OFFCURVE",
"1808 1480 OFFCURVE",
"1747 1440 CURVE SMOOTH",
"1686 1400 OFFCURVE",
"1631 1340 OFFCURVE",
"1583 1260 CURVE",
"1569 1295 OFFCURVE",
"1550 1326 OFFCURVE",
"1526 1353 CURVE SMOOTH",
"1437 1456 OFFCURVE",
"1371 1507 OFFCURVE",
"1329 1507 CURVE SMOOTH",
"1287 1507 OFFCURVE",
"1249 1491 OFFCURVE",
"1216 1460 CURVE SMOOTH",
"1182 1429 OFFCURVE",
"1141 1387 OFFCURVE",
"1094 1333 CURVE",
"1047 1417 LINE SMOOTH",
"1016 1472 OFFCURVE",
"972 1500 OFFCURVE",
"917 1500 CURVE SMOOTH",
"862 1500 OFFCURVE",
"811 1478 OFFCURVE",
"766 1434 CURVE SMOOTH",
"698 1369 LINE SMOOTH",
"607 1281 OFFCURVE",
"548 1170 OFFCURVE",
"519 1036 CURVE SMOOTH",
"343 200 LINE SMOOTH",
"338 175 OFFCURVE",
"335 153 OFFCURVE",
"335 132 CURVE SMOOTH",
"335 98 OFFCURVE",
"342 71 OFFCURVE",
"357 50 CURVE SMOOTH",
"381 17 OFFCURVE",
"424 0 OFFCURVE",
"486 0 CURVE SMOOTH",
"571 0 OFFCURVE",
"657 34 OFFCURVE",
"742 102 CURVE SMOOTH",
"827 169 OFFCURVE",
"881 263 OFFCURVE",
"903 382 CURVE SMOOTH",
"906 401 OFFCURVE",
"908 420 OFFCURVE",
"908 437 CURVE SMOOTH",
"908 520 OFFCURVE",
"872 582 OFFCURVE",
"799 625 CURVE SMOOTH",
"770 642 OFFCURVE",
"720 650 OFFCURVE",
"651 650 CURVE SMOOTH",
"630 650 OFFCURVE",
"610 645 OFFCURVE",
"590 636 CURVE",
"668 1006 LINE SMOOTH",
"691 1111 OFFCURVE",
"733 1194 OFFCURVE",
"796 1257 CURVE SMOOTH",
"858 1319 OFFCURVE",
"898 1350 OFFCURVE",
"916 1350 CURVE SMOOTH",
"934 1350 OFFCURVE",
"964 1308 OFFCURVE",
"1007 1225 CURVE SMOOTH",
"1070 1100 LINE",
"1172 1225 LINE SMOOTH",
"1240 1308 OFFCURVE",
"1285 1350 OFFCURVE",
"1306 1350 CURVE SMOOTH",
"1327 1350 OFFCURVE",
"1364 1321 OFFCURVE",
"1419 1262 CURVE SMOOTH",
"1446 1233 OFFCURVE",
"1462 1189 OFFCURVE",
"1465 1131 CURVE SMOOTH",
"1466 1122 OFFCURVE",
"1466 1112 OFFCURVE",
"1466 1101 CURVE SMOOTH",
"1466 1048 OFFCURVE",
"1458 986 OFFCURVE",
"1441 914 CURVE SMOOTH",
"1310 297 LINE SMOOTH",
"1294 223 OFFCURVE",
"1270 182 OFFCURVE",
"1238 173 CURVE SMOOTH",
"1206 164 OFFCURVE",
"1185 145 OFFCURVE",
"1175 115 CURVE SMOOTH",
"1173 108 OFFCURVE",
"1172 102 OFFCURVE",
"1172 95 CURVE SMOOTH",
"1172 73 OFFCURVE",
"1185 53 OFFCURVE",
"1210 35 CURVE SMOOTH",
"1243 12 OFFCURVE",
"1283 0 OFFCURVE",
"1330 0 CURVE SMOOTH",
"1377 0 OFFCURVE",
"1407 33 OFFCURVE",
"1422 100 CURVE SMOOTH",
"1590 890 LINE SMOOTH",
"1603 947 OFFCURVE",
"1611 1001 OFFCURVE",
"1613 1050 CURVE"
);
},
{
closed = 1;
nodes = (
"554 474 OFFCURVE",
"590 500 OFFCURVE",
"651 500 CURVE SMOOTH",
"694 500 OFFCURVE",
"724 495 OFFCURVE",
"743 484 CURVE SMOOTH",
"755 477 OFFCURVE",
"761 463 OFFCURVE",
"761 442 CURVE SMOOTH",
"761 431 OFFCURVE",
"759 417 OFFCURVE",
"756 402 CURVE SMOOTH",
"739 324 OFFCURVE",
"704 263 OFFCURVE",
"653 218 CURVE SMOOTH",
"601 173 OFFCURVE",
"545 150 OFFCURVE",
"486 150 CURVE",
"543 421 LINE SMOOTH"
);
},
{
closed = 1;
nodes = (
"675 -583 OFFCURVE",
"971 -700 OFFCURVE",
"1295 -700 CURVE SMOOTH",
"1618 -700 OFFCURVE",
"1841 -664 OFFCURVE",
"1964 -592 CURVE SMOOTH",
"2086 -520 OFFCURVE",
"2156 -444 OFFCURVE",
"2173 -363 CURVE SMOOTH",
"2179 -334 OFFCURVE",
"2182 -308 OFFCURVE",
"2182 -284 CURVE SMOOTH",
"2182 -239 OFFCURVE",
"2172 -202 OFFCURVE",
"2152 -171 CURVE SMOOTH",
"2121 -124 OFFCURVE",
"2070 -100 OFFCURVE",
"2000 -100 CURVE SMOOTH",
"1900 -100 OFFCURVE",
"1850 -143 OFFCURVE",
"1850 -230 CURVE SMOOTH",
"1850 -277 OFFCURVE",
"1875 -300 OFFCURVE",
"1925 -300 CURVE SMOOTH",
"1975 -300 OFFCURVE",
"2000 -283 OFFCURVE",
"2000 -250 CURVE",
"2016 -250 OFFCURVE",
"2026 -254 OFFCURVE",
"2031 -261 CURVE SMOOTH",
"2033 -264 OFFCURVE",
"2034 -270 OFFCURVE",
"2034 -277 CURVE SMOOTH",
"2034 -289 OFFCURVE",
"2032 -307 OFFCURVE",
"2027 -330 CURVE SMOOTH",
"2019 -368 OFFCURVE",
"1969 -414 OFFCURVE",
"1876 -468 CURVE SMOOTH",
"1783 -523 OFFCURVE",
"1592 -550 OFFCURVE",
"1301 -550 CURVE SMOOTH",
"1010 -550 OFFCURVE",
"746 -447 OFFCURVE",
"511 -241 CURVE SMOOTH",
"478 -212 OFFCURVE",
"449 -196 OFFCURVE",
"425 -193 CURVE SMOOTH",
"421 -192 OFFCURVE",
"417 -192 OFFCURVE",
"414 -192 CURVE SMOOTH",
"395 -192 OFFCURVE",
"381 -198 OFFCURVE",
"370 -209 CURVE SMOOTH",
"357 -223 OFFCURVE",
"350 -242 OFFCURVE",
"350 -265 CURVE SMOOTH",
"350 -288 OFFCURVE",
"369 -317 OFFCURVE",
"407 -350 CURVE SMOOTH"
);
}
);
width = 2550;
}
);
note = uni1789;
unicode = 1789;
},
{
glyphname = uni178A;
lastChange = "2021-05-07 10:00:43 +0000";
layers = (
{
layerId = "982A60EF-513A-498E-AE80-A9982858EA0F";
paths = (
{
closed = 1;
nodes = (
"1581 1777 OFFCURVE",
"1553 1744 OFFCURVE",
"1530 1677 CURVE SMOOTH",
"1507 1610 OFFCURVE",
"1481 1550 OFFCURVE",
"1454 1497 CURVE SMOOTH",
"1429 1449 OFFCURVE",
"1399 1406 OFFCURVE",
"1366 1369 CURVE SMOOTH",
"1337 1336 OFFCURVE",
"1295 1309 OFFCURVE",
"1241 1290 CURVE SMOOTH",
"1167 1263 OFFCURVE",
"1070 1250 OFFCURVE",
"950 1250 CURVE SMOOTH",
"857 1250 OFFCURVE",
"790 1258 OFFCURVE",
"747 1275 CURVE SMOOTH",
"710 1289 OFFCURVE",
"692 1309 OFFCURVE",
"692 1336 CURVE SMOOTH",
"692 1340 OFFCURVE",
"693 1343 OFFCURVE",
"693 1346 CURVE SMOOTH",
"693 1340 LINE SMOOTH",
"693 1313 OFFCURVE",
"716 1300 OFFCURVE",
"762 1300 CURVE SMOOTH",
"814 1300 OFFCURVE",
"840 1333 OFFCURVE",
"840 1400 CURVE SMOOTH",
"840 1467 OFFCURVE",
"802 1500 OFFCURVE",
"726 1500 CURVE SMOOTH",
"623 1500 OFFCURVE",
"562 1459 OFFCURVE",
"544 1377 CURVE SMOOTH",
"540 1357 OFFCURVE",
"538 1338 OFFCURVE",
"538 1320 CURVE SMOOTH",
"538 1256 OFFCURVE",
"564 1206 OFFCURVE",
"617 1169 CURVE SMOOTH",
"685 1123 OFFCURVE",
"796 1100 OFFCURVE",
"950 1100 CURVE SMOOTH",
"1093 1100 OFFCURVE",
"1209 1117 OFFCURVE",
"1300 1150 CURVE SMOOTH",
"1367 1174 OFFCURVE",
"1420 1207 OFFCURVE",
"1459 1250 CURVE SMOOTH",
"1503 1298 OFFCURVE",
"1540 1353 OFFCURVE",
"1571 1416 CURVE SMOOTH",
"1605 1485 OFFCURVE",
"1628 1546 OFFCURVE",
"1640 1600 CURVE SMOOTH",
"1652 1654 OFFCURVE",
"1658 1697 OFFCURVE",
"1658 1729 CURVE SMOOTH",
"1658 1761 OFFCURVE",
"1643 1777 OFFCURVE",
"1612 1777 CURVE SMOOTH"
);
},
{
closed = 1;
nodes = (
"1416 986 OFFCURVE",
"1383 1000 OFFCURVE",
"1350 1000 CURVE SMOOTH",
"1317 1000 OFFCURVE",
"1300 989 OFFCURVE",
"1300 967 CURVE SMOOTH",
"1300 945 OFFCURVE",
"1306 926 OFFCURVE",
"1317 909 CURVE SMOOTH",
"1324 899 OFFCURVE",
"1327 885 OFFCURVE",
"1327 868 CURVE SMOOTH",
"1327 855 OFFCURVE",
"1325 841 OFFCURVE",
"1322 824 CURVE SMOOTH",
"1182 167 LINE",
"868 435 LINE",
"498 208 LINE",
"635 851 LINE SMOOTH",
"640 874 OFFCURVE",
"642 896 OFFCURVE",
"642 915 CURVE SMOOTH",
"642 950 OFFCURVE",
"634 979 OFFCURVE",
"617 1000 CURVE SMOOTH",
"598 1024 OFFCURVE",
"569 1036 OFFCURVE",
"530 1036 CURVE SMOOTH",
"517 1036 OFFCURVE",
"504 1035 OFFCURVE",
"489 1032 CURVE SMOOTH",
"430 1021 OFFCURVE",
"400 994 OFFCURVE",
"400 953 CURVE SMOOTH",
"400 912 OFFCURVE",
"413 881 OFFCURVE",
"438 860 CURVE SMOOTH",
"454 847 OFFCURVE",
"462 823 OFFCURVE",
"462 789 CURVE SMOOTH",
"462 769 OFFCURVE",
"459 745 OFFCURVE",
"453 717 CURVE SMOOTH",
"321 100 LINE SMOOTH",
"318 86 OFFCURVE",
"317 73 OFFCURVE",
"317 62 CURVE SMOOTH",
"317 21 OFFCURVE",
"337 0 OFFCURVE",
"377 0 CURVE SMOOTH",
"428 0 OFFCURVE",
"486 21 OFFCURVE",
"553 63 CURVE SMOOTH",
"853 250 LINE",
"1074 63 LINE SMOOTH",
"1123 21 OFFCURVE",
"1173 0 OFFCURVE",
"1224 0 CURVE SMOOTH",
"1275 0 OFFCURVE",
"1307 33 OFFCURVE",
"1321 100 CURVE SMOOTH",
"1470 799 LINE SMOOTH",
"1476 826 OFFCURVE",
"1479 851 OFFCURVE",
"1479 872 CURVE SMOOTH",
"1479 912 OFFCURVE",
"1469 941 OFFCURVE",
"1448 959 CURVE SMOOTH"
);
}
);
width = 1600;
}
);
note = uni178A;
unicode = 178A;
},
{
glyphname = uni178B;
lastChange = "2021-05-07 10:00:43 +0000";
layers = (
{
layerId = "982A60EF-513A-498E-AE80-A9982858EA0F";
paths = (
{
closed = 1;
nodes = (
"383 390 OFFCURVE",
"379 358 OFFCURVE",
"379 327 CURVE SMOOTH",
"379 237 OFFCURVE",
"411 165 OFFCURVE",
"474 110 CURVE SMOOTH",
"558 37 OFFCURVE",
"683 0 OFFCURVE",
"850 0 CURVE SMOOTH",
"1017 0 OFFCURVE",
"1140 29 OFFCURVE",
"1219 88 CURVE SMOOTH",
"1298 146 OFFCURVE",
"1349 233 OFFCURVE",
"1374 350 CURVE SMOOTH",
"1491 900 LINE SMOOTH",
"1495 920 OFFCURVE",
"1497 940 OFFCURVE",
"1497 959 CURVE SMOOTH",
"1497 994 OFFCURVE",
"1490 1027 OFFCURVE",
"1476 1058 CURVE SMOOTH",
"1454 1106 OFFCURVE",
"1411 1153 OFFCURVE",
"1348 1198 CURVE",
"1399 1286 LINE",
"1432 1247 OFFCURVE",
"1484 1228 OFFCURVE",
"1553 1228 CURVE SMOOTH",
"1567 1228 LINE SMOOTH",
"1617 1230 OFFCURVE",
"1660 1251 OFFCURVE",
"1696 1291 CURVE SMOOTH",
"1732 1330 OFFCURVE",
"1750 1383 OFFCURVE",
"1750 1450 CURVE SMOOTH",
"1750 1617 OFFCURVE",
"1715 1742 OFFCURVE",
"1645 1825 CURVE SMOOTH",
"1575 1908 OFFCURVE",
"1529 1950 OFFCURVE",
"1507 1950 CURVE SMOOTH",
"1500 1950 OFFCURVE",
"1496 1946 OFFCURVE",
"1496 1938 CURVE SMOOTH",
"1496 1920 OFFCURVE",
"1513 1883 OFFCURVE",
"1547 1827 CURVE SMOOTH",
"1596 1744 OFFCURVE",
"1620 1642 OFFCURVE",
"1620 1520 CURVE SMOOTH",
"1620 1413 OFFCURVE",
"1601 1360 OFFCURVE",
"1562 1360 CURVE SMOOTH",
"1561 1360 LINE SMOOTH",
"1522 1360 OFFCURVE",
"1465 1407 OFFCURVE",
"1390 1500 CURVE",
"1337 1340 OFFCURVE",
"1249 1218 OFFCURVE",
"1100 1141 CURVE",
"1189 1136 OFFCURVE",
"1255 1111 OFFCURVE",
"1297 1066 CURVE SMOOTH",
"1331 1029 OFFCURVE",
"1348 993 OFFCURVE",
"1348 957 CURVE SMOOTH",
"1348 949 OFFCURVE",
"1347 941 OFFCURVE",
"1345 933 CURVE SMOOTH",
"1227 375 LINE SMOOTH",
"1211 300 OFFCURVE",
"1177 244 OFFCURVE",
"1126 206 CURVE SMOOTH",
"1075 169 OFFCURVE",
"983 150 OFFCURVE",
"850 150 CURVE SMOOTH",
"720 150 OFFCURVE",
"631 171 OFFCURVE",
"584 213 CURVE SMOOTH",
"549 243 OFFCURVE",
"532 285 OFFCURVE",
"532 338 CURVE SMOOTH",
"532 357 OFFCURVE",
"534 377 OFFCURVE",
"539 400 CURVE SMOOTH",
"741 1352 LINE SMOOTH",
"744 1367 OFFCURVE",
"746 1380 OFFCURVE",
"746 1392 CURVE SMOOTH",
"746 1421 OFFCURVE",
"737 1445 OFFCURVE",
"719 1462 CURVE SMOOTH",
"694 1487 OFFCURVE",
"658 1500 OFFCURVE",
"610 1500 CURVE SMOOTH",
"563 1500 OFFCURVE",
"527 1483 OFFCURVE",
"500 1450 CURVE SMOOTH",
"473 1417 OFFCURVE",
"460 1375 OFFCURVE",
"460 1325 CURVE SMOOTH",
"460 1275 OFFCURVE",
"492 1233 OFFCURVE",
"555 1200 CURVE",
"390 425 LINE SMOOTH"
);
}
);
width = 1600;
}
);
note = uni178B;
unicode = 178B;
},
{
glyphname = uni178C;
lastChange = "2021-05-07 10:00:43 +0000";
layers = (
{
layerId = "982A60EF-513A-498E-AE80-A9982858EA0F";
paths = (
{
closed = 1;
nodes = (
"1472 889 OFFCURVE",
"1501 949 OFFCURVE",
"1515 1012 CURVE SMOOTH",
"1520 1036 OFFCURVE",
"1522 1061 OFFCURVE",
"1522 1087 CURVE SMOOTH",
"1522 1117 OFFCURVE",
"1519 1148 OFFCURVE",
"1512 1181 CURVE SMOOTH",
"1496 1256 OFFCURVE",
"1462 1337 OFFCURVE",
"1409 1423 CURVE SMOOTH",
"1378 1474 OFFCURVE",
"1338 1500 OFFCURVE",
"1290 1500 CURVE SMOOTH",
"1241 1500 OFFCURVE",
"1158 1431 OFFCURVE",
"1040 1293 CURVE",
"974 1431 OFFCURVE",
"920 1500 OFFCURVE",
"878 1500 CURVE SMOOTH",
"835 1500 OFFCURVE",
"794 1484 OFFCURVE",
"755 1453 CURVE SMOOTH",
"636 1358 OFFCURVE",
"564 1250 OFFCURVE",
"538 1129 CURVE SMOOTH",
"532 1098 OFFCURVE",
"529 1070 OFFCURVE",
"529 1043 CURVE SMOOTH",
"529 985 OFFCURVE",
"543 935 OFFCURVE",
"571 893 CURVE SMOOTH",
"612 831 OFFCURVE",
"667 800 OFFCURVE",
"738 800 CURVE SMOOTH",
"809 800 OFFCURVE",
"863 836 OFFCURVE",
"902 907 CURVE SMOOTH",
"919 938 OFFCURVE",
"927 967 OFFCURVE",
"927 992 CURVE SMOOTH",
"927 1024 OFFCURVE",
"913 1052 OFFCURVE",
"886 1075 CURVE SMOOTH",
"866 1092 OFFCURVE",
"845 1100 OFFCURVE",
"822 1100 CURVE SMOOTH",
"790 1100 OFFCURVE",
"755 1082 OFFCURVE",
"718 1047 CURVE",
"759 1024 OFFCURVE",
"780 1004 OFFCURVE",
"780 987 CURVE SMOOTH",
"780 984 OFFCURVE",
"779 981 OFFCURVE",
"778 978 CURVE",
"768 959 OFFCURVE",
"755 950 OFFCURVE",
"738 950 CURVE SMOOTH",
"721 950 OFFCURVE",
"706 963 OFFCURVE",
"693 990 CURVE SMOOTH",
"685 1006 OFFCURVE",
"681 1027 OFFCURVE",
"681 1052 CURVE SMOOTH",
"681 1067 OFFCURVE",
"682 1084 OFFCURVE",
"685 1103 CURVE",
"706 1188 OFFCURVE",
"761 1271 OFFCURVE",
"852 1350 CURVE",
"935 1193 OFFCURVE",
"989 1115 OFFCURVE",
"1012 1115 CURVE SMOOTH",
"1035 1115 OFFCURVE",
"1124 1195 OFFCURVE",
"1279 1355 CURVE",
"1324 1279 OFFCURVE",
"1353 1211 OFFCURVE",
"1366 1152 CURVE SMOOTH",
"1371 1129 OFFCURVE",
"1373 1108 OFFCURVE",
"1373 1087 CURVE SMOOTH",
"1373 1071 OFFCURVE",
"1372 1056 OFFCURVE",
"1369 1041 CURVE SMOOTH",
"1359 997 OFFCURVE",
"1338 955 OFFCURVE",
"1306 915 CURVE SMOOTH",
"1266 864 OFFCURVE",
"1209 817 OFFCURVE",
"1136 774 CURVE SMOOTH",
"500 390 LINE SMOOTH",
"455 361 OFFCURVE",
"430 330 OFFCURVE",
"423 297 CURVE SMOOTH",
"418 274 OFFCURVE",
"415 257 OFFCURVE",
"415 244 CURVE SMOOTH",
"415 239 OFFCURVE",
"416 234 OFFCURVE",
"417 231 CURVE SMOOTH",
"438 168 LINE SMOOTH",
"457 112 OFFCURVE",
"489 70 OFFCURVE",
"534 42 CURVE SMOOTH",
"579 14 OFFCURVE",
"638 0 OFFCURVE",
"710 0 CURVE SMOOTH",
"797 0 OFFCURVE",
"920 56 OFFCURVE",
"1080 169 CURVE SMOOTH",
"1201 253 LINE",
"1128 -86 LINE SMOOTH",
"1124 -105 OFFCURVE",
"1122 -121 OFFCURVE",
"1122 -135 CURVE SMOOTH",
"1122 -178 OFFCURVE",
"1141 -200 OFFCURVE",
"1180 -200 CURVE SMOOTH",
"1231 -200 OFFCURVE",
"1264 -169 OFFCURVE",
"1277 -106 CURVE SMOOTH",
"1382 386 LINE SMOOTH",
"1389 420 OFFCURVE",
"1393 449 OFFCURVE",
"1393 472 CURVE SMOOTH",
"1393 524 OFFCURVE",
"1375 550 OFFCURVE",
"1340 550 CURVE SMOOTH",
"1289 550 OFFCURVE",
"1257 520 OFFCURVE",
"1245 461 CURVE",
"985 285 LINE SMOOTH",
"853 195 OFFCURVE",
"761 150 OFFCURVE",
"710 150 CURVE SMOOTH",
"637 150 OFFCURVE",
"593 176 OFFCURVE",
"576 228 CURVE SMOOTH",
"567 252 LINE",
"1196 640 LINE SMOOTH",
"1296 699 OFFCURVE",
"1373 763 OFFCURVE",
"1428 832 CURVE SMOOTH"
);
}
);
width = 1600;
}
);
note = uni178C;
unicode = 178C;
},
{
glyphname = uni178D;
lastChange = "2021-05-07 10:00:43 +0000";
layers = (
{
layerId = "982A60EF-513A-498E-AE80-A9982858EA0F";
paths = (
{
closed = 1;
nodes = (
"1444 208 LINE",
"1590 890 LINE SMOOTH",
"1606 961 OFFCURVE",
"1614 1025 OFFCURVE",
"1614 1084 CURVE SMOOTH",
"1614 1111 OFFCURVE",
"1612 1136 OFFCURVE",
"1609 1160 CURVE SMOOTH",
"1598 1237 OFFCURVE",
"1563 1313 OFFCURVE",
"1503 1388 CURVE SMOOTH",
"1442 1463 OFFCURVE",
"1386 1500 OFFCURVE",
"1334 1500 CURVE SMOOTH",
"1282 1500 OFFCURVE",
"1211 1450 OFFCURVE",
"1122 1351 CURVE",
"1077 1417 LINE",
"1046 1472 OFFCURVE",
"1002 1500 OFFCURVE",
"947 1500 CURVE SMOOTH",
"872 1500 OFFCURVE",
"811 1483 OFFCURVE",
"766 1450 CURVE SMOOTH",
"680 1382 LINE",
"607 1314 OFFCURVE",
"553 1199 OFFCURVE",
"519 1036 CURVE SMOOTH",
"343 200 LINE SMOOTH",
"338 175 OFFCURVE",
"335 153 OFFCURVE",
"335 132 CURVE SMOOTH",
"335 98 OFFCURVE",
"342 71 OFFCURVE",
"357 50 CURVE SMOOTH",
"381 17 OFFCURVE",
"424 0 OFFCURVE",
"486 0 CURVE SMOOTH",
"571 0 OFFCURVE",
"657 34 OFFCURVE",
"742 102 CURVE SMOOTH",
"827 169 OFFCURVE",
"881 263 OFFCURVE",
"903 382 CURVE SMOOTH",
"906 401 OFFCURVE",
"908 420 OFFCURVE",
"908 437 CURVE SMOOTH",
"908 520 OFFCURVE",
"872 582 OFFCURVE",
"799 625 CURVE SMOOTH",
"770 642 OFFCURVE",
"720 650 OFFCURVE",
"651 650 CURVE SMOOTH",
"630 650 OFFCURVE",
"610 645 OFFCURVE",
"590 636 CURVE",
"668 1006 LINE SMOOTH",
"696 1139 OFFCURVE",
"728 1226 OFFCURVE",
"765 1265 CURVE",
"824 1319 OFFCURVE",
"879 1347 OFFCURVE",
"930 1350 CURVE SMOOTH",
"959 1350 OFFCURVE",
"1015 1290 OFFCURVE",
"1100 1171 CURVE",
"1229 1290 OFFCURVE",
"1305 1350 OFFCURVE",
"1326 1350 CURVE SMOOTH",
"1347 1350 OFFCURVE",
"1374 1328 OFFCURVE",
"1409 1284 CURVE SMOOTH",
"1443 1240 OFFCURVE",
"1462 1189 OFFCURVE",
"1465 1131 CURVE SMOOTH",
"1466 1122 OFFCURVE",
"1466 1112 OFFCURVE",
"1466 1101 CURVE SMOOTH",
"1466 1048 OFFCURVE",
"1458 986 OFFCURVE",
"1441 914 CURVE SMOOTH",
"1267 100 LINE SMOOTH",
"1264 86 OFFCURVE",
"1263 73 OFFCURVE",
"1263 62 CURVE SMOOTH",
"1263 21 OFFCURVE",
"1283 0 OFFCURVE",
"1323 0 CURVE SMOOTH",
"1374 0 OFFCURVE",
"1432 21 OFFCURVE",
"1499 63 CURVE SMOOTH",
"1749 220 LINE",
"1920 63 LINE SMOOTH",
"1969 21 OFFCURVE",
"2019 0 OFFCURVE",
"2070 0 CURVE SMOOTH",
"2121 0 OFFCURVE",
"2153 33 OFFCURVE",
"2167 100 CURVE SMOOTH",
"2338 900 LINE SMOOTH",
"2342 920 OFFCURVE",
"2344 940 OFFCURVE",
"2344 959 CURVE SMOOTH",
"2344 994 OFFCURVE",
"2337 1027 OFFCURVE",
"2323 1058 CURVE SMOOTH",
"2301 1106 OFFCURVE",
"2262 1149 OFFCURVE",
"2205 1188 CURVE",
"2296 1286 LINE",
"2329 1247 OFFCURVE",
"2369 1228 OFFCURVE",
"2415 1228 CURVE SMOOTH",
"2424 1228 LINE SMOOTH",
"2474 1230 OFFCURVE",
"2516 1243 OFFCURVE",
"2550 1266 CURVE SMOOTH",
"2600 1300 LINE",
"2593 1299 OFFCURVE",
"2587 1299 OFFCURVE",
"2580 1299 CURVE SMOOTH",
"2539 1299 OFFCURVE",
"2499 1313 OFFCURVE",
"2458 1342 CURVE SMOOTH",
"2410 1375 OFFCURVE",
"2362 1428 OFFCURVE",
"2314 1500 CURVE",
"2286 1451 OFFCURVE",
"2242 1394 OFFCURVE",
"2183 1327 CURVE SMOOTH",
"2124 1260 OFFCURVE",
"2045 1198 OFFCURVE",
"1947 1141 CURVE",
"2036 1136 OFFCURVE",
"2102 1111 OFFCURVE",
"2144 1066 CURVE SMOOTH",
"2178 1029 OFFCURVE",
"2195 993 OFFCURVE",
"2195 957 CURVE SMOOTH",
"2195 949 OFFCURVE",
"2194 941 OFFCURVE",
"2192 933 CURVE SMOOTH",
"2028 167 LINE",
"1764 405 LINE"
);
},
{
closed = 1;
nodes = (
"554 474 OFFCURVE",
"590 500 OFFCURVE",
"651 500 CURVE SMOOTH",
"694 500 OFFCURVE",
"724 495 OFFCURVE",
"743 484 CURVE SMOOTH",
"755 477 OFFCURVE",
"761 463 OFFCURVE",
"761 442 CURVE SMOOTH",
"761 431 OFFCURVE",
"759 417 OFFCURVE",
"756 402 CURVE SMOOTH",
"739 324 OFFCURVE",
"704 263 OFFCURVE",
"653 218 CURVE SMOOTH",
"601 173 OFFCURVE",
"545 150 OFFCURVE",
"486 150 CURVE",
"543 421 LINE SMOOTH"
);
}
);
width = 2450;
}
);
note = uni178D;
unicode = 178D;
},
{
glyphname = uni178E;
lastChange = "2021-05-07 10:00:43 +0000";
layers = (
{
layerId = "982A60EF-513A-498E-AE80-A9982858EA0F";
paths = (
{
closed = 1;
nodes = (
"1164 86 OFFCURVE",
"1163 73 OFFCURVE",
"1163 62 CURVE SMOOTH",
"1163 21 OFFCURVE",
"1183 0 OFFCURVE",
"1223 0 CURVE SMOOTH",
"1274 0 OFFCURVE",
"1332 21 OFFCURVE",
"1399 63 CURVE SMOOTH",
"1717 250 LINE",
"1926 63 LINE SMOOTH",
"1975 21 OFFCURVE",
"2025 0 OFFCURVE",
"2076 0 CURVE SMOOTH",
"2127 0 OFFCURVE",
"2159 33 OFFCURVE",
"2173 100 CURVE SMOOTH",
"2404 1179 LINE SMOOTH",
"2415 1231 OFFCURVE",
"2443 1273 OFFCURVE",
"2489 1304 CURVE SMOOTH",
"2536 1335 OFFCURVE",
"2625 1350 OFFCURVE",
"2756 1350 CURVE SMOOTH",
"2883 1350 OFFCURVE",
"2972 1324 OFFCURVE",
"3023 1272 CURVE SMOOTH",
"3049 1247 OFFCURVE",
"3065 1213 OFFCURVE",
"3071 1170 CURVE SMOOTH",
"3073 1155 OFFCURVE",
"3074 1140 OFFCURVE",
"3074 1124 CURVE SMOOTH",
"3074 1093 OFFCURVE",
"3070 1058 OFFCURVE",
"3062 1019 CURVE SMOOTH",
"2910 297 LINE SMOOTH",
"2894 223 OFFCURVE",
"2870 182 OFFCURVE",
"2838 173 CURVE SMOOTH",
"2806 164 OFFCURVE",
"2785 145 OFFCURVE",
"2775 115 CURVE SMOOTH",
"2773 108 OFFCURVE",
"2772 102 OFFCURVE",
"2772 95 CURVE SMOOTH",
"2772 73 OFFCURVE",
"2785 53 OFFCURVE",
"2810 35 CURVE SMOOTH",
"2843 12 OFFCURVE",
"2883 0 OFFCURVE",
"2930 0 CURVE SMOOTH",
"2977 0 OFFCURVE",
"3007 33 OFFCURVE",
"3022 100 CURVE SMOOTH",
"3209 985 LINE SMOOTH",
"3220 1038 OFFCURVE",
"3226 1086 OFFCURVE",
"3226 1130 CURVE SMOOTH",
"3226 1158 OFFCURVE",
"3224 1185 OFFCURVE",
"3219 1210 CURVE SMOOTH",
"3207 1275 OFFCURVE",
"3180 1328 OFFCURVE",
"3137 1371 CURVE SMOOTH",
"3095 1414 OFFCURVE",
"3038 1447 OFFCURVE",
"2966 1468 CURVE SMOOTH",
"2894 1489 OFFCURVE",
"2824 1500 OFFCURVE",
"2756 1500 CURVE SMOOTH",
"2593 1500 OFFCURVE",
"2474 1475 OFFCURVE",
"2399 1425 CURVE SMOOTH",
"2324 1375 OFFCURVE",
"2276 1300 OFFCURVE",
"2255 1200 CURVE SMOOTH",
"2034 167 LINE",
"1732 435 LINE",
"1344 208 LINE",
"1511 985 LINE SMOOTH",
"1522 1038 OFFCURVE",
"1528 1086 OFFCURVE",
"1528 1130 CURVE SMOOTH",
"1528 1158 OFFCURVE",
"1526 1185 OFFCURVE",
"1521 1210 CURVE SMOOTH",
"1509 1275 OFFCURVE",
"1482 1328 OFFCURVE",
"1439 1371 CURVE SMOOTH",
"1397 1414 OFFCURVE",
"1340 1447 OFFCURVE",
"1268 1468 CURVE SMOOTH",
"1196 1489 OFFCURVE",
"1116 1500 OFFCURVE",
"1028 1500 CURVE SMOOTH",
"885 1500 OFFCURVE",
"776 1475 OFFCURVE",
"701 1425 CURVE SMOOTH",
"626 1375 OFFCURVE",
"578 1300 OFFCURVE",
"557 1200 CURVE SMOOTH",
"344 200 LINE SMOOTH",
"339 175 OFFCURVE",
"336 152 OFFCURVE",
"336 131 CURVE SMOOTH",
"336 98 OFFCURVE",
"343 71 OFFCURVE",
"358 50 CURVE SMOOTH",
"382 17 OFFCURVE",
"412 0 OFFCURVE",
"447 0 CURVE SMOOTH",
"482 0 OFFCURVE",
"532 34 OFFCURVE",
"597 101 CURVE SMOOTH",
"662 168 OFFCURVE",
"703 232 OFFCURVE",
"721 294 CURVE SMOOTH",
"727 317 OFFCURVE",
"730 338 OFFCURVE",
"730 357 CURVE SMOOTH",
"730 391 OFFCURVE",
"720 420 OFFCURVE",
"701 444 CURVE SMOOTH",
"670 481 OFFCURVE",
"636 500 OFFCURVE",
"600 500 CURVE SMOOTH",
"586 500 OFFCURVE",
"573 499 OFFCURVE",
"560 498 CURVE",
"706 1179 LINE SMOOTH",
"717 1231 OFFCURVE",
"745 1273 OFFCURVE",
"791 1304 CURVE SMOOTH",
"838 1335 OFFCURVE",
"917 1350 OFFCURVE",
"1028 1350 CURVE SMOOTH",
"1175 1350 OFFCURVE",
"1274 1324 OFFCURVE",
"1325 1272 CURVE SMOOTH",
"1351 1247 OFFCURVE",
"1367 1213 OFFCURVE",
"1373 1170 CURVE SMOOTH",
"1375 1155 OFFCURVE",
"1376 1140 OFFCURVE",
"1376 1124 CURVE SMOOTH",
"1376 1093 OFFCURVE",
"1372 1058 OFFCURVE",
"1364 1019 CURVE SMOOTH",
"1167 100 LINE SMOOTH"
);
}
);
width = 3300;
}
);
note = uni178E;
unicode = 178E;
},
{
glyphname = uni178F;
lastChange = "2021-05-07 10:00:43 +0000";
layers = (
{
layerId = "982A60EF-513A-498E-AE80-A9982858EA0F";
paths = (
{
closed = 1;
nodes = (
"694 1035 OFFCURVE",
"712 1029 OFFCURVE",
"725 1029 CURVE SMOOTH",
"734 1029 OFFCURVE",
"741 1032 OFFCURVE",
"746 1039 CURVE SMOOTH",
"749 1043 OFFCURVE",
"750 1047 OFFCURVE",
"750 1052 CURVE SMOOTH",
"750 1069 OFFCURVE",
"735 1092 OFFCURVE",
"704 1122 CURVE SMOOTH",
"643 1180 LINE",
"825 1322 LINE",
"985 1139 LINE",
"1206 1334 LINE",
"1229 1299 OFFCURVE",
"1276 1257 OFFCURVE",
"1348 1208 CURVE SMOOTH",
"1421 1159 OFFCURVE",
"1481 1131 OFFCURVE",
"1528 1122 CURVE SMOOTH",
"1546 1119 OFFCURVE",
"1561 1117 OFFCURVE",
"1572 1117 CURVE SMOOTH",
"1591 1117 OFFCURVE",
"1600 1122 OFFCURVE",
"1600 1131 CURVE SMOOTH",
"1600 1146 OFFCURVE",
"1582 1169 OFFCURVE",
"1545 1200 CURVE SMOOTH",
"1508 1231 OFFCURVE",
"1466 1272 OFFCURVE",
"1418 1324 CURVE SMOOTH",
"1371 1376 OFFCURVE",
"1338 1418 OFFCURVE",
"1320 1451 CURVE SMOOTH",
"1302 1484 OFFCURVE",
"1283 1500 OFFCURVE",
"1262 1500 CURVE SMOOTH",
"1242 1500 OFFCURVE",
"1215 1485 OFFCURVE",
"1182 1455 CURVE SMOOTH",
"1131 1409 LINE",
"1028 1318 LINE",
"949 1409 LINE SMOOTH",
"895 1470 OFFCURVE",
"859 1500 OFFCURVE",
"841 1500 CURVE SMOOTH",
"823 1500 OFFCURVE",
"800 1483 OFFCURVE",
"771 1448 CURVE SMOOTH",
"743 1413 OFFCURVE",
"700 1372 OFFCURVE",
"642 1326 CURVE SMOOTH",
"583 1279 OFFCURVE",
"486 1218 OFFCURVE",
"350 1143 CURVE",
"418 1134 LINE SMOOTH",
"463 1129 OFFCURVE",
"508 1118 OFFCURVE",
"551 1103 CURVE SMOOTH",
"594 1088 OFFCURVE",
"634 1070 OFFCURVE",
"672 1048 CURVE SMOOTH"
);
},
{
closed = 1;
nodes = (
"338 175 OFFCURVE",
"335 153 OFFCURVE",
"335 132 CURVE SMOOTH",
"335 98 OFFCURVE",
"342 71 OFFCURVE",
"357 50 CURVE SMOOTH",
"381 17 OFFCURVE",
"424 0 OFFCURVE",
"486 0 CURVE SMOOTH",
"571 0 OFFCURVE",
"650 34 OFFCURVE",
"722 102 CURVE SMOOTH",
"794 169 OFFCURVE",
"837 246 OFFCURVE",
"852 332 CURVE SMOOTH",
"856 357 OFFCURVE",
"858 380 OFFCURVE",
"858 401 CURVE SMOOTH",
"858 475 OFFCURVE",
"833 529 OFFCURVE",
"783 562 CURVE SMOOTH",
"744 587 OFFCURVE",
"689 600 OFFCURVE",
"620 600 CURVE SMOOTH",
"606 600 OFFCURVE",
"593 599 OFFCURVE",
"580 598 CURVE",
"598 679 LINE SMOOTH",
"609 731 OFFCURVE",
"637 773 OFFCURVE",
"683 804 CURVE SMOOTH",
"730 835 OFFCURVE",
"802 850 OFFCURVE",
"900 850 CURVE SMOOTH",
"1061 850 OFFCURVE",
"1166 824 OFFCURVE",
"1217 772 CURVE SMOOTH",
"1243 747 OFFCURVE",
"1259 713 OFFCURVE",
"1265 670 CURVE SMOOTH",
"1267 655 OFFCURVE",
"1268 640 OFFCURVE",
"1268 624 CURVE SMOOTH",
"1268 593 OFFCURVE",
"1264 558 OFFCURVE",
"1256 519 CURVE SMOOTH",
"1210 297 LINE SMOOTH",
"1194 223 OFFCURVE",
"1170 182 OFFCURVE",
"1138 173 CURVE SMOOTH",
"1106 164 OFFCURVE",
"1085 145 OFFCURVE",
"1075 115 CURVE SMOOTH",
"1073 108 OFFCURVE",
"1072 102 OFFCURVE",
"1072 95 CURVE SMOOTH",
"1072 73 OFFCURVE",
"1085 53 OFFCURVE",
"1110 35 CURVE SMOOTH",
"1143 12 OFFCURVE",
"1183 0 OFFCURVE",
"1230 0 CURVE SMOOTH",
"1277 0 OFFCURVE",
"1307 33 OFFCURVE",
"1322 100 CURVE SMOOTH",
"1403 485 LINE SMOOTH",
"1414 538 OFFCURVE",
"1420 586 OFFCURVE",
"1420 630 CURVE SMOOTH",
"1420 658 OFFCURVE",
"1418 685 OFFCURVE",
"1413 710 CURVE SMOOTH",
"1401 775 OFFCURVE",
"1374 828 OFFCURVE",
"1331 871 CURVE SMOOTH",
"1289 914 OFFCURVE",
"1232 947 OFFCURVE",
"1160 968 CURVE SMOOTH",
"1088 989 OFFCURVE",
"1001 1000 OFFCURVE",
"900 1000 CURVE SMOOTH",
"771 1000 OFFCURVE",
"668 975 OFFCURVE",
"593 925 CURVE SMOOTH",
"518 875 OFFCURVE",
"470 800 OFFCURVE",
"449 700 CURVE SMOOTH",
"343 200 LINE SMOOTH"
);
},
{
closed = 1;
nodes = (
"543 424 OFFCURVE",
"573 450 OFFCURVE",
"620 450 CURVE SMOOTH",
"649 450 OFFCURVE",
"673 445 OFFCURVE",
"692 434 CURVE SMOOTH",
"704 427 OFFCURVE",
"710 413 OFFCURVE",
"710 392 CURVE SMOOTH",
"710 381 OFFCURVE",
"708 367 OFFCURVE",
"705 352 CURVE SMOOTH",
"695 307 OFFCURVE",
"671 263 OFFCURVE",
"633 218 CURVE SMOOTH",
"594 173 OFFCURVE",
"545 150 OFFCURVE",
"486 150 CURVE",
"532 371 LINE SMOOTH"
);
}
);
width = 1600;
}
);
note = uni178F;
unicode = 178F;
},
{
glyphname = uni1790;
lastChange = "2021-05-07 10:00:43 +0000";
layers = (
{
layerId = "982A60EF-513A-498E-AE80-A9982858EA0F";
paths = (
{
closed = 1;
nodes = (
"694 1035 OFFCURVE",
"712 1029 OFFCURVE",
"725 1029 CURVE SMOOTH",
"734 1029 OFFCURVE",
"741 1032 OFFCURVE",
"746 1039 CURVE SMOOTH",
"749 1043 OFFCURVE",
"750 1047 OFFCURVE",
"750 1052 CURVE SMOOTH",
"750 1069 OFFCURVE",
"735 1092 OFFCURVE",
"704 1122 CURVE SMOOTH",
"660 1164 LINE",
"835 1310 LINE",
"878 1261 OFFCURVE",
"931 1222 OFFCURVE",
"994 1193 CURVE SMOOTH",
"1057 1164 OFFCURVE",
"1125 1150 OFFCURVE",
"1200 1150 CURVE SMOOTH",
"1314 1150 OFFCURVE",
"1408 1192 OFFCURVE",
"1483 1275 CURVE SMOOTH",
"1558 1358 OFFCURVE",
"1614 1482 OFFCURVE",
"1650 1649 CURVE SMOOTH",
"1656 1672 OFFCURVE",
"1659 1693 OFFCURVE",
"1659 1710 CURVE SMOOTH",
"1659 1721 OFFCURVE",
"1658 1731 OFFCURVE",
"1655 1740 CURVE SMOOTH",
"1650 1762 OFFCURVE",
"1637 1776 OFFCURVE",
"1616 1782 CURVE SMOOTH",
"1611 1783 OFFCURVE",
"1607 1784 OFFCURVE",
"1602 1784 CURVE SMOOTH",
"1588 1784 OFFCURVE",
"1575 1777 OFFCURVE",
"1562 1763 CURVE SMOOTH",
"1547 1746 OFFCURVE",
"1533 1716 OFFCURVE",
"1522 1674 CURVE SMOOTH",
"1488 1549 OFFCURVE",
"1444 1456 OFFCURVE",
"1391 1394 CURVE SMOOTH",
"1338 1331 OFFCURVE",
"1274 1300 OFFCURVE",
"1200 1300 CURVE SMOOTH",
"1148 1300 OFFCURVE",
"1101 1309 OFFCURVE",
"1059 1327 CURVE SMOOTH",
"1018 1346 OFFCURVE",
"981 1373 OFFCURVE",
"949 1409 CURVE SMOOTH",
"895 1470 OFFCURVE",
"859 1500 OFFCURVE",
"841 1500 CURVE SMOOTH",
"823 1500 OFFCURVE",
"800 1483 OFFCURVE",
"771 1448 CURVE SMOOTH",
"743 1413 OFFCURVE",
"700 1372 OFFCURVE",
"642 1326 CURVE SMOOTH",
"583 1279 OFFCURVE",
"486 1218 OFFCURVE",
"350 1143 CURVE",
"418 1134 LINE SMOOTH",
"463 1129 OFFCURVE",
"508 1118 OFFCURVE",
"551 1103 CURVE SMOOTH",
"594 1088 OFFCURVE",
"634 1070 OFFCURVE",
"672 1048 CURVE SMOOTH"
);
},
{
closed = 1;
nodes = (
"640 874 OFFCURVE",
"642 896 OFFCURVE",
"642 915 CURVE SMOOTH",
"642 950 OFFCURVE",
"634 979 OFFCURVE",
"617 1000 CURVE SMOOTH",
"598 1024 OFFCURVE",
"569 1036 OFFCURVE",
"530 1036 CURVE SMOOTH",
"517 1036 OFFCURVE",
"504 1035 OFFCURVE",
"489 1032 CURVE SMOOTH",
"430 1021 OFFCURVE",
"400 994 OFFCURVE",
"400 953 CURVE SMOOTH",
"400 912 OFFCURVE",
"413 881 OFFCURVE",
"438 860 CURVE SMOOTH",
"454 847 OFFCURVE",
"462 823 OFFCURVE",
"462 789 CURVE SMOOTH",
"462 769 OFFCURVE",
"459 745 OFFCURVE",
"453 717 CURVE SMOOTH",
"380 375 LINE SMOOTH",
"374 346 OFFCURVE",
"371 319 OFFCURVE",
"371 293 CURVE SMOOTH",
"371 267 OFFCURVE",
"374 242 OFFCURVE",
"380 219 CURVE SMOOTH",
"393 173 OFFCURVE",
"418 133 OFFCURVE",
"455 100 CURVE SMOOTH",
"529 33 OFFCURVE",
"655 0 OFFCURVE",
"832 0 CURVE SMOOTH",
"988 0 OFFCURVE",
"1111 29 OFFCURVE",
"1202 88 CURVE SMOOTH",
"1292 146 OFFCURVE",
"1349 233 OFFCURVE",
"1374 350 CURVE SMOOTH",
"1476 830 LINE SMOOTH",
"1481 851 OFFCURVE",
"1483 869 OFFCURVE",
"1483 886 CURVE SMOOTH",
"1483 919 OFFCURVE",
"1473 945 OFFCURVE",
"1454 962 CURVE SMOOTH",
"1426 987 OFFCURVE",
"1391 1000 OFFCURVE",
"1350 1000 CURVE SMOOTH",
"1303 1000 OFFCURVE",
"1267 983 OFFCURVE",
"1240 950 CURVE SMOOTH",
"1213 917 OFFCURVE",
"1200 875 OFFCURVE",
"1200 825 CURVE SMOOTH",
"1200 775 OFFCURVE",
"1232 733 OFFCURVE",
"1295 700 CURVE",
"1225 371 LINE SMOOTH",
"1210 302 OFFCURVE",
"1173 248 OFFCURVE",
"1112 209 CURVE SMOOTH",
"1051 170 OFFCURVE",
"958 150 OFFCURVE",
"832 150 CURVE SMOOTH",
"694 150 OFFCURVE",
"605 167 OFFCURVE",
"566 202 CURVE SMOOTH",
"537 228 OFFCURVE",
"523 262 OFFCURVE",
"523 304 CURVE SMOOTH",
"523 318 OFFCURVE",
"525 333 OFFCURVE",
"528 350 CURVE SMOOTH",
"635 851 LINE SMOOTH"
);
}
);
width = 1600;
}
);
note = uni1790;
unicode = 1790;
},
{
glyphname = uni1791;
lastChange = "2021-05-07 10:00:43 +0000";
layers = (
{
layerId = "982A60EF-513A-498E-AE80-A9982858EA0F";
paths = (
{
closed = 1;
nodes = (
"1035 818 OFFCURVE",
"1008 765 OFFCURVE",
"992 692 CURVE SMOOTH",
"984 652 LINE",
"863 661 OFFCURVE",
"777 699 OFFCURVE",
"727 766 CURVE SMOOTH",
"690 813 OFFCURVE",
"672 876 OFFCURVE",
"672 953 CURVE SMOOTH",
"672 996 OFFCURVE",
"678 1043 OFFCURVE",
"689 1094 CURVE SMOOTH",
"706 1175 OFFCURVE",
"742 1236 OFFCURVE",
"797 1279 CURVE SMOOTH",
"858 1326 OFFCURVE",
"942 1350 OFFCURVE",
"1050 1350 CURVE SMOOTH",
"1179 1350 OFFCURVE",
"1268 1335 OFFCURVE",
"1315 1304 CURVE SMOOTH",
"1342 1286 OFFCURVE",
"1356 1263 OFFCURVE",
"1356 1236 CURVE SMOOTH",
"1356 1229 OFFCURVE",
"1355 1222 OFFCURVE",
"1354 1215 CURVE SMOOTH",
"1347 1176 OFFCURVE",
"1331 1156 OFFCURVE",
"1306 1156 CURVE SMOOTH",
"1280 1156 OFFCURVE",
"1267 1169 OFFCURVE",
"1267 1196 CURVE SMOOTH",
"1267 1205 OFFCURVE",
"1269 1217 OFFCURVE",
"1272 1230 CURVE",
"1191 1230 OFFCURVE",
"1150 1197 OFFCURVE",
"1150 1130 CURVE SMOOTH",
"1150 1063 OFFCURVE",
"1197 1030 OFFCURVE",
"1290 1030 CURVE SMOOTH",
"1351 1030 OFFCURVE",
"1399 1043 OFFCURVE",
"1434 1069 CURVE SMOOTH",
"1468 1094 OFFCURVE",
"1490 1132 OFFCURVE",
"1501 1181 CURVE SMOOTH",
"1506 1205 OFFCURVE",
"1509 1228 OFFCURVE",
"1509 1250 CURVE SMOOTH",
"1509 1312 OFFCURVE",
"1487 1363 OFFCURVE",
"1444 1402 CURVE SMOOTH",
"1373 1467 OFFCURVE",
"1241 1500 OFFCURVE",
"1050 1500 CURVE SMOOTH",
"902 1500 OFFCURVE",
"785 1467 OFFCURVE",
"700 1402 CURVE SMOOTH",
"619 1340 OFFCURVE",
"566 1249 OFFCURVE",
"541 1129 CURVE SMOOTH",
"526 1056 OFFCURVE",
"518 990 OFFCURVE",
"518 930 CURVE SMOOTH",
"518 825 OFFCURVE",
"542 739 OFFCURVE",
"589 672 CURVE SMOOTH",
"659 575 OFFCURVE",
"780 519 OFFCURVE",
"952 504 CURVE",
"909 300 LINE SMOOTH",
"899 255 OFFCURVE",
"882 221 OFFCURVE",
"859 196 CURVE SMOOTH",
"830 165 OFFCURVE",
"790 150 OFFCURVE",
"740 150 CURVE SMOOTH",
"708 150 OFFCURVE",
"685 156 OFFCURVE",
"670 169 CURVE SMOOTH",
"657 180 OFFCURVE",
"650 196 OFFCURVE",
"650 217 CURVE SMOOTH",
"650 226 OFFCURVE",
"651 235 OFFCURVE",
"654 246 CURVE SMOOTH",
"672 333 LINE SMOOTH",
"679 366 OFFCURVE",
"682 395 OFFCURVE",
"682 420 CURVE SMOOTH",
"682 481 OFFCURVE",
"660 511 OFFCURVE",
"617 511 CURVE SMOOTH",
"572 511 OFFCURVE",
"536 503 OFFCURVE",
"510 486 CURVE SMOOTH",
"484 469 OFFCURVE",
"467 444 OFFCURVE",
"460 411 CURVE",
"503 411 OFFCURVE",
"524 398 OFFCURVE",
"524 373 CURVE SMOOTH",
"524 369 OFFCURVE",
"524 365 OFFCURVE",
"523 361 CURVE SMOOTH",
"502 268 LINE SMOOTH",
"496 239 OFFCURVE",
"493 213 OFFCURVE",
"493 189 CURVE SMOOTH",
"493 137 OFFCURVE",
"507 96 OFFCURVE",
"535 65 CURVE SMOOTH",
"575 22 OFFCURVE",
"643 0 OFFCURVE",
"740 0 CURVE SMOOTH",
"821 0 OFFCURVE",
"888 21 OFFCURVE",
"940 62 CURVE SMOOTH",
"996 108 OFFCURVE",
"1034 179 OFFCURVE",
"1054 274 CURVE SMOOTH",
"1104 502 LINE",
"1198 507 OFFCURVE",
"1269 527 OFFCURVE",
"1318 562 CURVE SMOOTH",
"1357 589 OFFCURVE",
"1382 626 OFFCURVE",
"1392 673 CURVE SMOOTH",
"1397 698 OFFCURVE",
"1400 722 OFFCURVE",
"1400 743 CURVE SMOOTH",
"1400 760 OFFCURVE",
"1398 775 OFFCURVE",
"1395 789 CURVE SMOOTH",
"1382 839 OFFCURVE",
"1349 872 OFFCURVE",
"1294 888 CURVE SMOOTH",
"1268 896 OFFCURVE",
"1237 900 OFFCURVE",
"1200 900 CURVE SMOOTH",
"1149 900 OFFCURVE",
"1106 884 OFFCURVE",
"1072 853 CURVE SMOOTH"
);
},
{
closed = 1;
nodes = (
"1175 745 OFFCURVE",
"1187 750 OFFCURVE",
"1200 750 CURVE SMOOTH",
"1232 750 OFFCURVE",
"1248 738 OFFCURVE",
"1248 714 CURVE SMOOTH",
"1248 710 OFFCURVE",
"1247 705 OFFCURVE",
"1246 700 CURVE SMOOTH",
"1241 676 OFFCURVE",
"1205 661 OFFCURVE",
"1138 654 CURVE",
"1141 668 LINE SMOOTH",
"1146 698 OFFCURVE",
"1155 720 OFFCURVE",
"1166 734 CURVE SMOOTH"
);
}
);
width = 1550;
}
);
note = uni1791;
unicode = 1791;
},
{
glyphname = uni1792;
lastChange = "2021-05-07 10:00:43 +0000";
layers = (
{
layerId = "982A60EF-513A-498E-AE80-A9982858EA0F";
paths = (
{
closed = 1;
nodes = (
"694 1035 OFFCURVE",
"712 1029 OFFCURVE",
"725 1029 CURVE SMOOTH",
"734 1029 OFFCURVE",
"741 1032 OFFCURVE",
"746 1039 CURVE SMOOTH",
"749 1043 OFFCURVE",
"750 1047 OFFCURVE",
"750 1052 CURVE SMOOTH",
"750 1069 OFFCURVE",
"735 1092 OFFCURVE",
"704 1122 CURVE SMOOTH",
"643 1180 LINE",
"825 1322 LINE",
"985 1139 LINE",
"1206 1334 LINE",
"1229 1299 OFFCURVE",
"1276 1257 OFFCURVE",
"1348 1208 CURVE SMOOTH",
"1421 1159 OFFCURVE",
"1481 1131 OFFCURVE",
"1528 1122 CURVE SMOOTH",
"1546 1119 OFFCURVE",
"1561 1117 OFFCURVE",
"1572 1117 CURVE SMOOTH",
"1591 1117 OFFCURVE",
"1600 1122 OFFCURVE",
"1600 1131 CURVE SMOOTH",
"1600 1146 OFFCURVE",
"1582 1169 OFFCURVE",
"1545 1200 CURVE SMOOTH",
"1508 1231 OFFCURVE",
"1466 1272 OFFCURVE",
"1418 1324 CURVE SMOOTH",
"1371 1376 OFFCURVE",
"1338 1418 OFFCURVE",
"1320 1451 CURVE SMOOTH",
"1302 1484 OFFCURVE",
"1283 1500 OFFCURVE",
"1262 1500 CURVE SMOOTH",
"1242 1500 OFFCURVE",
"1215 1485 OFFCURVE",
"1182 1455 CURVE SMOOTH",
"1131 1409 LINE",
"1028 1318 LINE",
"949 1409 LINE SMOOTH",
"895 1470 OFFCURVE",
"859 1500 OFFCURVE",
"841 1500 CURVE SMOOTH",
"823 1500 OFFCURVE",
"800 1483 OFFCURVE",
"771 1448 CURVE SMOOTH",
"743 1413 OFFCURVE",
"700 1372 OFFCURVE",
"642 1326 CURVE SMOOTH",
"583 1279 OFFCURVE",
"486 1218 OFFCURVE",
"350 1143 CURVE",
"418 1134 LINE SMOOTH",
"463 1129 OFFCURVE",
"508 1118 OFFCURVE",
"551 1103 CURVE SMOOTH",
"594 1088 OFFCURVE",
"634 1070 OFFCURVE",
"672 1048 CURVE SMOOTH"
);
},
{
closed = 1;
nodes = (
"1481 851 OFFCURVE",
"1483 869 OFFCURVE",
"1483 886 CURVE SMOOTH",
"1483 919 OFFCURVE",
"1473 945 OFFCURVE",
"1454 962 CURVE SMOOTH",
"1426 987 OFFCURVE",
"1391 1000 OFFCURVE",
"1350 1000 CURVE SMOOTH",
"1303 1000 OFFCURVE",
"1267 983 OFFCURVE",
"1240 950 CURVE SMOOTH",
"1213 917 OFFCURVE",
"1200 875 OFFCURVE",
"1200 825 CURVE SMOOTH",
"1200 775 OFFCURVE",
"1232 733 OFFCURVE",
"1295 700 CURVE",
"1182 167 LINE",
"868 435 LINE",
"498 208 LINE",
"635 851 LINE SMOOTH",
"640 874 OFFCURVE",
"642 896 OFFCURVE",
"642 915 CURVE SMOOTH",
"642 950 OFFCURVE",
"634 979 OFFCURVE",
"617 1000 CURVE SMOOTH",
"598 1024 OFFCURVE",
"569 1036 OFFCURVE",
"530 1036 CURVE SMOOTH",
"517 1036 OFFCURVE",
"504 1035 OFFCURVE",
"489 1032 CURVE SMOOTH",
"430 1021 OFFCURVE",
"400 994 OFFCURVE",
"400 953 CURVE SMOOTH",
"400 912 OFFCURVE",
"413 881 OFFCURVE",
"438 860 CURVE SMOOTH",
"454 847 OFFCURVE",
"462 823 OFFCURVE",
"462 789 CURVE SMOOTH",
"462 769 OFFCURVE",
"459 745 OFFCURVE",
"453 717 CURVE SMOOTH",
"321 100 LINE SMOOTH",
"318 86 OFFCURVE",
"317 73 OFFCURVE",
"317 62 CURVE SMOOTH",
"317 21 OFFCURVE",
"337 0 OFFCURVE",
"377 0 CURVE SMOOTH",
"428 0 OFFCURVE",
"486 21 OFFCURVE",
"553 63 CURVE SMOOTH",
"853 250 LINE",
"1074 63 LINE SMOOTH",
"1123 21 OFFCURVE",
"1173 0 OFFCURVE",
"1224 0 CURVE SMOOTH",
"1275 0 OFFCURVE",
"1307 33 OFFCURVE",
"1321 100 CURVE SMOOTH",
"1476 830 LINE SMOOTH"
);
}
);
width = 1600;
}
);
note = uni1792;
unicode = 1792;
},
{
glyphname = uni1793;
lastChange = "2021-05-07 10:00:43 +0000";
layers = (
{
layerId = "982A60EF-513A-498E-AE80-A9982858EA0F";
paths = (
{
closed = 1;
nodes = (
"318 88 OFFCURVE",
"317 77 OFFCURVE",
"317 68 CURVE SMOOTH",
"317 23 OFFCURVE",
"345 0 OFFCURVE",
"400 0 CURVE SMOOTH",
"435 0 OFFCURVE",
"460 33 OFFCURVE",
"475 98 CURVE SMOOTH",
"482 133 OFFCURVE",
"507 150 OFFCURVE",
"550 150 CURVE SMOOTH",
"579 150 OFFCURVE",
"620 130 OFFCURVE",
"675 91 CURVE SMOOTH",
"682 86 OFFCURVE",
"689 80 OFFCURVE",
"697 75 CURVE",
"762 25 OFFCURVE",
"840 0 OFFCURVE",
"930 0 CURVE SMOOTH",
"1021 0 OFFCURVE",
"1111 29 OFFCURVE",
"1202 88 CURVE SMOOTH",
"1292 146 OFFCURVE",
"1349 233 OFFCURVE",
"1374 350 CURVE SMOOTH",
"1387 411 OFFCURVE",
"1393 466 OFFCURVE",
"1393 515 CURVE SMOOTH",
"1393 602 OFFCURVE",
"1373 672 OFFCURVE",
"1334 725 CURVE SMOOTH",
"1271 808 OFFCURVE",
"1160 850 OFFCURVE",
"1000 850 CURVE SMOOTH",
"873 850 OFFCURVE",
"785 880 OFFCURVE",
"737 939 CURVE SMOOTH",
"708 975 OFFCURVE",
"693 1022 OFFCURVE",
"693 1080 CURVE SMOOTH",
"693 1109 OFFCURVE",
"697 1140 OFFCURVE",
"704 1175 CURVE SMOOTH",
"714 1221 OFFCURVE",
"738 1258 OFFCURVE",
"776 1286 CURVE SMOOTH",
"834 1329 OFFCURVE",
"925 1350 OFFCURVE",
"1050 1350 CURVE SMOOTH",
"1172 1350 OFFCURVE",
"1257 1332 OFFCURVE",
"1304 1295 CURVE SMOOTH",
"1334 1272 OFFCURVE",
"1349 1241 OFFCURVE",
"1349 1203 CURVE SMOOTH",
"1349 1192 OFFCURVE",
"1348 1181 OFFCURVE",
"1345 1168 CURVE SMOOTH",
"1338 1136 OFFCURVE",
"1319 1120 OFFCURVE",
"1290 1120 CURVE SMOOTH",
"1262 1120 OFFCURVE",
"1243 1137 OFFCURVE",
"1234 1170 CURVE",
"1171 1155 OFFCURVE",
"1140 1118 OFFCURVE",
"1140 1059 CURVE SMOOTH",
"1140 1000 OFFCURVE",
"1190 970 OFFCURVE",
"1290 970 CURVE SMOOTH",
"1401 970 OFFCURVE",
"1468 1027 OFFCURVE",
"1493 1140 CURVE SMOOTH",
"1500 1171 OFFCURVE",
"1503 1199 OFFCURVE",
"1503 1226 CURVE SMOOTH",
"1503 1247 OFFCURVE",
"1501 1266 OFFCURVE",
"1497 1285 CURVE SMOOTH",
"1488 1328 OFFCURVE",
"1469 1364 OFFCURVE",
"1439 1393 CURVE SMOOTH",
"1368 1464 OFFCURVE",
"1239 1500 OFFCURVE",
"1050 1500 CURVE SMOOTH",
"894 1500 OFFCURVE",
"774 1471 OFFCURVE",
"690 1413 CURVE SMOOTH",
"620 1365 OFFCURVE",
"576 1296 OFFCURVE",
"557 1207 CURVE SMOOTH",
"545 1152 OFFCURVE",
"539 1101 OFFCURVE",
"539 1054 CURVE SMOOTH",
"539 961 OFFCURVE",
"563 887 OFFCURVE",
"610 831 CURVE SMOOTH",
"683 744 OFFCURVE",
"813 700 OFFCURVE",
"1000 700 CURVE SMOOTH",
"1097 700 OFFCURVE",
"1165 673 OFFCURVE",
"1203 619 CURVE SMOOTH",
"1226 585 OFFCURVE",
"1238 540 OFFCURVE",
"1238 485 CURVE SMOOTH",
"1238 451 OFFCURVE",
"1234 413 OFFCURVE",
"1225 371 CURVE SMOOTH",
"1210 302 OFFCURVE",
"1173 248 OFFCURVE",
"1112 209 CURVE SMOOTH",
"1051 170 OFFCURVE",
"991 150 OFFCURVE",
"930 150 CURVE SMOOTH",
"857 150 OFFCURVE",
"792 171 OFFCURVE",
"737 212 CURVE SMOOTH",
"732 216 OFFCURVE",
"726 220 OFFCURVE",
"721 225 CURVE SMOOTH",
"662 275 OFFCURVE",
"605 300 OFFCURVE",
"550 300 CURVE SMOOTH",
"539 300 OFFCURVE",
"528 299 OFFCURVE",
"517 298 CURVE",
"573 557 LINE SMOOTH",
"576 573 OFFCURVE",
"578 587 OFFCURVE",
"578 600 CURVE SMOOTH",
"578 641 OFFCURVE",
"561 667 OFFCURVE",
"526 678 CURVE SMOOTH",
"503 685 OFFCURVE",
"482 688 OFFCURVE",
"461 688 CURVE SMOOTH",
"441 688 OFFCURVE",
"422 685 OFFCURVE",
"404 678 CURVE SMOOTH",
"368 664 OFFCURVE",
"350 642 OFFCURVE",
"350 612 CURVE SMOOTH",
"350 582 OFFCURVE",
"361 562 OFFCURVE",
"382 551 CURVE SMOOTH",
"398 542 OFFCURVE",
"406 527 OFFCURVE",
"406 505 CURVE SMOOTH",
"406 497 OFFCURVE",
"405 488 OFFCURVE",
"403 479 CURVE SMOOTH",
"321 99 LINE SMOOTH"
);
}
);
width = 1600;
}
);
note = uni1793;
unicode = 1793;
},
{
glyphname = uni1794;
lastChange = "2021-05-07 10:00:43 +0000";
layers = (
{
layerId = "982A60EF-513A-498E-AE80-A9982858EA0F";
paths = (
{
closed = 1;
nodes = (
"383 390 OFFCURVE",
"379 358 OFFCURVE",
"379 327 CURVE SMOOTH",
"379 237 OFFCURVE",
"411 165 OFFCURVE",
"474 110 CURVE SMOOTH",
"558 37 OFFCURVE",
"683 0 OFFCURVE",
"850 0 CURVE SMOOTH",
"1017 0 OFFCURVE",
"1140 29 OFFCURVE",
"1219 88 CURVE SMOOTH",
"1298 146 OFFCURVE",
"1349 233 OFFCURVE",
"1374 350 CURVE SMOOTH",
"1491 900 LINE SMOOTH",
"1495 920 OFFCURVE",
"1497 940 OFFCURVE",
"1497 959 CURVE SMOOTH",
"1497 994 OFFCURVE",
"1490 1027 OFFCURVE",
"1476 1058 CURVE SMOOTH",
"1454 1106 OFFCURVE",
"1415 1149 OFFCURVE",
"1358 1188 CURVE",
"1449 1286 LINE",
"1482 1247 OFFCURVE",
"1522 1228 OFFCURVE",
"1568 1228 CURVE SMOOTH",
"1577 1228 LINE SMOOTH",
"1627 1230 OFFCURVE",
"1669 1243 OFFCURVE",
"1703 1266 CURVE SMOOTH",
"1750 1300 LINE",
"1744 1299 OFFCURVE",
"1738 1299 OFFCURVE",
"1731 1299 CURVE SMOOTH",
"1692 1299 OFFCURVE",
"1652 1313 OFFCURVE",
"1611 1342 CURVE SMOOTH",
"1563 1375 OFFCURVE",
"1515 1428 OFFCURVE",
"1467 1500 CURVE",
"1439 1451 OFFCURVE",
"1395 1394 OFFCURVE",
"1336 1327 CURVE SMOOTH",
"1277 1260 OFFCURVE",
"1198 1198 OFFCURVE",
"1100 1141 CURVE",
"1189 1136 OFFCURVE",
"1255 1111 OFFCURVE",
"1297 1066 CURVE SMOOTH",
"1331 1029 OFFCURVE",
"1348 993 OFFCURVE",
"1348 957 CURVE SMOOTH",
"1348 949 OFFCURVE",
"1347 941 OFFCURVE",
"1345 933 CURVE SMOOTH",
"1227 375 LINE SMOOTH",
"1211 300 OFFCURVE",
"1177 244 OFFCURVE",
"1126 206 CURVE SMOOTH",
"1075 169 OFFCURVE",
"983 150 OFFCURVE",
"850 150 CURVE SMOOTH",
"720 150 OFFCURVE",
"631 171 OFFCURVE",
"584 213 CURVE SMOOTH",
"549 243 OFFCURVE",
"532 285 OFFCURVE",
"532 338 CURVE SMOOTH",
"532 357 OFFCURVE",
"534 377 OFFCURVE",
"539 400 CURVE SMOOTH",
"645 900 LINE SMOOTH",
"649 920 OFFCURVE",
"651 940 OFFCURVE",
"651 959 CURVE SMOOTH",
"651 994 OFFCURVE",
"644 1027 OFFCURVE",
"630 1058 CURVE SMOOTH",
"608 1106 OFFCURVE",
"569 1149 OFFCURVE",
"512 1188 CURVE",
"603 1286 LINE",
"636 1248 OFFCURVE",
"684 1229 OFFCURVE",
"747 1229 CURVE SMOOTH",
"762 1229 LINE SMOOTH",
"833 1232 OFFCURVE",
"897 1269 OFFCURVE",
"954 1340 CURVE",
"923 1327 OFFCURVE",
"893 1321 OFFCURVE",
"865 1321 CURVE SMOOTH",
"833 1321 OFFCURVE",
"803 1329 OFFCURVE",
"774 1346 CURVE SMOOTH",
"720 1377 OFFCURVE",
"669 1428 OFFCURVE",
"621 1500 CURVE",
"593 1451 OFFCURVE",
"549 1394 OFFCURVE",
"490 1327 CURVE SMOOTH",
"431 1260 OFFCURVE",
"352 1198 OFFCURVE",
"254 1141 CURVE",
"343 1136 OFFCURVE",
"409 1111 OFFCURVE",
"451 1066 CURVE SMOOTH",
"485 1029 OFFCURVE",
"502 993 OFFCURVE",
"502 957 CURVE SMOOTH",
"502 949 OFFCURVE",
"501 941 OFFCURVE",
"499 933 CURVE SMOOTH",
"390 425 LINE SMOOTH"
);
}
);
width = 1600;
}
);
note = uni1794;
unicode = 1794;
},
{
glyphname = uni1795;
lastChange = "2021-05-07 10:00:43 +0000";
layers = (
{
layerId = "982A60EF-513A-498E-AE80-A9982858EA0F";
paths = (
{
closed = 1;
nodes = (
"695 1035 OFFCURVE",
"713 1029 OFFCURVE",
"726 1029 CURVE SMOOTH",
"735 1029 OFFCURVE",
"742 1032 OFFCURVE",
"747 1039 CURVE SMOOTH",
"750 1043 OFFCURVE",
"751 1047 OFFCURVE",
"751 1052 CURVE SMOOTH",
"751 1069 OFFCURVE",
"736 1092 OFFCURVE",
"705 1122 CURVE SMOOTH",
"661 1164 LINE",
"836 1310 LINE",
"879 1261 OFFCURVE",
"932 1222 OFFCURVE",
"995 1193 CURVE SMOOTH",
"1058 1164 OFFCURVE",
"1126 1150 OFFCURVE",
"1201 1150 CURVE SMOOTH",
"1315 1150 OFFCURVE",
"1409 1192 OFFCURVE",
"1484 1275 CURVE SMOOTH",
"1559 1358 OFFCURVE",
"1615 1482 OFFCURVE",
"1651 1649 CURVE SMOOTH",
"1657 1672 OFFCURVE",
"1660 1693 OFFCURVE",
"1660 1710 CURVE SMOOTH",
"1660 1721 OFFCURVE",
"1659 1731 OFFCURVE",
"1656 1740 CURVE SMOOTH",
"1651 1762 OFFCURVE",
"1638 1776 OFFCURVE",
"1617 1782 CURVE SMOOTH",
"1612 1783 OFFCURVE",
"1608 1784 OFFCURVE",
"1603 1784 CURVE SMOOTH",
"1589 1784 OFFCURVE",
"1576 1777 OFFCURVE",
"1563 1763 CURVE SMOOTH",
"1548 1746 OFFCURVE",
"1534 1716 OFFCURVE",
"1523 1674 CURVE SMOOTH",
"1489 1549 OFFCURVE",
"1445 1456 OFFCURVE",
"1392 1394 CURVE SMOOTH",
"1339 1331 OFFCURVE",
"1275 1300 OFFCURVE",
"1201 1300 CURVE SMOOTH",
"1149 1300 OFFCURVE",
"1102 1309 OFFCURVE",
"1060 1327 CURVE SMOOTH",
"1019 1346 OFFCURVE",
"982 1373 OFFCURVE",
"950 1409 CURVE SMOOTH",
"896 1470 OFFCURVE",
"860 1500 OFFCURVE",
"842 1500 CURVE SMOOTH",
"824 1500 OFFCURVE",
"801 1483 OFFCURVE",
"772 1448 CURVE SMOOTH",
"744 1413 OFFCURVE",
"701 1372 OFFCURVE",
"643 1326 CURVE SMOOTH",
"584 1279 OFFCURVE",
"487 1218 OFFCURVE",
"351 1143 CURVE",
"419 1134 LINE SMOOTH",
"464 1129 OFFCURVE",
"509 1118 OFFCURVE",
"552 1103 CURVE SMOOTH",
"595 1088 OFFCURVE",
"635 1070 OFFCURVE",
"673 1048 CURVE SMOOTH"
);
},
{
closed = 1;
nodes = (
"1466 778 OFFCURVE",
"1469 806 OFFCURVE",
"1469 831 CURVE SMOOTH",
"1469 875 OFFCURVE",
"1459 910 OFFCURVE",
"1439 937 CURVE SMOOTH",
"1408 979 OFFCURVE",
"1362 1000 OFFCURVE",
"1301 1000 CURVE SMOOTH",
"1251 1000 OFFCURVE",
"1202 983 OFFCURVE",
"1153 949 CURVE SMOOTH",
"1104 915 OFFCURVE",
"1065 858 OFFCURVE",
"1035 778 CURVE SMOOTH",
"1022 743 OFFCURVE",
"1015 711 OFFCURVE",
"1015 682 CURVE SMOOTH",
"1015 645 OFFCURVE",
"1026 612 OFFCURVE",
"1048 585 CURVE SMOOTH",
"1087 536 OFFCURVE",
"1156 508 OFFCURVE",
"1254 501 CURVE",
"1183 167 LINE",
"869 435 LINE",
"499 208 LINE",
"636 851 LINE SMOOTH",
"641 874 OFFCURVE",
"643 896 OFFCURVE",
"643 915 CURVE SMOOTH",
"643 950 OFFCURVE",
"635 979 OFFCURVE",
"618 1000 CURVE SMOOTH",
"599 1024 OFFCURVE",
"570 1036 OFFCURVE",
"531 1036 CURVE SMOOTH",
"518 1036 OFFCURVE",
"505 1035 OFFCURVE",
"490 1032 CURVE SMOOTH",
"431 1021 OFFCURVE",
"401 994 OFFCURVE",
"401 953 CURVE SMOOTH",
"401 912 OFFCURVE",
"414 881 OFFCURVE",
"439 860 CURVE SMOOTH",
"455 847 OFFCURVE",
"463 823 OFFCURVE",
"463 789 CURVE SMOOTH",
"463 769 OFFCURVE",
"460 745 OFFCURVE",
"454 717 CURVE SMOOTH",
"322 100 LINE SMOOTH",
"319 86 OFFCURVE",
"318 73 OFFCURVE",
"318 62 CURVE SMOOTH",
"318 21 OFFCURVE",
"338 0 OFFCURVE",
"378 0 CURVE SMOOTH",
"429 0 OFFCURVE",
"487 21 OFFCURVE",
"554 63 CURVE SMOOTH",
"854 250 LINE",
"1075 63 LINE SMOOTH",
"1124 21 OFFCURVE",
"1174 0 OFFCURVE",
"1225 0 CURVE SMOOTH",
"1276 0 OFFCURVE",
"1308 33 OFFCURVE",
"1322 100 CURVE SMOOTH",
"1459 747 LINE SMOOTH"
);
},
{
closed = 1;
nodes = (
"1238 652 OFFCURVE",
"1204 661 OFFCURVE",
"1183 678 CURVE SMOOTH",
"1173 686 OFFCURVE",
"1168 698 OFFCURVE",
"1168 714 CURVE SMOOTH",
"1168 731 OFFCURVE",
"1173 752 OFFCURVE",
"1184 777 CURVE SMOOTH",
"1204 826 OFFCURVE",
"1243 850 OFFCURVE",
"1301 850 CURVE SMOOTH",
"1312 850 OFFCURVE",
"1317 840 OFFCURVE",
"1317 820 CURVE SMOOTH",
"1317 807 OFFCURVE",
"1315 789 OFFCURVE",
"1310 766 CURVE SMOOTH",
"1286 650 LINE"
);
}
);
width = 1600;
}
);
note = uni1795;
unicode = 1795;
},
{
glyphname = uni1796;
lastChange = "2021-05-07 10:00:43 +0000";
layers = (
{
layerId = "982A60EF-513A-498E-AE80-A9982858EA0F";
paths = (
{
closed = 1;
nodes = (
"338 175 OFFCURVE",
"335 153 OFFCURVE",
"335 132 CURVE SMOOTH",
"335 98 OFFCURVE",
"342 71 OFFCURVE",
"357 50 CURVE SMOOTH",
"381 17 OFFCURVE",
"424 0 OFFCURVE",
"486 0 CURVE SMOOTH",
"551 0 OFFCURVE",
"637 42 OFFCURVE",
"742 127 CURVE SMOOTH",
"827 194 OFFCURVE",
"881 279 OFFCURVE",
"903 382 CURVE SMOOTH",
"906 401 OFFCURVE",
"908 420 OFFCURVE",
"908 437 CURVE SMOOTH",
"908 520 OFFCURVE",
"872 582 OFFCURVE",
"799 625 CURVE SMOOTH",
"770 642 OFFCURVE",
"720 650 OFFCURVE",
"651 650 CURVE SMOOTH",
"630 650 OFFCURVE",
"610 645 OFFCURVE",
"590 636 CURVE",
"668 1006 LINE SMOOTH",
"696 1150 OFFCURVE",
"722 1232 OFFCURVE",
"746 1253 CURVE SMOOTH",
"818 1315 LINE SMOOTH",
"842 1336 OFFCURVE",
"869 1347 OFFCURVE",
"900 1350 CURVE",
"929 1350 OFFCURVE",
"986 1283 OFFCURVE",
"1071 1150 CURVE",
"1220 1283 OFFCURVE",
"1305 1350 OFFCURVE",
"1326 1350 CURVE SMOOTH",
"1347 1350 OFFCURVE",
"1377 1329 OFFCURVE",
"1416 1286 CURVE SMOOTH",
"1455 1238 OFFCURVE",
"1476 1185 OFFCURVE",
"1479 1127 CURVE",
"1478 1095 OFFCURVE",
"1466 1024 OFFCURVE",
"1441 914 CURVE SMOOTH",
"1310 297 LINE SMOOTH",
"1294 223 OFFCURVE",
"1270 182 OFFCURVE",
"1238 173 CURVE SMOOTH",
"1206 164 OFFCURVE",
"1185 145 OFFCURVE",
"1175 115 CURVE SMOOTH",
"1173 108 OFFCURVE",
"1172 102 OFFCURVE",
"1172 95 CURVE SMOOTH",
"1172 73 OFFCURVE",
"1185 53 OFFCURVE",
"1210 35 CURVE SMOOTH",
"1243 12 OFFCURVE",
"1283 0 OFFCURVE",
"1330 0 CURVE SMOOTH",
"1377 0 OFFCURVE",
"1407 33 OFFCURVE",
"1422 100 CURVE SMOOTH",
"1590 890 LINE SMOOTH",
"1613 994 OFFCURVE",
"1625 1072 OFFCURVE",
"1625 1125 CURVE SMOOTH",
"1625 1136 OFFCURVE",
"1624 1147 OFFCURVE",
"1623 1156 CURVE SMOOTH",
"1612 1233 OFFCURVE",
"1575 1311 OFFCURVE",
"1510 1390 CURVE SMOOTH",
"1445 1463 OFFCURVE",
"1386 1500 OFFCURVE",
"1334 1500 CURVE SMOOTH",
"1282 1500 OFFCURVE",
"1203 1447 OFFCURVE",
"1097 1340 CURVE",
"1047 1417 LINE",
"1016 1472 OFFCURVE",
"967 1500 OFFCURVE",
"900 1500 CURVE SMOOTH",
"856 1500 OFFCURVE",
"807 1477 OFFCURVE",
"754 1432 CURVE SMOOTH",
"653 1350 LINE SMOOTH",
"598 1303 OFFCURVE",
"553 1199 OFFCURVE",
"519 1036 CURVE SMOOTH",
"343 200 LINE SMOOTH"
);
},
{
closed = 1;
nodes = (
"554 474 OFFCURVE",
"590 500 OFFCURVE",
"651 500 CURVE SMOOTH",
"694 500 OFFCURVE",
"724 495 OFFCURVE",
"743 484 CURVE SMOOTH",
"755 477 OFFCURVE",
"761 463 OFFCURVE",
"761 442 CURVE SMOOTH",
"761 431 OFFCURVE",
"759 417 OFFCURVE",
"756 402 CURVE SMOOTH",
"739 341 OFFCURVE",
"704 288 OFFCURVE",
"653 243 CURVE SMOOTH",
"581 181 OFFCURVE",
"525 150 OFFCURVE",
"486 150 CURVE",
"543 421 LINE SMOOTH"
);
}
);
width = 1700;
}
);
note = uni1796;
unicode = 1796;
},
{
glyphname = uni1797;
lastChange = "2021-05-07 10:00:43 +0000";
layers = (
{
layerId = "982A60EF-513A-498E-AE80-A9982858EA0F";
paths = (
{
closed = 1;
nodes = (
"644 1035 OFFCURVE",
"662 1029 OFFCURVE",
"675 1029 CURVE SMOOTH",
"684 1029 OFFCURVE",
"691 1032 OFFCURVE",
"696 1039 CURVE SMOOTH",
"699 1043 OFFCURVE",
"700 1047 OFFCURVE",
"700 1052 CURVE SMOOTH",
"700 1069 OFFCURVE",
"685 1092 OFFCURVE",
"654 1122 CURVE SMOOTH",
"593 1180 LINE",
"775 1322 LINE",
"935 1139 LINE",
"1156 1334 LINE",
"1179 1299 OFFCURVE",
"1226 1257 OFFCURVE",
"1298 1208 CURVE SMOOTH",
"1371 1159 OFFCURVE",
"1431 1131 OFFCURVE",
"1478 1122 CURVE SMOOTH",
"1496 1119 OFFCURVE",
"1511 1117 OFFCURVE",
"1522 1117 CURVE SMOOTH",
"1541 1117 OFFCURVE",
"1550 1122 OFFCURVE",
"1550 1131 CURVE SMOOTH",
"1550 1146 OFFCURVE",
"1532 1169 OFFCURVE",
"1495 1200 CURVE SMOOTH",
"1458 1231 OFFCURVE",
"1416 1272 OFFCURVE",
"1368 1324 CURVE SMOOTH",
"1321 1376 OFFCURVE",
"1288 1418 OFFCURVE",
"1270 1451 CURVE SMOOTH",
"1252 1484 OFFCURVE",
"1233 1500 OFFCURVE",
"1212 1500 CURVE SMOOTH",
"1192 1500 OFFCURVE",
"1165 1485 OFFCURVE",
"1132 1455 CURVE SMOOTH",
"1081 1409 LINE",
"978 1318 LINE",
"899 1409 LINE SMOOTH",
"845 1470 OFFCURVE",
"809 1500 OFFCURVE",
"791 1500 CURVE SMOOTH",
"773 1500 OFFCURVE",
"750 1483 OFFCURVE",
"721 1448 CURVE SMOOTH",
"693 1413 OFFCURVE",
"650 1372 OFFCURVE",
"592 1326 CURVE SMOOTH",
"533 1279 OFFCURVE",
"436 1218 OFFCURVE",
"300 1143 CURVE",
"368 1134 LINE SMOOTH",
"413 1129 OFFCURVE",
"458 1118 OFFCURVE",
"501 1103 CURVE SMOOTH",
"544 1088 OFFCURVE",
"584 1070 OFFCURVE",
"622 1048 CURVE SMOOTH"
);
},
{
closed = 1;
nodes = (
"387 518 OFFCURVE",
"366 522 OFFCURVE",
"346 522 CURVE SMOOTH",
"315 522 OFFCURVE",
"287 512 OFFCURVE",
"262 493 CURVE SMOOTH",
"221 462 OFFCURVE",
"200 411 OFFCURVE",
"200 342 CURVE SMOOTH",
"200 272 OFFCURVE",
"215 198 OFFCURVE",
"246 119 CURVE SMOOTH",
"277 40 OFFCURVE",
"317 0 OFFCURVE",
"366 0 CURVE SMOOTH",
"389 0 OFFCURVE",
"411 8 OFFCURVE",
"432 25 CURVE SMOOTH",
"453 41 OFFCURVE",
"471 83 OFFCURVE",
"485 150 CURVE SMOOTH",
"598 679 LINE SMOOTH",
"609 731 OFFCURVE",
"637 773 OFFCURVE",
"683 804 CURVE SMOOTH",
"730 835 OFFCURVE",
"802 850 OFFCURVE",
"900 850 CURVE SMOOTH",
"1061 850 OFFCURVE",
"1166 824 OFFCURVE",
"1217 772 CURVE SMOOTH",
"1243 747 OFFCURVE",
"1259 713 OFFCURVE",
"1265 670 CURVE SMOOTH",
"1267 655 OFFCURVE",
"1268 640 OFFCURVE",
"1268 624 CURVE SMOOTH",
"1268 593 OFFCURVE",
"1264 558 OFFCURVE",
"1256 519 CURVE SMOOTH",
"1210 297 LINE SMOOTH",
"1194 223 OFFCURVE",
"1170 182 OFFCURVE",
"1138 173 CURVE SMOOTH",
"1106 164 OFFCURVE",
"1085 145 OFFCURVE",
"1075 115 CURVE SMOOTH",
"1073 108 OFFCURVE",
"1072 102 OFFCURVE",
"1072 95 CURVE SMOOTH",
"1072 73 OFFCURVE",
"1085 53 OFFCURVE",
"1110 35 CURVE SMOOTH",
"1143 12 OFFCURVE",
"1183 0 OFFCURVE",
"1230 0 CURVE SMOOTH",
"1277 0 OFFCURVE",
"1307 33 OFFCURVE",
"1322 100 CURVE SMOOTH",
"1403 485 LINE SMOOTH",
"1414 538 OFFCURVE",
"1420 586 OFFCURVE",
"1420 630 CURVE SMOOTH",
"1420 658 OFFCURVE",
"1418 685 OFFCURVE",
"1413 710 CURVE SMOOTH",
"1401 775 OFFCURVE",
"1374 828 OFFCURVE",
"1331 871 CURVE SMOOTH",
"1289 914 OFFCURVE",
"1232 947 OFFCURVE",
"1160 968 CURVE SMOOTH",
"1088 989 OFFCURVE",
"1001 1000 OFFCURVE",
"900 1000 CURVE SMOOTH",
"771 1000 OFFCURVE",
"668 975 OFFCURVE",
"593 925 CURVE SMOOTH",
"518 875 OFFCURVE",
"470 800 OFFCURVE",
"449 700 CURVE SMOOTH",
"409 510 LINE"
);
}
);
width = 1600;
}
);
note = uni1797;
unicode = 1797;
},
{
glyphname = uni1798;
lastChange = "2021-05-07 10:00:43 +0000";
layers = (
{
layerId = "982A60EF-513A-498E-AE80-A9982858EA0F";
paths = (
{
closed = 1;
nodes = (
"649 920 OFFCURVE",
"651 940 OFFCURVE",
"651 959 CURVE SMOOTH",
"651 994 OFFCURVE",
"644 1027 OFFCURVE",
"630 1058 CURVE SMOOTH",
"608 1106 OFFCURVE",
"569 1149 OFFCURVE",
"512 1188 CURVE",
"603 1286 LINE",
"636 1248 OFFCURVE",
"684 1229 OFFCURVE",
"747 1229 CURVE SMOOTH",
"762 1229 LINE SMOOTH",
"833 1232 OFFCURVE",
"897 1269 OFFCURVE",
"954 1340 CURVE",
"923 1327 OFFCURVE",
"893 1321 OFFCURVE",
"865 1321 CURVE SMOOTH",
"833 1321 OFFCURVE",
"803 1329 OFFCURVE",
"774 1346 CURVE SMOOTH",
"720 1377 OFFCURVE",
"669 1428 OFFCURVE",
"621 1500 CURVE",
"593 1451 OFFCURVE",
"549 1394 OFFCURVE",
"490 1327 CURVE SMOOTH",
"431 1260 OFFCURVE",
"352 1198 OFFCURVE",
"254 1141 CURVE",
"343 1136 OFFCURVE",
"409 1111 OFFCURVE",
"451 1066 CURVE SMOOTH",
"485 1029 OFFCURVE",
"502 993 OFFCURVE",
"502 957 CURVE SMOOTH",
"502 949 OFFCURVE",
"501 941 OFFCURVE",
"499 933 CURVE SMOOTH",
"390 425 LINE SMOOTH",
"383 390 OFFCURVE",
"379 358 OFFCURVE",
"379 327 CURVE SMOOTH",
"379 237 OFFCURVE",
"411 165 OFFCURVE",
"474 110 CURVE SMOOTH",
"558 37 OFFCURVE",
"683 0 OFFCURVE",
"850 0 CURVE SMOOTH",
"1017 0 OFFCURVE",
"1140 29 OFFCURVE",
"1219 88 CURVE SMOOTH",
"1298 146 OFFCURVE",
"1349 233 OFFCURVE",
"1374 350 CURVE SMOOTH",
"1491 900 LINE SMOOTH",
"1495 920 OFFCURVE",
"1497 940 OFFCURVE",
"1497 959 CURVE SMOOTH",
"1497 994 OFFCURVE",
"1490 1027 OFFCURVE",
"1476 1058 CURVE SMOOTH",
"1454 1106 OFFCURVE",
"1415 1149 OFFCURVE",
"1358 1188 CURVE",
"1449 1286 LINE",
"1482 1247 OFFCURVE",
"1522 1228 OFFCURVE",
"1568 1228 CURVE SMOOTH",
"1577 1228 LINE SMOOTH",
"1627 1230 OFFCURVE",
"1669 1243 OFFCURVE",
"1703 1266 CURVE SMOOTH",
"1750 1300 LINE",
"1744 1299 OFFCURVE",
"1738 1299 OFFCURVE",
"1731 1299 CURVE SMOOTH",
"1692 1299 OFFCURVE",
"1652 1313 OFFCURVE",
"1611 1342 CURVE SMOOTH",
"1563 1375 OFFCURVE",
"1515 1428 OFFCURVE",
"1467 1500 CURVE",
"1439 1451 OFFCURVE",
"1395 1394 OFFCURVE",
"1336 1327 CURVE SMOOTH",
"1277 1260 OFFCURVE",
"1198 1198 OFFCURVE",
"1100 1141 CURVE",
"1189 1136 OFFCURVE",
"1255 1111 OFFCURVE",
"1297 1066 CURVE SMOOTH",
"1331 1029 OFFCURVE",
"1348 993 OFFCURVE",
"1348 957 CURVE SMOOTH",
"1348 949 OFFCURVE",
"1347 941 OFFCURVE",
"1345 933 CURVE SMOOTH",
"1317 800 LINE",
"624 800 LINE",
"645 900 LINE SMOOTH"
);
},
{
closed = 1;
nodes = (
"1211 300 OFFCURVE",
"1177 244 OFFCURVE",
"1126 206 CURVE SMOOTH",
"1075 169 OFFCURVE",
"983 150 OFFCURVE",
"850 150 CURVE SMOOTH",
"720 150 OFFCURVE",
"631 171 OFFCURVE",
"584 213 CURVE SMOOTH",
"549 243 OFFCURVE",
"532 285 OFFCURVE",
"532 338 CURVE SMOOTH",
"532 357 OFFCURVE",
"534 377 OFFCURVE",
"539 400 CURVE SMOOTH",
"592 650 LINE",
"1285 650 LINE",
"1227 375 LINE SMOOTH"
);
}
);
width = 1600;
}
);
note = uni1798;
unicode = 1798;
},
{
glyphname = uni1799;
lastChange = "2021-05-07 10:00:43 +0000";
layers = (
{
layerId = "982A60EF-513A-498E-AE80-A9982858EA0F";
paths = (
{
closed = 1;
nodes = (
"397 467 OFFCURVE",
"390 417 OFFCURVE",
"390 370 CURVE SMOOTH",
"390 337 OFFCURVE",
"393 306 OFFCURVE",
"400 277 CURVE SMOOTH",
"416 206 OFFCURVE",
"453 142 OFFCURVE",
"512 85 CURVE SMOOTH",
"571 28 OFFCURVE",
"683 0 OFFCURVE",
"850 0 CURVE SMOOTH",
"963 0 OFFCURVE",
"1050 10 OFFCURVE",
"1110 31 CURVE SMOOTH",
"1171 52 OFFCURVE",
"1221 84 OFFCURVE",
"1262 126 CURVE",
"1294 84 OFFCURVE",
"1342 52 OFFCURVE",
"1406 31 CURVE SMOOTH",
"1470 10 OFFCURVE",
"1557 0 OFFCURVE",
"1667 0 CURVE SMOOTH",
"1820 0 OFFCURVE",
"1937 29 OFFCURVE",
"2016 88 CURVE SMOOTH",
"2095 146 OFFCURVE",
"2146 233 OFFCURVE",
"2171 350 CURVE SMOOTH",
"2288 900 LINE SMOOTH",
"2292 920 OFFCURVE",
"2294 940 OFFCURVE",
"2294 959 CURVE SMOOTH",
"2294 994 OFFCURVE",
"2287 1027 OFFCURVE",
"2273 1058 CURVE SMOOTH",
"2251 1106 OFFCURVE",
"2212 1149 OFFCURVE",
"2155 1188 CURVE",
"2246 1286 LINE",
"2279 1247 OFFCURVE",
"2319 1228 OFFCURVE",
"2365 1228 CURVE SMOOTH",
"2374 1228 LINE SMOOTH",
"2424 1230 OFFCURVE",
"2466 1243 OFFCURVE",
"2500 1266 CURVE SMOOTH",
"2550 1300 LINE",
"2543 1299 OFFCURVE",
"2537 1299 OFFCURVE",
"2530 1299 CURVE SMOOTH",
"2489 1299 OFFCURVE",
"2449 1313 OFFCURVE",
"2408 1342 CURVE SMOOTH",
"2360 1375 OFFCURVE",
"2312 1428 OFFCURVE",
"2264 1500 CURVE",
"2236 1451 OFFCURVE",
"2192 1394 OFFCURVE",
"2133 1327 CURVE SMOOTH",
"2074 1260 OFFCURVE",
"1995 1198 OFFCURVE",
"1897 1141 CURVE",
"1986 1136 OFFCURVE",
"2052 1111 OFFCURVE",
"2094 1066 CURVE SMOOTH",
"2128 1029 OFFCURVE",
"2145 993 OFFCURVE",
"2145 957 CURVE SMOOTH",
"2145 949 OFFCURVE",
"2144 941 OFFCURVE",
"2142 933 CURVE SMOOTH",
"2024 375 LINE SMOOTH",
"2008 300 OFFCURVE",
"1973 244 OFFCURVE",
"1918 206 CURVE SMOOTH",
"1863 169 OFFCURVE",
"1780 150 OFFCURVE",
"1667 150 CURVE SMOOTH",
"1549 150 OFFCURVE",
"1467 167 OFFCURVE",
"1422 200 CURVE SMOOTH",
"1387 226 OFFCURVE",
"1369 262 OFFCURVE",
"1369 307 CURVE SMOOTH",
"1369 320 OFFCURVE",
"1371 335 OFFCURVE",
"1374 350 CURVE SMOOTH",
"1491 900 LINE SMOOTH",
"1495 920 OFFCURVE",
"1497 940 OFFCURVE",
"1497 959 CURVE SMOOTH",
"1497 994 OFFCURVE",
"1490 1027 OFFCURVE",
"1476 1058 CURVE SMOOTH",
"1454 1106 OFFCURVE",
"1415 1149 OFFCURVE",
"1358 1188 CURVE",
"1449 1286 LINE",
"1482 1248 OFFCURVE",
"1530 1229 OFFCURVE",
"1593 1229 CURVE SMOOTH",
"1608 1229 LINE SMOOTH",
"1679 1232 OFFCURVE",
"1743 1269 OFFCURVE",
"1800 1340 CURVE",
"1769 1327 OFFCURVE",
"1739 1321 OFFCURVE",
"1711 1321 CURVE SMOOTH",
"1679 1321 OFFCURVE",
"1649 1329 OFFCURVE",
"1620 1346 CURVE SMOOTH",
"1566 1377 OFFCURVE",
"1515 1428 OFFCURVE",
"1467 1500 CURVE",
"1439 1451 OFFCURVE",
"1395 1394 OFFCURVE",
"1336 1327 CURVE SMOOTH",
"1277 1260 OFFCURVE",
"1198 1198 OFFCURVE",
"1100 1141 CURVE",
"1189 1136 OFFCURVE",
"1255 1111 OFFCURVE",
"1297 1066 CURVE SMOOTH",
"1331 1029 OFFCURVE",
"1348 993 OFFCURVE",
"1348 957 CURVE SMOOTH",
"1348 949 OFFCURVE",
"1347 941 OFFCURVE",
"1345 933 CURVE SMOOTH",
"1222 356 LINE",
"1203 287 OFFCURVE",
"1167 236 OFFCURVE",
"1114 201 CURVE SMOOTH",
"1060 167 OFFCURVE",
"972 150 OFFCURVE",
"850 150 CURVE SMOOTH",
"725 150 OFFCURVE",
"640 181 OFFCURVE",
"594 243 CURVE SMOOTH",
"563 284 OFFCURVE",
"548 334 OFFCURVE",
"548 395 CURVE SMOOTH",
"548 426 OFFCURVE",
"552 459 OFFCURVE",
"560 495 CURVE SMOOTH",
"698 1155 LINE",
"715 1146 OFFCURVE",
"732 1142 OFFCURVE",
"751 1142 CURVE SMOOTH",
"772 1142 OFFCURVE",
"795 1148 OFFCURVE",
"818 1159 CURVE SMOOTH",
"862 1179 OFFCURVE",
"892 1216 OFFCURVE",
"907 1270 CURVE SMOOTH",
"913 1290 OFFCURVE",
"916 1310 OFFCURVE",
"916 1330 CURVE SMOOTH",
"916 1362 OFFCURVE",
"908 1394 OFFCURVE",
"892 1425 CURVE SMOOTH",
"866 1475 OFFCURVE",
"822 1500 OFFCURVE",
"760 1500 CURVE SMOOTH",
"665 1500 OFFCURVE",
"605 1439 OFFCURVE",
"579 1316 CURVE SMOOTH",
"411 520 LINE"
);
}
);
width = 2400;
}
);
note = uni1799;
unicode = 1799;
},
{
glyphname = uni179A;
lastChange = "2021-05-07 10:00:43 +0000";
layers = (
{
layerId = "982A60EF-513A-498E-AE80-A9982858EA0F";
paths = (
{
closed = 1;
nodes = (
"741 920 OFFCURVE",
"743 940 OFFCURVE",
"743 959 CURVE SMOOTH",
"743 994 OFFCURVE",
"736 1027 OFFCURVE",
"722 1058 CURVE SMOOTH",
"700 1106 OFFCURVE",
"661 1149 OFFCURVE",
"604 1188 CURVE",
"695 1286 LINE",
"728 1247 OFFCURVE",
"768 1228 OFFCURVE",
"814 1228 CURVE SMOOTH",
"823 1228 LINE SMOOTH",
"873 1230 OFFCURVE",
"915 1243 OFFCURVE",
"949 1266 CURVE SMOOTH",
"999 1300 LINE",
"992 1299 OFFCURVE",
"986 1299 OFFCURVE",
"979 1299 CURVE SMOOTH",
"938 1299 OFFCURVE",
"898 1313 OFFCURVE",
"857 1342 CURVE SMOOTH",
"809 1375 OFFCURVE",
"761 1428 OFFCURVE",
"713 1500 CURVE",
"685 1451 OFFCURVE",
"641 1394 OFFCURVE",
"582 1327 CURVE SMOOTH",
"523 1260 OFFCURVE",
"444 1198 OFFCURVE",
"346 1141 CURVE",
"435 1136 OFFCURVE",
"501 1111 OFFCURVE",
"543 1066 CURVE SMOOTH",
"577 1029 OFFCURVE",
"594 993 OFFCURVE",
"594 957 CURVE SMOOTH",
"594 949 OFFCURVE",
"593 941 OFFCURVE",
"591 933 CURVE SMOOTH",
"501 510 LINE",
"490 516 OFFCURVE",
"478 522 OFFCURVE",
"465 528 CURVE SMOOTH",
"452 534 OFFCURVE",
"437 537 OFFCURVE",
"422 537 CURVE SMOOTH",
"400 537 OFFCURVE",
"376 531 OFFCURVE",
"350 518 CURVE SMOOTH",
"307 495 OFFCURVE",
"280 452 OFFCURVE",
"271 389 CURVE SMOOTH",
"270 378 OFFCURVE",
"269 367 OFFCURVE",
"269 355 CURVE SMOOTH",
"269 297 OFFCURVE",
"286 228 OFFCURVE",
"321 147 CURVE SMOOTH",
"363 49 OFFCURVE",
"409 0 OFFCURVE",
"458 0 CURVE SMOOTH",
"481 0 OFFCURVE",
"503 8 OFFCURVE",
"524 25 CURVE SMOOTH",
"545 41 OFFCURVE",
"563 83 OFFCURVE",
"577 150 CURVE SMOOTH",
"737 900 LINE SMOOTH"
);
}
);
width = 849;
}
);
note = uni179A;
unicode = 179A;
},
